<svg width="480" height="470" viewBox="0 0 480 470" fill="none" xmlns="http://www.w3.org/2000/svg">
<g clip-path="url(#clip0_944_272)">
<g clip-path="url(#clip1_944_272)">
<path d="M231.36 90.1961C231.333 82.1991 228.602 72.0948 226.169 66.151C223.586 59.8426 224.749 58.5998 228.629 63.1522C231.969 67.2182 233.727 71.622 234.578 71.5004C234.984 71.4464 233.74 67.8936 231.374 62.963C228.94 57.8974 226.993 54.3176 228.724 53.4396C230.739 52.467 239.202 65.4216 240.095 69.3796C241.622 73.2025 237.729 57.8974 234.862 53.0613C232.037 47.5634 235.241 46.942 239.932 53.8178C244.462 60.7612 246.017 67.4884 247.247 69.231C247.571 67.61 247.801 65.4621 245.597 57.4921C243.718 51.6564 246.679 51.805 249.843 57.5867C253.71 64.5435 253.534 75.7015 255.589 76.6066C257.374 76.4445 257.414 73.5402 260.821 68.3664C264.134 63.2062 263.985 71.3653 261.876 77.8224C259.861 84.4686 258.685 89.7504 257.252 95.8157C254.048 109.419 250.303 110.851 244.367 110.837C238.026 110.797 231.171 106.366 231.347 90.2097L231.36 90.1961Z" fill="#EDB09D"/>
<path opacity="0.5" d="M248.978 81.267C248.761 81.3616 248.612 81.5102 248.45 81.6993C248.274 81.9155 248.072 82.0776 247.923 82.3207C247.653 82.7665 247.423 83.2258 247.193 83.6851C246.747 84.6172 246.355 85.5763 246.003 86.5489C245.652 87.4945 245.327 88.4671 245.07 89.4397C244.813 90.4258 244.475 91.5065 244.502 92.5331C244.529 93.2356 245.395 93.3842 245.679 92.7628C246.084 91.8847 246.273 90.8716 246.557 89.9395C246.855 88.9669 247.166 88.0078 247.531 87.0487C247.882 86.1166 248.274 85.2115 248.68 84.3065C248.883 83.8607 249.086 83.4149 249.275 82.9556C249.37 82.726 249.383 82.4828 249.464 82.2397C249.545 81.9965 249.572 81.7804 249.532 81.5237C249.491 81.2535 249.194 81.159 248.964 81.2535L248.978 81.267Z" fill="#A34B5F"/>
<path d="M348.379 163.128C355.518 173.314 347.649 195.508 327.544 203.951C311.563 210.665 245.597 230.644 227.088 213.38C214.081 201.249 230.252 112.31 233.28 98.7335C238.026 100.3 249.748 98.5174 255.63 98.4093C253.642 105.164 252.547 181.297 258.198 181.959C265.04 182.756 298.638 168.64 318.932 158.779C336.927 150.025 343.877 156.698 348.393 163.142L348.379 163.128Z" fill="#EDB09D"/>
<path d="M353.72 163.345C350.38 153.483 324.867 149.269 276.167 174.908C276.167 174.908 278.763 190.172 284.644 202.668C290.526 215.163 294.744 219.364 294.744 219.364C294.744 219.364 363.617 192.536 353.72 163.358V163.345Z" fill="#4A53A5"/>
<path d="M281.156 178.19C280.723 176.029 280.223 173.084 278.858 172.733C277.14 172.287 273.558 174.178 273.03 174.908C272.043 176.245 272.584 181.892 273.76 186.498C274.937 191.091 281.197 208.233 288.89 218.783C289.295 219.337 295.109 218 295.555 217.487C296.772 216.109 296.123 215.717 295.285 214.082C293.324 210.206 290.945 206.585 289.106 202.614C285.496 194.833 282.819 186.62 281.156 178.204V178.19Z" fill="#787FFF"/>
<path d="M327.531 387.315C326.99 389.99 312.334 484.036 325.124 565.924C322.177 565.965 319.216 566.019 316.268 566.087C304.56 566.357 292.865 566.789 281.17 567.154C279.263 567.208 277.357 567.262 275.45 567.329C273.814 551.511 270.434 515.065 270.042 480.686C269.528 435.135 279.777 329.567 283.563 319.84L395.876 329.026C395.335 330.647 391.55 516.497 434.734 568.221H375.785C352.138 518.091 340.159 400.473 338.009 389.666C335.846 378.859 328.099 384.627 327.558 387.329L327.531 387.315Z" fill="#62344A"/>
<g opacity="0.3">
<g style="mix-blend-mode:multiply">
<path d="M332.898 351.261C333.02 348.411 333.196 345.561 333.493 342.724C333.777 339.968 334.048 337.158 334.643 334.443C334.737 334.051 335.386 334.024 335.467 334.443C335.467 334.484 335.467 334.524 335.481 334.551C335.548 334.929 335.603 335.294 335.63 335.672C335.63 335.834 335.467 335.861 335.359 335.794C335.116 338.158 334.778 340.522 334.548 342.886C334.291 345.669 334.075 348.465 333.94 351.261C333.818 354.003 333.764 356.746 333.764 359.488C333.764 362.338 333.967 365.202 333.885 368.039C333.885 368.349 333.358 368.457 333.304 368.12C332.885 365.391 332.844 362.568 332.79 359.812C332.723 356.962 332.777 354.098 332.885 351.248L332.898 351.261Z" fill="#62344A"/>
</g>
<g style="mix-blend-mode:multiply">
<path d="M326.909 350.572C327.125 347.735 327.531 344.926 328.112 342.143C328.41 340.725 328.761 339.32 329.153 337.928C329.505 336.699 329.748 335.348 330.586 334.349C330.722 334.186 330.952 334.322 330.965 334.511C331.033 335.861 330.397 337.199 330.046 338.496C329.694 339.792 329.37 341.103 329.099 342.413C328.531 345.155 328.126 347.925 327.909 350.721C327.693 353.45 327.653 356.192 327.774 358.934C327.828 360.271 327.909 361.622 328.045 362.959C328.18 364.351 328.545 365.85 328.45 367.255C328.45 367.458 328.112 367.606 328.018 367.377C327.504 366.215 327.396 364.824 327.233 363.581C327.044 362.149 326.895 360.704 326.814 359.258C326.639 356.367 326.693 353.463 326.909 350.572Z" fill="#62344A"/>
</g>
<g style="mix-blend-mode:multiply">
<path d="M376.745 334.767C376.826 334.349 377.38 334.443 377.502 334.767C377.975 336.064 377.908 337.631 378.084 338.995C378.273 340.427 378.489 341.846 378.746 343.264C379.26 346.087 379.909 348.884 380.679 351.639C381.41 354.26 382.113 357.056 383.37 359.474C384.492 361.636 387.061 363.905 389.616 362.527C389.981 362.325 390.306 362.878 389.941 363.095C387.805 364.337 385.168 363.405 383.667 361.622C381.842 359.461 381.058 356.394 380.233 353.747C379.26 350.599 378.476 347.398 377.854 344.169C377.556 342.602 377.299 341.035 377.097 339.455C376.894 337.969 376.475 336.253 376.745 334.781V334.767Z" fill="#62344A"/>
</g>
<g style="mix-blend-mode:multiply">
<path d="M282.184 353.233C282.305 354.314 283.82 354.057 284.347 353.531C285.05 352.815 285.266 351.734 285.55 350.815C286.253 348.397 286.97 345.979 287.673 343.575C289.092 338.739 290.512 333.903 292.053 329.107C292.189 328.702 292.811 328.864 292.689 329.283C291.093 335.348 289.309 341.346 287.565 347.371C287.132 348.843 286.726 350.329 286.28 351.788C285.983 352.774 285.604 353.801 284.793 354.463C283.617 355.422 281.264 355.03 281.278 353.233C281.278 352.639 282.116 352.666 282.184 353.233Z" fill="#62344A"/>
</g>
<g style="mix-blend-mode:multiply">
<path d="M315.849 379.696C319.297 379.318 322.799 379.413 326.246 379.656C329.64 379.899 332.993 380.318 336.333 380.953C336.684 381.02 336.603 381.628 336.251 381.588C332.871 381.182 329.478 380.831 326.084 380.615C322.677 380.399 319.256 380.345 315.849 380.129C315.565 380.115 315.579 379.723 315.849 379.696Z" fill="#62344A"/>
</g>
</g>
<path d="M278.249 327.527C279.169 330.782 305.641 343.305 337.211 347.479C368.795 351.653 405.935 344.237 404.543 336.348C403.15 328.459 393.429 245.111 406.895 202.425C420.362 159.751 412.736 155.294 406.219 149.282C401.528 144.96 389.508 144.284 375.758 145.527C362.44 146.729 347.487 149.715 336.062 152.889C328.95 154.875 323.204 156.928 320.041 158.671C306.574 166.087 291.513 183.621 286.794 221.458C282.657 254.662 277.316 324.285 278.249 327.527Z" fill="#4A53A5"/>
<g style="mix-blend-mode:multiply" opacity="0.2">
<path d="M300.49 181.203C299.476 182.013 298.638 183.324 297.908 184.404C297.151 185.512 296.434 186.66 295.771 187.822C294.406 190.24 293.23 192.766 292.229 195.346C291.702 196.711 291.229 198.088 290.796 199.48C290.661 199.926 289.728 203.911 290.025 203.938C290.323 203.951 290.972 200.79 291.35 199.804C291.864 198.453 292.405 196.967 292.919 195.616C293.906 193.063 295.231 190.686 296.583 188.308C297.245 187.133 297.935 185.985 298.665 184.85C299.368 183.756 300.287 182.635 300.801 181.446C300.896 181.243 300.666 181.068 300.49 181.203Z" fill="#62344A"/>
</g>
<path d="M348.325 191.253C360.358 193.131 370.972 190.537 371.134 191.253C371.918 194.765 371.756 198.534 371.486 202.1C371.202 205.923 370.404 209.746 368.714 213.204C367.727 215.244 366.388 217.176 364.536 218.486C362.941 219.607 361.007 220.202 359.074 220.391C357.303 220.567 355.464 220.391 353.869 219.621C351.705 218.581 350.164 216.527 349.204 214.326C347.433 210.192 347.433 205.518 347.473 201.101C347.5 198.196 347.379 195.117 347.92 192.253C347.947 192.104 348.041 191.24 348.325 191.28V191.253Z" fill="#787FFF"/>
<path d="M444.766 263.996C442.738 279.68 414.345 288.041 384.587 304.252L392.983 329.823C392.983 329.823 482.947 307.21 479.919 262.632C478.378 240.019 426.892 165.33 419.97 167.181C416.819 168.019 397.404 186.714 394.24 191.145C389.792 197.372 446.794 248.313 444.766 263.996Z" fill="#EDB09D"/>
<path d="M381.166 148.674C372.432 154.334 371.702 184.283 409.059 220.013C409.059 220.013 418.901 208.774 431.665 197.264C444.428 185.755 442.508 182.716 442.508 182.716C442.508 182.716 407.058 131.924 381.18 148.688L381.166 148.674Z" fill="#4A53A5"/>
<g style="mix-blend-mode:multiply" opacity="0.2">
<path d="M403.421 213.569C399.77 210.341 396.35 206.936 393.416 203.033C391.982 201.128 390.671 199.156 389.468 197.102C388.251 195.022 387.25 192.78 385.939 190.767C385.804 190.564 385.466 190.686 385.533 190.942C386.128 193.293 387.399 195.535 388.629 197.602C389.576 199.21 390.617 200.75 391.699 202.263C390.739 201.911 389.765 201.574 388.792 201.236C388.062 200.979 387.318 200.736 386.588 200.493C385.885 200.263 385.101 199.939 384.343 199.98C384.154 199.98 384.005 200.25 384.168 200.398C384.722 200.871 385.493 201.087 386.182 201.317C386.912 201.56 387.656 201.817 388.386 202.046C389.725 202.479 391.063 202.938 392.429 203.289C392.537 203.438 392.645 203.6 392.753 203.735C395.701 207.598 399.081 211.205 402.947 214.164C403.299 214.434 403.745 213.853 403.421 213.556V213.569Z" fill="#62344A"/>
</g>
<path d="M384.587 336.942C384.587 336.942 391.901 343.669 400.122 340.238C408.342 336.807 398.959 335.645 398.959 335.645C398.959 335.645 405.665 333.849 405.232 331.417C404.813 328.999 397.418 329.729 397.418 329.729L384.6 336.929L384.587 336.942Z" fill="#EDB09D"/>
<path d="M392.658 300.564C392.658 300.564 375.163 305.508 372.743 312.087C370.323 318.652 381.612 336.564 385.384 337.618C389.157 338.671 406.192 325.446 407.233 323.825C408.274 322.204 398.134 298.281 392.658 300.577V300.564Z" fill="#EDB09D"/>
<path opacity="0.3" d="M390.684 335.456C391.117 335.267 391.536 335.091 391.969 334.889C392.848 334.484 393.7 334.038 394.511 333.524C396.147 332.511 397.647 331.296 398.972 329.918C399.31 329.566 399.811 330.134 399.473 330.485C398.121 331.903 396.593 333.146 394.93 334.186C394.119 334.7 393.267 335.159 392.402 335.578C391.955 335.794 391.496 335.983 391.022 336.145C390.59 336.294 390.144 336.496 389.684 336.442C389.481 336.415 389.387 336.172 389.535 336.037C389.846 335.74 390.279 335.618 390.671 335.456H390.684Z" fill="#A34B5F"/>
<path d="M436.762 181.622C438.236 179.514 439.155 177.191 441.683 177.177C442.819 177.177 447.578 181 447.01 183.108C446.213 186.039 444.982 188.092 442.765 191.267C434.044 203.776 423.296 213.637 410.208 221.283C408.18 222.471 403.272 217.689 403.042 216.933C402.434 214.893 403.299 214.785 404.935 213.421C408.829 210.192 413.047 207.423 416.846 204.032C424.323 197.386 431.029 189.862 436.762 181.635V181.622Z" fill="#787FFF"/>
<path d="M393.242 299.797L406.788 325.906C407.252 326.8 408.353 327.15 409.248 326.686L415.466 323.466C416.361 323.002 416.711 321.902 416.247 321.008L402.701 294.899C402.237 294.005 401.136 293.655 400.241 294.119L394.023 297.339C393.128 297.803 392.778 298.903 393.242 299.797Z" fill="#62344A"/>
<path d="M400.433 302.09C395.836 304.468 394.038 310.128 396.431 314.707C398.81 319.3 404.475 321.097 409.059 318.706C413.656 316.328 415.454 310.668 413.061 306.089C410.681 301.496 405.016 299.699 400.433 302.09Z" fill="#FFC442"/>
<g style="mix-blend-mode:overlay">
<path d="M402.204 305.508C399.5 306.913 398.445 310.236 399.851 312.938C401.257 315.639 404.583 316.693 407.288 315.288C409.992 313.883 411.046 310.56 409.64 307.858C408.234 305.157 404.908 304.103 402.204 305.508Z" fill="#FFC442"/>
</g>
<path d="M288.957 51.2917C289.187 41.7142 292.729 32.5149 297.164 24.0181C297.975 22.4781 298.841 20.9111 300.152 19.7629C301.464 18.6147 303.343 17.9528 304.992 18.5066C306.723 19.0875 307.805 20.803 308.373 22.5321C309.576 26.1929 309.049 30.1509 308.508 33.9603C307.102 43.9566 305.695 53.9664 304.289 63.9627C303.816 67.3263 303.302 70.852 301.693 73.8914C299.409 78.2006 297.069 74.7154 294.987 71.8786C290.674 66.0024 288.768 58.5052 288.944 51.2782L288.957 51.2917Z" fill="#2D2433"/>
<path d="M341.998 154.861C341.998 154.861 334.67 163.966 340.957 164.155C347.244 164.344 365.117 150.336 365.117 150.336L360.372 125.859L337.252 130.384L341.998 154.861Z" fill="#EDB09D"/>
<path opacity="0.4" d="M355.18 138.881C357.478 137.868 359.736 136.787 362.021 135.747C362.102 135.706 362.184 135.666 362.265 135.639L360.372 125.859L337.252 130.384L339.726 143.149C345.067 142.65 350.299 141.015 355.18 138.867V138.881Z" fill="#A34B5F"/>
<path d="M380.166 113.728C373.135 141.11 321.109 143.744 300.49 129.938C283.008 118.226 291.472 35.3787 299.882 28.9487C318.54 14.6702 339.185 6.94334 359.615 13.603C399.202 26.6792 395.254 78.4843 380.179 113.728H380.166Z" fill="#EDB09D"/>
<path d="M281.021 29.5295C282.075 24.4098 285.537 19.8439 290.188 17.4394C291.161 16.9396 292.202 16.5479 293.257 16.2372C293.798 11.6308 296.164 7.21351 299.868 4.34971C306.358 -0.661937 315.471 -0.580886 323.596 0.810488C330.708 2.03976 338.185 3.57973 345.459 3.49868C352.489 3.41763 363.901 4.14708 370.823 5.33583C376.948 6.38949 383.289 7.60526 388.237 11.3201C394.659 16.1426 397.485 24.2072 399.959 31.799C402.217 38.7288 404.489 45.7532 404.827 53.0208C405.165 60.2884 403.353 67.9477 398.364 73.297C396.052 75.7826 383.951 79.2137 381.72 81.7668C380.152 83.5635 378.543 86.0355 378.138 88.4536C377.827 90.2502 376.245 91.574 374.392 91.6821C372.094 91.8172 370.134 90.0476 370.079 87.7781C370.079 87.7781 371.972 77.2415 372.243 70.4873C372.513 63.733 374.744 58.7349 371.256 56.3439C368.322 54.3446 367.619 55.6279 365.036 53.2099C362.508 50.8459 362.792 46.9014 362.224 43.5108C359.628 27.7464 331.398 30.6237 324.462 32.8796C318.567 34.7978 312.226 36.4324 306.223 34.8654C305.425 34.6628 304.654 34.3926 303.897 34.0684C301.748 37.5401 298.449 40.2958 294.595 41.6466C291.215 42.8219 287.2 42.8489 284.347 40.7146C281.061 38.2425 280.196 33.5551 281.034 29.5295H281.021Z" fill="#2D2433"/>
<path d="M379.408 97.4637C381.193 102.543 389.616 104.38 396.417 99.8007C403.218 95.2213 408.166 81.4021 403.11 73.8779C398.067 66.3537 386.047 69.7038 381.464 78.6599C378.016 85.4276 378.016 93.5057 379.408 97.4637Z" fill="#EDB09D"/>
<path opacity="0.5" d="M398.418 78.9166C398.689 78.6599 398.567 78.1736 398.188 78.079C396.579 77.6873 394.781 78.6869 393.443 79.4839C391.969 80.362 390.59 81.4697 389.468 82.753C387.196 85.3601 385.668 88.7913 385.75 92.2764C385.763 92.9248 386.791 93.114 386.939 92.4385C387.602 89.3451 388.751 86.4003 390.901 84.0093C391.185 83.685 391.523 83.4014 391.834 83.1177C391.955 83.2798 392.104 83.4149 392.239 83.5635C392.469 83.8336 392.713 84.0903 392.942 84.347C393.402 84.8873 393.808 85.4817 394.186 86.0761C394.943 87.3053 395.403 88.6967 396.255 89.8584C396.417 90.0746 396.863 90.1151 396.917 89.7774C397.174 88.1564 396.431 86.6164 395.592 85.2655C395.173 84.5766 394.659 83.9417 394.119 83.3473C393.862 83.0502 393.591 82.78 393.28 82.5233C393.145 82.4153 393.01 82.2937 392.861 82.1991C393.348 81.8074 393.848 81.4426 394.389 81.1184C395.66 80.362 397.323 79.9702 398.391 78.9301L398.418 78.9166Z" fill="#A34B5F"/>
<path d="M297.407 58.2891C298.435 57.2354 299.679 56.3979 300.99 55.8576C302.315 55.3172 303.694 55.1011 304.952 55.2497C305.831 55.3442 307.886 55.5739 309.103 57.33C309.522 57.9244 309.616 58.7484 309.346 59.4508C309.089 60.0992 308.589 60.545 307.98 60.6126C307.44 60.6801 306.939 60.572 306.534 60.4775C306.412 60.4505 306.304 60.4234 306.182 60.4099C305.763 60.3424 305.317 60.3019 304.884 60.3154C303.978 60.3289 303.14 60.518 302.302 60.8827C301.504 61.2339 300.747 61.7743 300.003 62.5172C299.814 62.7064 299.611 62.963 299.409 63.2062C298.773 63.9897 297.975 64.9623 296.894 65.1649C296.799 65.1784 296.718 65.1919 296.623 65.1919C296.299 65.1919 295.988 65.0704 295.717 64.8272C295.325 64.4895 295.055 63.9221 295.014 63.3142C294.825 60.9232 296.759 58.9375 297.407 58.2891Z" fill="#2D2433"/>
<path d="M338.509 53.9934C340.118 53.7908 341.876 53.9799 343.593 54.5337C345.283 55.0876 346.906 55.9927 348.258 57.1544C349.096 57.8703 351.638 60.0317 351.462 62.7469C351.421 63.4358 351.097 64.0842 350.597 64.4895C350.259 64.7597 349.866 64.9083 349.447 64.9353C349.339 64.9353 349.218 64.9353 349.109 64.9218C347.703 64.7326 346.662 63.6655 345.824 62.8009C345.554 62.5308 345.297 62.2471 345.04 62.0445C344.066 61.2339 343.079 60.6531 342.052 60.2884C340.97 59.8966 339.888 59.721 338.726 59.7345C338.171 59.7345 337.617 59.7885 337.076 59.8966C336.928 59.9236 336.779 59.9642 336.63 59.9912C336.116 60.0992 335.481 60.2478 334.778 60.1938C334.007 60.1398 333.331 59.667 332.993 58.924C332.628 58.127 332.723 57.2084 333.236 56.506C334.751 54.4797 337.387 54.142 338.509 53.9934Z" fill="#2D2433"/>
<path d="M336.495 77.5657C337.685 76.5391 339.212 76.1473 340.754 76.4715C342.336 76.8092 343.701 77.8359 344.891 78.876C346.108 79.9297 347.054 81.0509 347.46 82.6314C347.622 83.2933 346.662 83.7391 346.338 83.1042C345.783 82.0505 344.783 81.1455 343.877 80.4025C342.971 79.646 341.998 78.849 340.848 78.4708C339.834 78.1466 338.766 78.2141 337.914 78.8895C337.549 79.1732 337.252 79.538 337.036 79.9432C336.779 80.4295 336.752 80.9563 336.603 81.4832C336.373 82.3072 335.102 82.3477 334.886 81.4832C334.548 80.0783 335.454 78.4708 336.508 77.5657H336.495Z" fill="#2D2433"/>
<path d="M296.718 80.6592C297.218 79.5109 298.3 78.5788 299.571 78.4978C300.963 78.4032 302.329 79.3488 303.343 80.2134C303.843 80.6456 304.303 81.1184 304.695 81.6588C305.087 82.1991 305.493 82.8205 305.601 83.4959C305.668 83.9147 305.222 84.2254 304.871 83.9147C304.465 83.55 304.154 83.0772 303.789 82.6854C303.438 82.3072 303.073 81.9425 302.694 81.6047C302.288 81.2535 301.842 80.9428 301.382 80.6727C300.936 80.4025 300.436 80.1053 299.895 80.0648C299.043 79.9837 298.367 80.7132 298.084 81.4426C297.867 81.983 297.84 82.5503 297.8 83.1177C297.759 83.7256 297.759 84.32 297.286 84.7522C297.205 84.8333 297.056 84.8603 296.948 84.7928C296.664 84.5901 296.488 84.374 296.38 84.0228C296.258 83.658 296.258 83.2123 296.258 82.834C296.272 82.0911 296.407 81.3616 296.704 80.6727L296.718 80.6592Z" fill="#2D2433"/>
<path opacity="0.5" d="M305.966 92.0333C306.777 86.6164 308.318 81.294 310.401 76.2284C311.577 73.3781 312.834 70.5818 314.659 68.0827C314.93 67.7045 315.457 68.0152 315.281 68.4475C314.024 71.3653 312.537 74.1616 311.347 77.1064C310.157 80.0378 309.17 83.0637 308.386 86.1301C307.994 87.643 307.656 89.1695 307.372 90.696C307.223 91.4794 307.075 92.2764 306.953 93.0735C306.845 93.8164 306.75 94.6539 307.413 95.1808C308.386 95.9508 309.873 95.5455 310.928 95.1808C312.266 94.7215 313.551 94.2217 314.984 94.5864C315.308 94.6674 315.241 95.2213 314.903 95.1808C312.523 94.8701 310.59 96.9504 308.143 96.5721C307.318 96.4371 306.534 96.0453 306.101 95.3024C305.52 94.3027 305.804 93.087 305.966 92.0198V92.0333Z" fill="#A34B5F"/>
<path d="M321.528 99.7331C327.477 98.4904 332.804 95.7887 334.71 97.5583C336.617 99.3279 333.074 106.379 323.772 107.987C314.47 109.594 311.05 104.258 311.969 102.192C312.888 100.125 315.538 100.989 321.514 99.7331H321.528Z" fill="white"/>
<path d="M343.255 164.858C343.255 164.858 345.297 150.133 347.717 149.309C350.137 148.485 353.977 162.507 353.977 162.507C353.977 162.507 349.326 164.858 343.242 164.858H343.255Z" fill="#4A53A5"/>
<path d="M342.255 167.127C342.255 167.127 343.836 150.917 347.541 147.134C351.246 143.352 364.144 133.369 369.552 136.341C374.96 139.313 375.799 144.298 377.651 148.62C379.503 152.943 355.072 164.695 353.476 164.29C351.881 163.885 349.907 149.431 348.068 150.376C346.216 151.322 345.161 166.857 342.255 167.127Z" fill="#787FFF"/>
<path d="M341.213 165.222C341.213 165.222 341.714 148.972 338.361 148.593C335.008 148.215 329.856 161.724 329.856 161.724C329.856 161.724 336.251 164.196 341.213 165.209V165.222Z" fill="#4A53A5"/>
<path d="M331.087 163.426C330.113 163.345 329.194 162.912 328.423 162.277C327.585 161.575 326.922 160.67 326.355 159.724C325.908 158.995 325.503 158.211 325.462 157.347C325.408 155.982 326.3 154.645 326.855 153.456C327.49 152.092 328.274 150.795 329.086 149.525C330.478 147.378 334.048 141.88 337.725 142.136C341.403 142.379 341.93 149.039 342.133 151.146C342.322 153.254 342.457 157.347 342.525 160.305C342.525 160.724 342.728 167.113 342.484 167.14C340.402 167.411 340.93 150.255 338.158 149.444C336.441 148.945 333.71 160.13 331.993 163.412C331.695 163.453 331.384 163.466 331.087 163.439V163.426Z" fill="#787FFF"/>
<path d="M62.7616 32.2312C53.9598 35.838 26.4053 63.0846 23.6742 117.2C20.9295 171.301 29.8124 168.181 27.1895 189.497C24.5665 210.813 1.2439 225.092 0.0676235 239.37C-1.55482 259.093 25.5535 265.577 34.0173 247.867C32.1514 259.079 32.5165 272.358 47.7269 274.79C62.9373 277.221 69.0215 252.595 69.0215 252.595C69.0215 252.595 69.0215 276.005 83.6235 277.829C98.2255 279.653 107.054 251.69 107.054 251.69C107.054 251.69 103.093 269.927 118.006 270.845C132.919 271.764 133.527 251.082 131.093 232.549C128.66 214.001 128.66 176.623 140.828 175.408C152.996 174.192 165.476 173.584 168.207 159.603C170.952 145.621 156.769 135.558 154.213 116.132C151.644 96.7072 155.728 59.8966 118.317 46.226C80.8924 32.5419 71.5768 28.638 62.7751 32.2447L62.7616 32.2312Z" fill="#62344A"/>
<path d="M168.626 270.332C181.092 293.458 197.708 302.712 230.468 328.553L225.641 346.331C225.641 346.331 175.657 328.959 140.504 281.949C123.806 259.606 120.561 202.641 129.958 183.877C138.07 167.667 157.539 175.34 159.162 193.604C161.149 215.947 155.376 245.746 168.626 270.332Z" fill="#FFC3A9"/>
<path d="M211.445 343.183C215.366 347.681 219.246 355.327 220.49 360.055C221.937 365.026 223.397 365.134 223.613 360.596C223.708 356.462 222.194 352.707 222.924 352.247C223.289 352.031 223.924 355.017 225.168 359.069C226.655 363.865 227.129 368.268 228.913 366.796C231.05 365.134 229.711 353.301 228.373 350.167C227.277 346.965 232.577 357.786 233.74 363.095C235.187 368.917 237.958 368.43 237.053 360.217C235.957 352.598 233.727 348.141 233.659 346.236C234.795 347.209 236.16 348.384 239.243 355.827C241.352 361.73 243.759 360.028 242.501 353.314C241.028 345.466 234.267 338.252 235.092 336.51C236.309 335.672 237.945 337.469 243.083 339.806C248.072 342.413 243.258 335.618 238.242 332.174C233.132 328.432 227.331 324.109 222.153 322.475C215.028 320.232 211.188 319.057 206.78 323.163C203.914 325.717 198.817 329.783 200.629 333.322C202.062 336.132 208.376 338.793 211.445 343.21V343.183Z" fill="#FFC3A9"/>
<path d="M127.605 503.488C132.053 482.226 117.506 399.743 116.072 383.898C114.626 368.052 114.274 326.257 114.274 326.257L182.052 326.622C182.052 326.622 201.886 375.617 190.34 435.054C178.807 494.492 165.827 536.638 163.299 558.968C160.771 581.297 110.664 571.22 110.664 571.22C110.664 571.22 122.562 527.628 127.605 503.502V503.488Z" fill="#787FFF"/>
<path d="M81.0952 324.825C54.1897 369.16 61.9909 363.729 51.8912 447.658C41.7915 531.586 37.465 554.28 24.8505 572.652C12.236 591.023 74.1863 573.354 74.1863 573.354C74.1863 573.354 95.2781 523.454 112.233 473.472C129.931 421.316 150.333 325.176 150.333 325.176L81.1087 324.812L81.0952 324.825Z" fill="#787FFF"/>
<g style="mix-blend-mode:multiply" opacity="0.3">
<path d="M130.188 412.306C132.31 405.39 134.474 398.5 136.623 391.597C137.218 389.666 137.827 387.748 138.449 385.829C138.935 384.33 139.354 382.763 139.976 381.291C138.3 381.453 136.583 381.466 134.974 381.101C134.73 381.047 134.703 380.615 134.974 380.588C136.799 380.345 138.638 380.331 140.477 380.196C140.585 380.021 140.828 380.034 140.963 380.156C141.464 380.115 141.95 380.075 142.451 379.994C144.952 379.629 147.386 378.994 149.806 378.251C150.292 378.103 150.468 378.818 150.008 379.008C147.588 379.994 145.033 380.629 142.451 380.993C141.95 381.061 141.437 381.128 140.923 381.196C140.652 382.601 140.193 383.965 139.787 385.33C139.246 387.099 138.705 388.869 138.151 390.638C137.056 394.11 135.974 397.595 134.879 401.067C132.716 407.97 130.553 414.873 128.335 421.748C127.078 425.652 125.753 429.516 124.496 433.42C124.374 433.798 123.779 433.636 123.901 433.258C126.01 426.287 128.051 419.29 130.201 412.333L130.188 412.306Z" fill="#62344A"/>
</g>
<g style="mix-blend-mode:multiply" opacity="0.3">
<path d="M76.5929 364.986C78.2018 365.391 79.7161 366.161 81.298 366.688C82.8663 367.215 84.4888 367.62 86.1247 367.769C89.0181 368.012 91.8709 367.377 94.4262 366.039C99.6857 363.284 103.201 358.299 105.554 352.99C107.014 349.708 108.149 346.277 109.285 342.859C109.434 342.413 110.123 342.589 110.002 343.061C108.258 349.302 106.324 355.705 102.282 360.906C98.7257 365.486 93.3311 369.079 87.3551 369.052C85.4352 369.052 83.5288 368.674 81.7036 368.12C79.8513 367.552 77.8638 366.89 76.2549 365.796C75.8628 365.526 76.0926 364.878 76.5929 364.999V364.986Z" fill="#62344A"/>
</g>
<g style="mix-blend-mode:multiply" opacity="0.3">
<path d="M177.549 336.348C178.063 339.131 178.469 341.94 179.023 344.723C179.591 347.56 180.226 350.383 180.93 353.179C181.619 355.895 182.349 358.61 183.187 361.284C183.972 363.756 185.337 366.418 188.244 366.661C188.663 366.701 188.65 367.242 188.244 367.296C185.743 367.62 183.863 365.499 182.944 363.419C181.741 360.731 181.065 357.718 180.308 354.881C179.496 351.828 178.78 348.735 178.144 345.642C177.536 342.616 176.914 339.549 176.576 336.483C176.522 335.943 177.441 335.807 177.536 336.348H177.549Z" fill="#62344A"/>
</g>
<g style="mix-blend-mode:multiply" opacity="0.3">
<path d="M144.992 346.871C145.074 344.426 145.074 341.981 144.979 339.536C144.871 337.05 144.492 334.551 144.56 332.066C144.56 331.714 145.087 331.633 145.182 331.985C145.831 334.362 145.885 336.929 145.979 339.387C146.074 341.94 146.074 344.493 145.952 347.046C145.709 351.977 145.06 356.881 144.046 361.717C146.033 362.986 148.67 361.798 149.873 359.947C151.347 357.651 151.32 354.706 151.482 352.085C151.847 345.966 152.172 339.833 151.82 333.7C151.807 333.403 152.266 333.403 152.28 333.7C152.726 340.603 152.51 347.6 152.023 354.49C151.847 357.002 151.401 359.88 149.373 361.622C147.751 363.027 145.236 363.621 143.411 362.257C143.262 362.149 143.194 362 143.235 361.811C144.235 356.894 144.83 351.896 144.992 346.884V346.871Z" fill="#62344A"/>
</g>
<path d="M196.478 349.316C186.027 355.435 178.09 340.306 169.437 344.264C161.731 347.803 146.006 349.897 134.014 344.966C132.54 344.372 131.121 343.656 129.782 342.832C126.943 341.076 124.103 339.428 121.251 338.023C121.183 337.982 121.115 337.942 121.048 337.928C116.221 335.551 111.34 333.889 106.324 333.66C106.297 333.66 106.27 333.66 106.243 333.66C102.376 333.47 98.4148 334.146 94.3451 335.997L93.899 336.199C93.1283 336.564 92.3441 336.969 91.5599 337.428C86.2059 340.522 80.9329 342.656 76.1062 343.953C68.5753 345.993 62.1802 345.966 58.3945 344.264C47.9297 339.59 69.2108 315.085 75.3355 297.795C76.1738 295.417 76.5388 292.85 76.5118 290.108C76.4577 282.449 73.4832 273.506 70.1031 263.983C67.061 255.418 63.6945 246.381 61.8151 237.371C61.4636 235.683 61.1526 233.872 60.8822 231.941C59.1381 219.797 58.8947 203.316 60.1116 189.497C61.2879 176.056 63.8432 165.114 67.7641 163.074C69.8327 162.007 74.6865 161.886 81.0005 162.399C83.3801 162.588 85.976 162.872 88.6936 163.223C103.566 165.155 122.4 169.18 133.27 172.301C138.151 173.706 141.423 174.921 142.031 175.678C144.005 178.136 160.541 194.13 171.222 209.868C176.184 217.176 179.861 224.43 180.254 230.252C180.794 238.33 179.605 243.517 178.104 247.219C176.184 251.947 173.764 254.27 173.764 257.094C173.764 258.755 174.967 264.618 176.819 272.264C179.807 284.678 184.499 301.78 188.487 313.046C189.529 315.991 190.529 318.53 191.435 320.489C197.925 334.538 206.929 343.183 196.478 349.316Z" fill="#9B4DFF"/>
<g style="mix-blend-mode:multiply" opacity="0.3">
<path d="M123.346 254.095C128.065 252.176 133.189 251.163 138.192 250.231C140.652 249.772 143.127 249.367 145.614 249.029C148.102 248.678 150.712 248.205 153.226 248.299C153.673 248.313 153.794 248.988 153.334 249.096C150.928 249.664 148.373 249.799 145.925 250.164C143.397 250.528 140.869 250.961 138.367 251.46C133.392 252.433 128.511 253.811 123.522 254.703C123.13 254.77 122.995 254.257 123.36 254.108L123.346 254.095Z" fill="#62344A"/>
</g>
<path d="M88.6936 163.223C96.8599 175.124 104.229 187.579 110.718 200.479C112.99 205.005 115.342 209.8 119.534 212.651C124.644 216.095 131.296 215.906 137.462 215.568C141.41 215.366 145.939 214.852 148.21 211.61C149.576 209.679 149.792 207.139 149.346 204.816C148.913 202.492 147.872 200.344 146.885 198.196C143.397 190.632 138.354 179.811 133.27 172.301C122.4 169.18 103.566 165.155 88.6936 163.223Z" fill="#FFC3A9"/>
<g style="mix-blend-mode:overlay" opacity="0.5">
<path d="M188.163 318.908C188.501 321.705 187.108 324.812 184.499 325.879C181.2 327.216 177.306 324.839 175.832 321.61C175.305 320.448 174.683 318.233 174.643 316.382C174.196 317.301 173.615 318.206 173.25 318.787C171.803 321.07 169.64 323.001 167.004 323.582C162.447 324.568 157.702 320.84 156.769 316.274C155.849 311.708 158.175 306.886 161.812 303.968C157.85 305.251 153.497 305.305 149.508 304.117C147.237 303.455 144.952 302.266 143.857 300.172C142.491 297.565 143.451 294.147 145.614 292.148C147.778 290.149 150.874 289.406 153.821 289.527C156.769 289.635 159.621 290.513 162.447 291.392C158.432 288.879 155.363 284.907 153.943 280.396C153.24 278.14 153.253 275.114 155.363 274.074C157.08 273.223 159.108 274.236 160.69 275.316C165.273 278.423 169.356 282.273 172.736 286.65C171.546 282.908 172.006 278.667 173.94 275.249C174.643 274.02 175.589 272.858 176.819 272.264C179.807 284.678 184.499 301.78 188.487 313.046C186.892 313.086 185.297 312.694 183.945 311.816C186.081 313.654 187.838 316.112 188.163 318.908Z" fill="#FFC442"/>
</g>
<g style="mix-blend-mode:overlay" opacity="0.5">
<path d="M93.899 336.199C93.1283 336.564 92.3441 336.969 91.56 337.428C86.2059 340.522 80.933 342.656 76.1062 343.953C75.9304 343.737 75.7547 343.494 75.6059 343.251C74.5378 341.522 74.2269 339.185 75.3085 337.455C76.1738 336.091 77.7286 335.308 79.27 334.808C84.0562 333.241 89.4778 333.781 93.899 336.199Z" fill="#FFC442"/>
</g>
<g style="mix-blend-mode:overlay" opacity="0.5">
<path d="M101.565 309.993C104.377 317.557 105.946 325.595 106.243 333.66C102.376 333.47 98.4148 334.146 94.3451 335.997C87.8418 328.824 86.7197 317.152 92.0061 308.966C93.3446 306.886 95.6161 304.846 97.9821 305.535C99.8885 306.089 100.875 308.142 101.565 309.993Z" fill="#FFC442"/>
</g>
<g style="mix-blend-mode:overlay" opacity="0.5">
<path d="M121.048 337.928C116.221 335.551 111.34 333.889 106.324 333.66C106.689 327.081 109.326 320.637 113.76 315.734C115.045 314.302 116.735 312.911 118.655 313.086C121.305 313.343 122.684 316.342 123.211 318.935C124.496 325.284 123.711 332.025 121.048 337.928Z" fill="#FFC442"/>
</g>
<g style="mix-blend-mode:overlay" opacity="0.5">
<path d="M135.447 342.589C135.014 343.413 134.528 344.196 134.014 344.966C132.54 344.372 131.121 343.656 129.782 342.832C126.943 341.076 124.103 339.428 121.251 338.023C123.049 335.713 124.793 332.971 127.389 331.795C130.255 330.485 134.109 330.796 135.974 333.322C137.921 335.956 136.988 339.711 135.447 342.589Z" fill="#FFC442"/>
</g>
<g style="mix-blend-mode:overlay" opacity="0.5">
<path d="M116.478 270.94C113.869 278.545 106.108 284.083 98.0497 284.083C100.199 285.097 102.363 286.285 103.823 288.149C105.283 290.027 105.905 292.742 104.729 294.809C103.039 297.781 98.861 297.97 95.4538 297.592C90.6676 297.065 85.8409 296.133 81.5819 293.891C79.635 292.85 77.9314 291.608 76.5118 290.108C76.4577 282.449 73.4832 273.506 70.1031 263.983C72.8613 264.077 75.6059 265.644 76.7552 268.17C74.8758 263.51 74.619 258.215 76.0386 253.392C76.5253 251.704 77.296 249.988 78.7156 248.934C80.8113 247.381 83.948 247.773 85.9896 249.407C88.0312 251.055 89.0857 253.676 89.3697 256.269C89.6401 258.877 89.2345 261.497 88.8289 264.077C89.9781 258.782 92.4658 253.784 95.9811 249.677C97.536 247.854 99.4964 246.098 101.89 245.908C105.324 245.638 108.271 248.907 108.744 252.311C109.218 255.729 107.825 259.12 106.135 262.119C104.458 265.131 102.417 267.995 101.416 271.277C104.85 269.44 108.528 268.035 112.314 267.09C113.774 266.725 115.626 266.563 116.464 267.806C117.073 268.697 116.83 269.913 116.464 270.94H116.478Z" fill="#FFC442"/>
</g>
<g style="mix-blend-mode:overlay" opacity="0.5">
<path d="M178.104 247.219C177.225 245.962 176.116 244.841 174.981 243.896C171.857 241.316 168.085 239.695 164.57 237.709C162.691 236.655 160.852 235.439 159.27 233.98C157.364 232.224 158.662 228.969 161.244 229.05C164.002 229.144 166.733 229.739 169.275 230.806C164.475 227.631 160.541 223.147 158.026 217.959C157.404 216.676 157.269 215.136 157.945 213.88C159.311 211.381 162.542 212.016 164.827 213.15C168.396 214.92 171.546 217.527 173.94 220.702C172.168 218.04 170.695 215.19 170.843 211.921C170.87 211.219 171.006 210.53 171.222 209.868C176.184 217.176 179.861 224.43 180.254 230.252C180.794 238.33 179.605 243.517 178.104 247.219Z" fill="#FFC442"/>
</g>
<g style="mix-blend-mode:overlay" opacity="0.5">
<path d="M88.3286 221.728C87.247 223.944 84.3401 224.443 81.8794 224.43C76.4442 224.376 71.0225 223.16 66.0876 220.891C68.6024 222.201 70.8738 224.052 71.9284 226.645C73.2128 229.82 71.8202 234.21 68.4807 235.021C66.4121 235.52 64.2488 234.575 62.5317 233.319C61.9504 232.9 61.396 232.441 60.8822 231.941C59.1381 219.797 58.8948 203.316 60.1116 189.497C62.383 189.429 64.695 189.74 66.9258 190.172C71.0631 190.956 75.2544 192.158 78.5669 194.752C81.8929 197.332 84.2184 201.547 83.5424 205.707C82.8664 209.854 78.5128 213.353 74.4567 212.272C76.3225 213.299 78.5128 213.569 80.622 213.92C82.7312 214.258 84.9215 214.731 86.598 216.055C88.2745 217.392 89.275 219.81 88.3286 221.728Z" fill="#FFC442"/>
</g>
<path d="M164.637 55.709C161.19 47.6849 154.754 41.0117 147.724 35.2436C146.439 34.1899 145.101 33.1363 143.478 32.5959C141.856 32.0421 139.868 32.0826 138.503 33.0822C137.069 34.1224 136.637 35.919 136.677 37.5671C136.786 41.0387 138.611 44.2403 140.395 47.2932C145.087 55.3172 149.792 63.3277 154.484 71.3518C156.066 74.0535 157.729 76.8633 160.27 78.9301C163.88 81.8479 164.894 78.1601 165.908 75.0936C167.991 68.7447 167.247 61.8013 164.651 55.736L164.637 55.709Z" fill="#62344A"/>
<path d="M122.413 172.287L102.444 171.017L104.391 146.013L124.36 147.283L122.413 172.287Z" fill="#FFC3A9"/>
<path opacity="0.4" d="M109.988 157.063C107.947 156.428 105.932 155.739 103.918 155.077C103.85 155.05 103.769 155.037 103.701 155.01L104.404 146.013L124.374 147.283L123.454 159.022C118.898 159.211 114.315 158.387 110.002 157.05L109.988 157.063Z" fill="#A34B5F"/>
<path d="M68.9944 122.211C70.6574 126.52 74.1051 130.951 77.8232 134.734C80.2569 137.233 82.8122 139.462 85.0566 141.191C93.5745 147.81 103.918 151.849 114.328 153.254C127.659 155.077 141.071 152.578 150.847 145.635C151.739 144.865 152.577 144.014 153.375 143.109C159.703 135.99 163.542 124.886 165.273 112.458C169.221 84.1713 162.217 49.0088 148.345 38.4451C131.729 21.7486 107.392 18.6552 87.328 26.7873C48.1325 42.7949 50.9177 88.1158 68.9944 122.211Z" fill="#FFC3A9"/>
<g opacity="0.15">
<path d="M77.8232 134.734C80.2569 137.233 82.8123 139.462 85.0566 141.191C93.5745 147.81 103.918 151.849 114.328 153.254C122.778 146.432 122.684 133.829 119.588 126.926C114.707 116.038 103.647 111.188 92.574 114.795C84.7457 117.321 78.0531 124.129 77.8232 134.734Z" fill="#DD6B7D"/>
<path d="M153.375 143.095C159.703 135.99 163.542 124.886 165.273 112.458C159.703 114.755 154.943 119.523 152.631 125.886C150.441 131.897 150.887 138.097 153.375 143.095Z" fill="#DD6B7D"/>
</g>
<path d="M162.231 47.6309C161.988 46.8609 161.622 46.1585 161.19 45.5101C156.512 36.9997 139.395 22.8698 116.775 21.3434C89.0857 19.4927 62.5723 23.059 49.4575 41.1738C40.6017 53.4125 37.519 71.7571 43.2111 86.2922C48.9032 100.827 60.7876 99.2198 64.9789 99.4495C68.1427 99.6251 71.1577 97.153 74.3215 98.2202C75.7546 98.7065 76.4847 99.6521 77.0661 100.733C77.323 100.8 77.5528 101.003 77.5934 101.341C77.6339 101.692 78.5263 102.097 78.7967 102.219C79.1753 102.394 79.5944 102.489 80.0135 102.516C82.0821 102.597 83.326 100.557 84.1237 98.5174C86.3005 96.2209 89.3155 91.8172 91.4518 83.7931C95.1699 69.8388 113.95 61.342 112.53 45.9423C112.381 44.3753 112.138 43.0785 111.8 41.9979C113.152 40.4174 115.788 39.2691 120.886 41.1603C125.929 43.038 131.066 44.686 136.245 46.145C138.962 46.9149 141.72 47.8605 144.506 48.2928C147.386 48.7251 150.374 48.7386 153.105 49.8733C155.498 50.8594 160.014 54.6148 162.028 51.2377C162.677 50.157 162.596 48.7791 162.231 47.6174V47.6309Z" fill="#62344A"/>
<path d="M77.7421 115.916C75.9574 120.995 67.5342 122.833 60.7335 118.253C53.9327 113.674 48.9843 99.8547 54.0409 92.3305C59.084 84.8062 71.1171 88.1564 75.687 97.1125C79.1347 103.88 79.1347 111.958 77.7421 115.916Z" fill="#FFC3A9"/>
<path opacity="0.5" d="M58.7325 97.3826C58.4621 97.126 58.5838 96.6397 58.9623 96.5451C60.5713 96.1534 62.3695 97.153 63.708 97.95C65.1817 98.8281 66.5608 99.9358 67.683 101.219C69.9544 103.826 71.4822 107.257 71.4011 110.743C71.3876 111.391 70.36 111.58 70.2113 110.905C69.5488 107.811 68.3996 104.866 66.2498 102.475C65.9659 102.151 65.6279 101.867 65.3169 101.584C65.1952 101.746 65.0465 101.881 64.9113 102.03C64.6814 102.3 64.4381 102.556 64.2082 102.813C63.7485 103.353 63.3429 103.948 62.9644 104.542C62.2072 105.771 61.7475 107.163 60.8958 108.325C60.7335 108.541 60.2873 108.581 60.2333 108.243C59.9764 106.622 60.72 105.082 61.5582 103.732C61.9774 103.043 62.4912 102.408 63.032 101.813C63.2889 101.516 63.5593 101.246 63.8702 100.989C64.0054 100.881 64.1406 100.76 64.2894 100.665C63.8026 100.273 63.3024 99.9087 62.7616 99.5845C61.4906 98.8281 59.8276 98.4363 58.7595 97.3962L58.7325 97.3826Z" fill="#A34B5F"/>
<path d="M159.27 78.2411C158.161 77.4306 156.904 76.8633 155.673 76.5796C154.47 76.2959 153.199 76.2419 152.009 76.512C150.874 76.7687 149.427 77.2145 148.697 78.4573C148.454 78.876 148.724 79.4704 149.116 79.4569C149.643 79.4569 150.144 79.2137 150.657 79.0787C151.171 78.9301 151.698 78.8355 152.226 78.768C153.321 78.6464 154.403 78.7274 155.498 79.0246C156.566 79.3083 157.566 79.8081 158.526 80.497C159.405 81.1184 160.406 82.3747 161.42 82.4152C161.69 82.4152 161.839 82.064 161.825 81.7533C161.771 80.1864 160.189 78.9166 159.27 78.2411Z" fill="#62344A"/>
<path d="M137.894 119.537C133.257 118.767 131.486 114.863 127.592 117.618C124.482 119.82 126.497 126.318 135.974 127.655C145.168 128.965 146.98 122.576 145.29 120.428C143.6 118.294 142.545 120.307 137.894 119.523V119.537Z" fill="#A34B5F"/>
<path d="M128.105 120.374C130.647 120.523 133.176 121.833 135.001 123.589C136.15 124.697 137.124 126.196 137.029 127.763C136.677 127.736 136.339 127.709 135.974 127.655C129.403 126.723 126.429 123.319 126.24 120.59C126.835 120.401 127.47 120.334 128.105 120.374Z" fill="#DD6B7D"/>
<path d="M110.935 82.9826C112.219 81.8074 113.76 80.8753 115.315 80.2674C116.843 79.673 118.52 79.3218 120.155 79.3623C121.71 79.4029 123.738 79.5785 124.982 80.8348C125.401 81.2535 125.172 81.9965 124.658 82.0775C123.955 82.1856 123.238 82.037 122.535 81.983C121.818 81.9289 121.102 81.9289 120.385 81.983C118.898 82.091 117.492 82.4288 116.113 83.0096C114.774 83.577 113.558 84.374 112.435 85.3871C111.408 86.3057 110.367 87.9537 109.042 88.2374C108.69 88.3049 108.406 87.9267 108.352 87.5755C108.068 85.7789 109.866 83.9687 110.935 82.9826Z" fill="#62344A"/>
<path d="M118.574 100.071C117.208 99.2738 115.653 99.1658 114.193 99.7601C112.692 100.368 111.543 101.638 110.556 102.867C109.556 104.123 108.812 105.393 108.704 107.014C108.663 107.69 109.691 107.96 109.894 107.271C110.245 106.136 111.07 105.069 111.827 104.164C112.584 103.259 113.395 102.286 114.45 101.719C115.396 101.206 116.451 101.097 117.411 101.597C117.816 101.813 118.182 102.124 118.465 102.475C118.803 102.908 118.939 103.421 119.169 103.907C119.547 104.677 120.804 104.488 120.859 103.597C120.94 102.151 119.75 100.733 118.56 100.044L118.574 100.071Z" fill="#2D2433"/>
<path d="M158.256 95.9372C157.553 94.8971 156.322 94.1676 155.052 94.3297C153.659 94.4918 152.496 95.6671 151.644 96.6937C151.225 97.207 150.86 97.7609 150.576 98.3553C150.292 98.9496 149.995 99.6521 150.022 100.314C150.035 100.733 150.522 100.962 150.806 100.598C151.144 100.165 151.361 99.6521 151.644 99.1928C151.915 98.7605 152.212 98.3282 152.523 97.923C152.861 97.5042 153.24 97.126 153.645 96.7748C154.038 96.4371 154.484 96.0453 154.997 95.9102C155.822 95.6806 156.606 96.275 157.039 96.9369C157.35 97.4232 157.485 97.977 157.62 98.5309C157.769 99.1252 157.877 99.7061 158.418 100.057C158.513 100.125 158.675 100.125 158.756 100.044C159 99.7872 159.135 99.544 159.175 99.1793C159.229 98.801 159.148 98.3553 159.081 97.977C158.932 97.2611 158.675 96.5451 158.256 95.9372Z" fill="#2D2433"/>
<path opacity="0.5" d="M141.274 114.39C142.518 114.133 143.748 113.782 144.992 113.525C145.56 113.417 146.142 113.323 146.723 113.215C147.129 113.147 147.778 113.107 148.034 112.715C148.535 111.945 147.521 110.216 147.264 109.486C146.858 108.352 146.48 107.19 146.128 106.028C145.439 103.705 144.857 101.354 144.397 98.9767C143.978 96.7613 143.397 94.2217 143.721 91.9658C143.776 91.5335 144.384 91.628 144.506 91.9658C144.938 93.2356 145.033 94.6539 145.263 95.9643C145.493 97.3151 145.722 98.666 146.006 100.003C146.574 102.678 147.291 105.326 148.156 107.919C148.548 109.108 149.143 110.297 149.4 111.526C149.576 112.418 149.454 113.39 148.656 113.931C147.791 114.511 146.48 114.511 145.479 114.633C144.114 114.795 142.734 114.822 141.369 114.957C141.031 114.998 140.95 114.43 141.288 114.349L141.274 114.39Z" fill="#A34B5F"/>
<path d="M65.2898 124.562C67.3284 124.562 68.9809 122.911 68.9809 120.874C68.9809 118.837 67.3284 117.186 65.2898 117.186C63.2513 117.186 61.5988 118.837 61.5988 120.874C61.5988 122.911 63.2513 124.562 65.2898 124.562Z" fill="#787FFF"/>
<path d="M104.58 59.3968C102.2 64.2463 99.1043 68.7311 96.7382 73.5807C90.7622 85.8599 89.7076 100.071 91.4382 113.62C93.1689 127.169 97.5224 140.218 101.971 153.132C103.715 158.198 105.405 164.101 102.579 168.653C99.6992 173.3 93.1824 174.368 87.8959 172.949C82.6095 171.531 78.0937 168.194 73.2534 165.668C68.4131 163.128 62.6399 161.359 57.5292 163.304C55.8662 160.211 56.1095 156.185 58.1241 153.308C60.1521 150.43 63.8567 148.85 67.345 149.363C69.9679 149.755 72.2934 151.214 74.8488 151.916C77.4041 152.619 80.6355 152.281 81.974 150.012C83.5559 147.337 81.6089 144.068 80.2299 141.285C77.1067 134.936 76.9985 127.574 77.0391 120.509C77.1067 107.703 77.4717 94.789 80.3651 82.3072C82.7987 71.8246 87.1253 61.5716 94.0342 53.2369C96.1839 50.6433 101.944 43.2001 105.919 45.5236C110.299 48.0902 106.067 56.3709 104.58 59.3968Z" fill="#62344A"/>
<path d="M163.002 189.538C186.595 183.513 194.247 157.117 209.079 125.129L227.602 133.005C227.602 133.005 223.072 208.625 166.192 223.822C145.114 229.455 64.0325 205.288 55.3118 192.807C46.5912 180.325 49.6738 160.062 68.6564 161.98C87.6255 163.912 139.408 195.562 163.002 189.538Z" fill="#FFC3A9"/>
<path d="M232.483 126.48C237.769 117.591 241.731 102.232 242.163 94.0596C242.718 85.4006 240.96 84.2794 239.594 90.1961C238.229 95.8157 236.904 102.178 236.025 101.921C235.565 101.8 237.309 97.3827 237.607 90.7905C237.945 83.1582 237.134 77.309 235.119 78.0385C233.307 78.795 232.104 93.992 230.428 98.6795C229.833 103.502 231.415 85.7924 229.292 79.4029C227.602 72.2569 224.384 71.8921 225.019 80.5376C225.303 89.2911 224.438 95.8697 223.356 97.8419C222.653 95.8562 223.086 93.3166 221.572 83.685C219.976 76.5931 216.772 77.3496 216.948 84.0903C217.272 92.2359 217.286 104.691 214.663 105.245C212.851 104.799 213.595 101.57 209.823 95.5725C205.861 89.7233 207.659 98.5174 208.078 105.42C208.781 112.661 209.39 120.941 207.822 126.075C205.55 133.491 209.877 138.435 216.84 139.597C223.803 140.758 227.899 134.49 232.483 126.466V126.48Z" fill="#FFC3A9"/>
<g style="mix-blend-mode:multiply" opacity="0.3">
<path d="M94.2369 170.45C98.293 171.828 102.268 173.381 106.257 174.935L118.168 179.636C122.129 181.216 126.118 182.729 130.106 184.215C132.107 184.958 134.109 185.674 136.137 186.35C138.151 187.066 140.193 187.687 142.221 188.349C138.002 187.619 133.852 186.485 129.768 185.201C125.672 183.932 121.656 182.446 117.668 180.892C113.693 179.312 109.745 177.664 105.851 175.894C101.944 174.138 98.0767 172.355 94.2369 170.45Z" fill="#A34B5F"/>
</g>
<path d="M227.71 140.704C226.169 143.122 218.151 144.122 210.444 139.381C204.604 135.787 203.752 130.857 204.631 128.06C205.415 125.561 207.051 125.804 207.551 126.669C207.565 126.71 207.578 126.791 207.565 126.831C206.929 128.79 208.876 132.221 213.216 135.004C217.651 137.854 224.032 139.245 227.088 138.381C227.967 138.165 228.629 139.232 227.71 140.691V140.704Z" fill="#787FFF"/>
<path d="M211.256 63.4764C210.837 62.882 210.161 62.5173 209.539 62.139C208.849 61.7067 208.146 61.288 207.443 60.8557C206.091 60.0317 204.725 59.2077 203.36 58.3972C202.035 57.6002 200.723 56.8032 199.398 56.0062C198.033 55.1821 196.654 54.1825 195.153 53.6287C194.234 53.291 193.544 54.4392 194.288 55.0876C195.464 56.1142 196.938 56.8167 198.276 57.6002C199.642 58.4107 201.021 59.2077 202.386 60.0047C203.711 60.7882 205.05 61.5717 206.375 62.3416C207.078 62.7469 207.795 63.1522 208.498 63.5709C209.16 63.9492 209.85 64.4219 210.62 64.503C211.188 64.557 211.567 63.9491 211.229 63.4628L211.256 63.4764Z" fill="#FFC442"/>
<path d="M216.704 45.2939C216.042 43.9566 215.366 42.6328 214.69 41.2954C214.014 39.9716 213.324 38.6342 212.648 37.3104C212.324 36.6755 211.986 36.0271 211.661 35.3922C211.31 34.7168 211.093 33.9873 210.228 33.9063C209.85 33.8658 209.566 34.0549 209.376 34.3791C208.957 35.1356 209.485 35.7975 209.836 36.4729C210.161 37.1078 210.499 37.7562 210.837 38.3911C211.526 39.7149 212.229 41.0388 212.919 42.3626C213.608 43.6864 214.325 44.9967 215.028 46.3206C215.704 47.5634 216.299 49.1033 217.34 50.0759C217.8 50.5082 218.584 50.0084 218.503 49.4275C218.3 48.0091 217.34 46.5772 216.718 45.3074L216.704 45.2939Z" fill="#FFC442"/>
<path d="M235.403 22.9914C235.2 22.2485 234.119 22.37 233.835 22.9779C233.524 23.6533 233.524 24.3693 233.47 25.0987C233.416 25.8552 233.348 26.6117 233.294 27.3547C233.186 28.7595 233.064 30.1509 232.969 31.5558C232.875 32.9607 232.753 34.3521 232.672 35.7569C232.591 37.2294 232.469 38.7018 232.74 40.1607C232.834 40.6335 233.564 40.8361 233.754 40.3093C234.714 37.6211 234.673 34.5142 234.93 31.6909C235.065 30.2455 235.173 28.7866 235.295 27.3412C235.403 25.9498 235.782 24.3558 235.403 22.9914Z" fill="#FFC442"/>
<path d="M260.619 33.7982C260.078 34.1224 259.848 34.7708 259.564 35.2977C259.28 35.838 258.983 36.3918 258.699 36.9322C258.117 38.0264 257.536 39.1206 256.955 40.2147C256.373 41.3089 255.805 42.4031 255.237 43.5108C254.683 44.605 254.088 45.7127 253.696 46.8744C253.466 47.5634 254.359 48.1983 254.845 47.5634C255.589 46.5908 256.184 45.4966 256.779 44.4294C257.401 43.3217 258.023 42.2005 258.631 41.0793L260.402 37.8102L261.281 36.1757C261.606 35.5813 261.957 35.068 261.93 34.3656C261.903 33.6766 261.092 33.5145 260.605 33.7982H260.619Z" fill="#FFC442"/>
</g>
</g>
<defs>
<clipPath id="clip0_944_272">
<rect width="480" height="470" fill="white"/>
</clipPath>
<clipPath id="clip1_944_272">
<rect width="480" height="581" fill="white"/>
</clipPath>
</defs>
</svg>
