<svg width="415" height="456" viewBox="0 0 415 456" fill="none" xmlns="http://www.w3.org/2000/svg">
<path d="M294.165 307.935L328.466 274.02L267.293 169.268C260.924 161.984 252.862 156.376 243.817 152.939L222.272 144.75L168.72 134.928L130.695 149.899C121.083 153.685 115.23 163.476 116.451 173.734L126.396 257.46L132.257 366.479L270.423 342.513L256.521 302.191L256.989 239.324L294.165 307.935Z" fill="#AE57F2"/>
<path d="M257.79 299.513C258.114 299.512 258.198 277.734 257.976 250.875C257.757 224.009 257.316 202.241 256.995 202.243C256.672 202.245 256.588 224.019 256.807 250.887C257.028 277.744 257.467 299.518 257.79 299.513Z" fill="#17282F"/>
<path d="M252.729 315.494L169.243 281.886C162.509 279.175 157.899 272.879 157.346 265.642L151.236 185.599C151.236 185.599 151.958 151.556 130.696 149.899L118.599 154.665C102.966 162.965 99.0915 185.728 101.22 203.303C104.245 228.273 105.504 263.613 108.888 285.282C111.656 303.01 122.303 317.035 139.163 323.172L241.992 345.434L252.729 315.494Z" fill="#AE57F2"/>
<path d="M152.432 197.809C152.472 197.805 152.562 198.436 152.697 199.642C152.828 200.945 153.008 202.703 153.231 204.917C153.658 209.606 154.26 216.21 154.998 224.327C155.705 232.559 156.544 242.31 157.472 253.126C157.701 255.837 157.934 258.614 158.173 261.45C158.42 264.288 158.592 267.196 159.239 270.015C159.85 272.847 161.209 275.497 163.387 277.516C165.553 279.542 168.264 281.024 171.09 282.311C194.112 292.27 215.327 300.497 230.73 306.265C238.374 309.079 244.595 311.371 249.013 312.999C251.099 313.768 252.756 314.381 253.986 314.834C255.118 315.263 255.708 315.506 255.696 315.543C255.683 315.58 255.069 315.408 253.914 315.045C252.666 314.642 250.986 314.097 248.87 313.41C244.503 311.963 238.204 309.795 230.458 307.005C214.967 301.419 193.716 293.319 170.628 283.326C167.757 282.019 164.936 280.492 162.623 278.321C160.288 276.169 158.792 273.219 158.173 270.264C157.505 267.3 157.349 264.374 157.11 261.546C156.884 258.708 156.663 255.929 156.448 253.214C155.607 242.389 154.849 232.629 154.211 224.389C153.621 216.263 153.141 209.647 152.799 204.948C152.662 202.731 152.552 200.966 152.472 199.658C152.409 198.447 152.395 197.811 152.432 197.809Z" fill="#17282F"/>
<path d="M104.602 241.323C104.641 241.321 104.694 241.689 104.766 242.396C104.841 243.231 104.933 244.251 105.043 245.487C105.291 248.339 105.626 252.178 106.034 256.845C106.49 261.636 107.072 267.335 107.904 273.638C108.762 279.929 109.775 286.869 111.675 293.914C112.574 297.47 113.835 300.757 115.748 303.581C117.662 306.426 119.787 308.981 121.985 311.243C126.399 315.758 131.112 319.068 135.344 321.266C143.886 325.706 150.095 325.771 150.006 326.065C150.005 326.105 149.632 326.096 148.921 326.041C148.21 325.99 147.161 325.91 145.833 325.643C143.171 325.171 139.344 324.129 134.986 321.971C130.634 319.826 125.788 316.524 121.25 311.964C118.992 309.68 116.808 307.089 114.842 304.192C112.844 301.286 111.488 297.772 110.597 294.211C108.67 287.057 107.691 280.094 106.882 273.77C106.104 267.437 105.605 261.718 105.246 256.91C104.894 252.103 104.708 248.206 104.61 245.511C104.582 244.271 104.561 243.246 104.543 242.406C104.541 241.697 104.563 241.323 104.602 241.323Z" fill="#17282F"/>
<path d="M140.301 297.332C140.188 297.302 140.542 295.516 141.821 292.884C143.085 290.257 145.425 286.863 148.829 283.941C152.249 281.034 155.968 279.255 158.759 278.418C161.558 277.568 163.378 277.496 163.392 277.612C163.427 277.8 161.674 278.147 159.02 279.164C156.366 280.168 152.852 281.988 149.556 284.791C146.273 287.609 143.925 290.794 142.517 293.256C141.099 295.718 140.482 297.396 140.301 297.332Z" fill="#17282F"/>
<path d="M226.274 304.588C222.032 302.984 217.429 301.222 212.535 299.312L185.874 288.58C181.062 286.579 176.118 284.485 171.09 282.311C168.264 281.024 165.554 279.542 163.387 277.516C161.209 275.497 159.85 272.847 159.239 270.015C158.593 267.196 158.42 264.288 158.173 261.45C157.97 259.041 157.772 256.673 157.576 254.354C157.547 253.745 157.51 253.132 157.464 252.521C156.695 242.216 155.923 231.912 155.153 221.606C166.946 236.932 165.634 259.344 177.156 274.875C183.265 283.108 192.408 288.551 201.743 292.794C210.216 296.644 218.195 300.193 226.274 304.588Z" fill="#8F41CC"/>
<path d="M212.535 299.312C204.357 296.126 195.365 292.529 185.874 288.58L212.535 299.312ZM187.69 290.517C186.787 290.206 185.89 289.902 184.997 289.607C180.27 288.05 174.24 285.682 169.232 282.668C169.694 282.895 170.16 283.112 170.628 283.326C176.453 285.847 182.161 288.247 187.69 290.517Z" fill="#8F41CC"/>
<path d="M228.738 305.954C215.416 301.558 201.132 295.165 187.69 290.518C182.161 288.248 176.453 285.847 170.628 283.326C170.16 283.112 169.694 282.895 169.232 282.668C166.803 281.206 164.614 279.594 162.929 277.849C163.239 277.746 163.401 277.671 163.391 277.612C163.387 277.585 163.291 277.569 163.109 277.569C162.998 277.569 162.855 277.575 162.682 277.589C157.13 271.596 158.011 263.099 157.576 254.354C157.772 256.673 157.97 259.041 158.174 261.45C158.42 264.288 158.593 267.196 159.239 270.015C159.85 272.847 161.209 275.497 163.387 277.516C165.554 279.542 168.264 281.024 171.091 282.311C176.118 284.485 181.062 286.579 185.874 288.58C195.366 292.529 204.358 296.126 212.535 299.312C217.429 301.222 222.032 302.984 226.274 304.588C227.095 305.033 227.916 305.489 228.738 305.954Z" fill="#0F191D"/>
<path d="M162.928 277.849C162.887 277.806 162.846 277.765 162.805 277.722C162.764 277.677 162.723 277.634 162.682 277.589C162.854 277.575 162.997 277.569 163.109 277.569C163.291 277.569 163.387 277.585 163.391 277.612C163.401 277.671 163.238 277.746 162.928 277.849Z" fill="#0F191D"/>
<path d="M264.228 252.687L259.355 243.689L264.228 252.685V252.687Z" fill="#A7A9A8"/>
<path d="M264.228 252.685L259.355 243.689L257.884 240.975C257.749 228.314 257.569 217.454 257.386 210.485L264.228 252.685Z" fill="#8F41CC"/>
<path d="M257.884 240.975L257.392 240.068L257.006 208.139L257.386 210.485C257.568 217.454 257.749 228.314 257.884 240.975Z" fill="#0F191D"/>
<path d="M152.684 187.82C152.511 187.851 152.249 184.992 150.692 180.71C149.168 176.454 146.073 170.786 140.908 166.146C135.743 161.506 129.778 159.03 125.382 157.969C120.96 156.878 118.091 156.921 118.102 156.747C118.102 156.694 118.813 156.637 120.104 156.672C121.393 156.703 123.261 156.882 125.525 157.36C130.03 158.278 136.198 160.719 141.502 165.486C146.804 170.253 149.887 176.123 151.283 180.504C152 182.704 152.374 184.543 152.544 185.822C152.717 187.099 152.736 187.814 152.684 187.82Z" fill="#17282F"/>
<path d="M252.153 165.112C252.396 165.073 253.712 172.045 255.095 180.683C256.477 189.324 257.4 196.358 257.159 196.395C256.918 196.436 255.602 189.463 254.217 180.824C252.836 172.186 251.912 165.149 252.153 165.112Z" fill="#17282F"/>
<path d="M345.203 416.123C345.203 416.123 409.373 433.883 411.947 434.789C415.813 436.15 415.165 450.313 409.15 450.094C406.302 449.99 359.86 451.821 353.992 451.455C348.124 451.088 330.42 444.112 330.42 444.112L345.203 416.123Z" fill="#AE57F2"/>
<path d="M371.936 440.608C372.259 440.651 372.692 437.259 374.764 433.718C376.783 430.147 379.5 428.067 379.3 427.812C379.189 427.566 376.002 429.373 373.832 433.183C371.628 436.969 371.666 440.635 371.936 440.608Z" fill="#17282F"/>
<path d="M365.245 437.574C365.561 437.629 366.209 434.595 367.919 431.244C369.593 427.874 371.644 425.545 371.413 425.325C371.235 425.115 368.73 427.213 366.959 430.76C365.165 434.293 364.971 437.556 365.245 437.574Z" fill="#17282F"/>
<path d="M358.969 435.894C359.292 435.874 359.045 432.667 360.471 429.115C361.834 425.536 364.188 423.347 363.965 423.114C363.838 422.869 360.959 424.853 359.47 428.724C357.94 432.576 358.71 435.986 358.969 435.894Z" fill="#17282F"/>
<path d="M360.109 427.605C360.224 427.634 360.792 425.842 360.798 422.832C360.792 421.331 360.62 419.536 360.148 417.598C359.913 416.631 359.596 415.627 359.192 414.619C358.984 414.11 358.747 413.524 358.164 413.048C357.566 412.51 356.477 412.622 355.96 413.154C355.373 413.667 355.187 414.39 355.106 414.97C355.042 415.559 355.008 416.109 355.022 416.664C355.038 417.771 355.181 418.83 355.418 419.807C355.892 421.766 356.658 423.409 357.394 424.712C358.889 427.316 360.185 428.647 360.275 428.574C360.424 428.474 359.349 426.978 358.066 424.361C357.435 423.051 356.777 421.445 356.383 419.59C356.188 418.666 356.076 417.679 356.074 416.658C356.103 415.671 356.09 414.439 356.667 413.965C356.971 413.713 357.247 413.696 357.514 413.895C357.798 414.112 358.035 414.55 358.219 415.015C358.616 415.974 358.939 416.924 359.19 417.847C359.695 419.692 359.94 421.408 360.038 422.857C360.226 425.763 359.934 427.58 360.109 427.605Z" fill="#17282F"/>
<path d="M360.028 426.952C360.058 426.835 358.51 426.302 355.89 426.283C354.585 426.281 353.02 426.42 351.336 426.843C350.505 427.066 349.612 427.281 348.715 427.808C347.836 428.255 346.915 429.473 347.266 430.74C347.538 431.933 348.562 432.77 349.577 433.032C350.597 433.316 351.588 433.214 352.454 433.024C354.217 432.621 355.586 431.751 356.624 430.974C358.681 429.362 359.685 428.126 359.609 428.036C359.493 427.9 358.279 428.956 356.187 430.352C355.138 431.023 353.821 431.749 352.254 432.057C351.473 432.204 350.633 432.251 349.873 432.022C349.117 431.816 348.49 431.238 348.31 430.498C348.126 429.781 348.562 429.124 349.264 428.705C349.951 428.28 350.801 428.036 351.592 427.798C353.179 427.344 354.664 427.137 355.917 427.043C358.428 426.868 360.003 427.125 360.028 426.952Z" fill="#17282F"/>
<path d="M381.796 441.295C382.113 441.26 381.8 438.517 383.061 435.508C384.262 432.474 386.404 430.733 386.203 430.484C386.097 430.222 383.414 431.743 382.066 435.102C380.681 438.444 381.537 441.409 381.796 441.295Z" fill="#17282F"/>
<path d="M337.019 444.257C336.992 444.325 337.873 444.737 339.501 445.426C341.15 446.047 343.563 446.919 346.642 447.639C352.78 449.185 361.529 450.062 371.14 449.961C380.757 449.854 389.422 449.416 395.707 449.165C398.682 449.008 401.176 448.875 403.144 448.772C404.899 448.654 405.868 448.554 405.866 448.48C405.864 448.405 404.891 448.364 403.13 448.354C401.16 448.368 398.663 448.385 395.686 448.405C389.185 448.535 380.614 448.701 371.136 448.885C361.569 448.987 352.923 448.237 346.81 446.899C340.676 445.636 337.094 444.059 337.019 444.257Z" fill="#17282F"/>
<path d="M335.124 445.72C335.21 445.867 336.965 444.842 339.931 443.542C342.861 442.285 347.252 440.778 352.074 441.525C356.91 442.265 360.337 445.512 362.568 447.766C364.819 450.101 366.139 451.652 366.268 451.545C366.364 451.465 365.269 449.76 363.126 447.252C362.045 446.012 360.67 444.574 358.872 443.274C357.094 441.967 354.804 440.855 352.242 440.463C347.07 439.67 342.512 441.399 339.611 442.852C336.666 444.361 335.058 445.614 335.124 445.72Z" fill="#17282F"/>
<path d="M269.258 401.226C269.258 401.226 208.535 440.984 206.357 442.63C203.088 445.101 206.839 456.866 212.503 454.83C215.182 453.864 266.136 439.692 271.614 437.559C277.094 435.426 291.843 423.404 291.843 423.404L269.258 401.226Z" fill="#AE57F2"/>
<path d="M251.225 432.674C251.489 432.618 250.412 429.115 247.161 426.175C243.939 423.203 240.353 422.448 240.321 422.718C240.208 423.024 243.428 424.179 246.438 426.968C249.486 429.711 250.931 432.813 251.225 432.674Z" fill="#17282F"/>
<path d="M256.677 427.752C256.934 427.654 255.759 424.601 252.975 421.78C250.212 418.936 247.186 417.7 247.08 417.953C246.927 418.233 249.587 419.83 252.208 422.53C254.854 425.207 256.393 427.9 256.677 427.752Z" fill="#17282F"/>
<path d="M262.147 424.244C262.423 424.252 262.119 420.771 259.493 417.563C256.898 414.329 253.554 413.312 253.505 413.585C253.362 413.875 256.271 415.246 258.659 418.24C261.093 421.194 261.833 424.322 262.147 424.244Z" fill="#17282F"/>
<path d="M258.542 416.693C258.702 416.615 257.872 414.974 257.169 412.15C256.824 410.737 256.534 409.027 256.456 407.116C256.415 406.162 256.434 405.157 256.522 404.123C256.554 403.626 256.648 403.134 256.852 402.842C257.045 402.571 257.314 402.503 257.682 402.652C258.375 402.928 258.736 404.107 259.063 405.038C259.372 406.009 259.566 406.985 259.658 407.925C259.846 409.811 259.707 411.542 259.503 412.98C259.078 415.865 258.509 417.616 258.679 417.667C258.787 417.708 259.617 416.047 260.252 413.113C260.557 411.648 260.786 409.85 260.643 407.837C260.573 406.836 260.387 405.782 260.068 404.726C259.911 404.19 259.715 403.676 259.472 403.136C259.219 402.607 258.824 401.975 258.107 401.665C257.453 401.312 256.381 401.538 255.974 402.231C255.563 402.861 255.516 403.494 255.473 404.043C255.396 405.126 255.398 406.176 255.467 407.17C255.604 409.159 255.986 410.923 256.436 412.353C257.357 415.22 258.442 416.754 258.542 416.693Z" fill="#17282F"/>
<path d="M258.421 416.047C258.5 416.201 259.922 415.481 262.368 414.884C263.59 414.594 265.067 414.341 266.718 414.29C267.543 414.274 268.426 414.251 269.211 414.447C270.007 414.633 270.622 415.124 270.663 415.865C270.718 416.624 270.295 417.365 269.638 417.792C268.984 418.24 268.169 418.45 267.38 418.546C265.794 418.732 264.319 418.438 263.112 418.117C260.697 417.424 259.219 416.787 259.154 416.952C259.107 417.06 260.439 417.933 262.887 418.845C264.113 419.268 265.682 419.68 267.482 419.531C268.367 419.449 269.341 419.247 270.226 418.663C271.113 418.107 271.834 417.001 271.734 415.778C271.681 414.466 270.436 413.585 269.462 413.426C268.446 413.197 267.531 413.263 266.669 413.301C264.938 413.41 263.404 413.755 262.162 414.153C259.673 414.966 258.359 415.944 258.421 416.047Z" fill="#17282F"/>
<path d="M220.239 452.61C220.308 452.707 221.259 451.995 221.724 450.258C222.233 448.56 221.914 445.951 220.588 443.667C219.953 442.514 219.224 441.516 218.553 440.635C217.891 439.754 217.201 438.957 216.492 438.426C215.789 437.878 215.055 437.631 214.551 437.613C214.044 437.592 213.783 437.715 213.791 437.777C213.793 437.944 214.876 437.862 216.001 439.004C216.571 439.546 217.137 440.308 217.752 441.217C218.374 442.12 219.052 443.105 219.646 444.184C220.876 446.325 221.242 448.541 220.979 450.104C220.76 451.676 220.096 452.507 220.239 452.61Z" fill="#17282F"/>
<path d="M242.039 436.322C242.319 436.352 242.235 433.269 239.9 430.505C237.597 427.714 234.579 427.08 234.555 427.36C234.44 427.659 237.01 428.666 239.076 431.193C241.191 433.677 241.726 436.385 242.039 436.322Z" fill="#17282F"/>
<path d="M285.598 425.546C285.545 425.483 284.617 426.169 282.929 427.379C281.221 428.559 278.712 430.215 275.443 431.967C272.176 433.72 268.145 435.539 263.552 437.259C258.951 438.975 253.796 440.591 248.342 442.173C237.418 445.317 227.527 448.194 220.392 450.34C216.971 451.39 214.131 452.262 211.955 452.93C209.969 453.564 208.881 453.948 208.901 454.021C208.923 454.093 210.049 453.844 212.07 453.331C214.27 452.749 217.141 451.987 220.602 451.071C227.792 449.111 237.708 446.351 248.643 443.203C254.108 441.619 259.286 439.966 263.903 438.185C268.515 436.399 272.558 434.489 275.809 432.632C279.066 430.775 281.536 429.007 283.179 427.714C284.801 426.391 285.641 425.597 285.598 425.546Z" fill="#17282F"/>
<path d="M287.85 426.363C287.881 426.244 285.968 425.536 282.704 424.996C279.5 424.49 274.631 424.23 269.944 426.555C267.621 427.707 265.778 429.46 264.482 431.246C263.163 433.032 262.29 434.818 261.636 436.328C260.355 439.368 259.83 441.325 259.947 441.37C260.104 441.436 260.889 439.56 262.323 436.65C263.765 433.824 266.045 429.689 270.428 427.512C274.794 425.339 279.436 425.443 282.61 425.748C285.828 426.087 287.813 426.531 287.85 426.363Z" fill="#17282F"/>
<path d="M395.489 301.799C395.489 301.799 413.706 308.304 413.781 328.73C413.927 367.855 334.727 410.984 334.727 410.984L229.33 341.15L222.724 338.474C222.724 338.474 365.001 285.029 395.489 301.799Z" fill="#171F2F"/>
<path d="M282.719 376.42C282.764 376.481 283.738 375.815 285.463 374.558C287.191 373.308 289.657 371.448 292.673 369.117C298.707 364.451 306.918 357.841 315.749 350.261C324.581 342.674 332.358 335.556 337.881 330.297C340.643 327.669 342.852 325.513 344.353 323.996C345.853 322.478 346.658 321.617 346.607 321.564C346.558 321.509 345.653 322.271 344.065 323.691C342.343 325.246 340.087 327.283 337.366 329.739C331.716 334.853 323.87 341.871 315.05 349.447C306.23 357.015 298.108 363.709 292.201 368.522C289.359 370.84 287.005 372.762 285.207 374.229C283.561 375.586 282.672 376.361 282.719 376.42Z" fill="#333F5F"/>
<path d="M365.735 316.424C365.774 316.161 361.074 315.699 355.578 317.345C350.068 318.949 346.372 321.889 346.549 322.086C346.721 322.366 350.564 319.918 355.881 318.377C361.181 316.783 365.737 316.753 365.735 316.424Z" fill="#333F5F"/>
<path d="M356.656 310.257C356.562 310.002 353.181 311.488 350.408 314.957C347.601 318.4 346.861 322.016 347.129 322.055C347.436 322.161 348.588 318.878 351.242 315.631C353.857 312.352 356.826 310.535 356.656 310.257Z" fill="#333F5F"/>
<path d="M401.284 434.143C401.338 434.021 400.024 433.767 398.565 434.967C397.131 436.113 395.913 438.409 395.521 441.084C395.122 443.781 395.723 446.257 396.481 447.829C397.227 449.431 398.048 450.183 398.138 450.105C398.285 450.007 397.707 449.118 397.184 447.548C396.65 445.996 396.221 443.707 396.583 441.235C396.943 438.777 397.952 436.651 399.076 435.53C400.193 434.358 401.305 434.313 401.284 434.143Z" fill="#17282F"/>
<path d="M387.952 246.226L357.97 326.999C356.256 331.612 351.825 334.651 346.903 334.586L181.851 332.414V319.871L243.097 322.109L269.102 241.482C269.979 238.757 272.519 236.914 275.383 236.922L381.851 237.23C386.483 237.243 389.652 241.915 387.952 246.226Z" fill="#C1D3FC"/>
<path d="M314.764 276.768C316.903 275.317 320.861 275.898 322.786 277.624C324.712 279.352 325.336 282.339 324.357 284.732C323.38 287.127 320.912 288.804 318.331 288.943C315.586 289.09 312.727 287.372 311.959 284.736C311.191 282.098 312.041 278.159 314.764 276.768Z" fill="#3749AD"/>
<path d="M352.499 415.381C352.499 415.381 203.75 320.102 197.185 316.366C191.599 313.184 176.654 303.985 161.918 308.049C147.183 312.115 133.97 325.327 127.366 344.636C123.592 355.667 121.807 374.489 120.973 388.603C119.972 405.48 125.198 422.307 136.237 435.112C141.26 440.939 147.456 446.008 154.804 448.294C156.355 448.777 157.963 449.195 159.617 449.551C187.772 455.654 216.706 443.017 232.524 418.938L235.998 413.651C235.998 413.651 333.412 449.44 334.936 448.932L352.499 415.381Z" fill="#171F2F"/>
<path d="M204.863 321.644C204.853 321.654 204.727 321.579 204.49 321.425C204.212 321.236 203.871 321 203.45 320.714C202.54 320.085 201.198 319.152 199.429 318.018C195.9 315.768 190.674 312.558 183.633 309.992C180.115 308.741 176.106 307.726 171.735 307.483C167.371 307.299 162.649 307.949 158.05 309.718C153.443 311.445 148.97 314.194 144.902 317.693C142.865 319.441 140.898 321.36 139.063 323.428C137.249 325.506 135.647 327.831 134.233 330.299C131.405 335.246 129.315 340.458 127.815 345.625C126.414 350.811 125.292 355.939 124.223 360.781C122.101 370.485 120.956 379.378 120.799 386.877C120.679 394.381 121.435 400.437 122.152 404.568C122.477 406.644 122.848 408.234 123.071 409.317C123.169 409.817 123.249 410.224 123.314 410.553C123.363 410.835 123.382 410.98 123.367 410.984C123.353 410.988 123.304 410.849 123.226 410.576C123.137 410.251 123.03 409.852 122.897 409.36C122.617 408.287 122.191 406.704 121.812 404.633C120.989 400.503 120.133 394.425 120.172 386.87C120.249 379.319 121.339 370.357 123.423 360.613C124.477 355.735 125.57 350.651 126.98 345.385C128.486 340.155 130.592 334.882 133.465 329.856C134.903 327.349 136.534 324.98 138.399 322.847C140.275 320.737 142.263 318.804 144.338 317.031C148.478 313.486 153.046 310.697 157.764 308.952C162.472 307.166 167.31 306.528 171.772 306.749C176.241 307.031 180.303 308.098 183.847 309.404C190.939 312.074 196.135 315.384 199.621 317.732C201.364 318.913 202.677 319.893 203.554 320.571C203.956 320.886 204.281 321.144 204.545 321.352C204.765 321.532 204.872 321.63 204.863 321.644Z" fill="#333F5F"/>
<path d="M168.268 388.495C168.268 388.495 168.538 388.635 169.084 388.857C169.674 389.091 170.483 389.412 171.523 389.823C173.721 390.671 176.89 391.892 180.963 393.46C189.246 396.579 201.194 401.079 216.048 406.677C230.953 412.235 248.802 418.845 268.831 426.136C288.863 433.416 311.06 441.409 334.765 449.437L335.198 449.583L335.41 449.179C339.131 442.071 343.056 434.572 347.044 426.961C349.075 423.08 351.09 419.228 352.973 415.63L353.202 415.193L352.788 414.931C308.073 386.544 268.069 361.149 239.199 342.824C224.783 333.731 213.149 326.394 205.078 321.303C201.08 318.806 197.968 316.864 195.812 315.519C194.778 314.885 193.975 314.395 193.391 314.041C192.844 313.712 192.551 313.566 192.551 313.566C192.551 313.566 192.807 313.771 193.336 314.129C193.904 314.505 194.689 315.026 195.7 315.694C197.831 317.078 200.91 319.076 204.862 321.644C212.893 326.801 224.464 334.234 238.803 343.445C267.626 361.842 307.566 387.338 352.207 415.832L352.025 415.134C350.14 418.73 348.123 422.583 346.092 426.463C342.11 434.074 338.185 441.575 334.466 448.685L335.106 448.427C311.413 440.42 289.204 432.468 269.154 425.245C249.139 417.959 231.257 411.452 216.295 406.007C201.394 400.541 189.407 396.144 181.099 393.096C176.997 391.602 173.805 390.442 171.591 389.635C170.538 389.263 169.717 388.973 169.122 388.762C168.564 388.57 168.268 388.495 168.268 388.495Z" fill="#333F5F"/>
<path d="M175.97 72.4145C173.372 67.3103 170.756 62.1533 169.359 56.5987C167.963 51.046 167.873 44.9841 170.241 39.7723C171.625 36.7227 173.803 34.0512 174.89 30.8841C176.387 26.5262 175.774 21.3848 178.473 17.6517C182.688 11.8131 191.711 13.1744 198.231 10.117C203.308 7.73725 206.857 2.60175 212.196 0.889923C216.861 -0.606453 221.948 0.829208 226.453 2.75648C230.958 4.68571 235.349 7.13988 240.208 7.77839C243.671 8.23083 247.183 7.73136 250.675 7.80579C254.167 7.87826 257.877 8.65191 260.335 11.1335C262.791 13.617 263.31 18.1962 260.646 20.4584C266.755 19.4223 272.511 25.5195 272.431 31.7165C272.353 37.9116 267.683 43.3663 262.049 45.9439C256.414 48.5194 249.98 48.6879 243.802 48.208C226.312 46.8468 208.739 40.1973 196.833 27.3136" fill="#17282F"/>
<path d="M179.737 50.5291L167.823 137.129C165.796 151.854 176.505 165.28 191.314 166.577C205.132 167.787 217.472 157.922 219.348 144.176C220.239 137.656 220.995 132.223 221.13 131.557C221.13 131.557 243.46 132.517 248.055 110.917C250.274 100.48 253.097 78.6058 255.422 58.7885C257.917 37.5063 243.623 17.881 222.611 13.6837L220.521 13.2645C197.729 10.0798 182.291 27.6584 179.737 50.5291Z" fill="#F8A58D"/>
<path d="M221.229 131.253C221.229 131.253 207.323 129.63 194.601 117.588C194.601 117.588 198.16 134.506 220.157 136.874L221.229 131.253Z" fill="#F68260"/>
<path d="M245.712 77.1994C245.444 78.8427 243.83 79.9708 242.106 79.7221C240.386 79.4734 239.207 77.9437 239.476 76.2965C239.744 74.6532 241.358 73.5231 243.078 73.7699C244.801 74.0186 245.98 75.5542 245.712 77.1994Z" fill="#17282F"/>
<path d="M248.646 68.4875C248.182 68.8146 246.186 66.6112 242.856 65.955C239.541 65.2519 236.757 66.4761 236.477 65.9962C236.336 65.7807 236.873 65.1305 238.089 64.5703C239.29 64.0082 241.225 63.6145 243.297 64.0376C245.367 64.4626 246.958 65.5731 247.806 66.5544C248.672 67.5455 248.873 68.3426 248.646 68.4875Z" fill="#17282F"/>
<path d="M214.676 71.8427C214.407 73.484 212.794 74.6141 211.072 74.3654C209.352 74.1167 208.171 72.585 208.44 70.9398C208.71 69.2965 210.324 68.1664 212.043 68.4151C213.765 68.6619 214.944 70.1975 214.676 71.8427Z" fill="#17282F"/>
<path d="M215.813 62.5726C215.349 62.8977 213.349 60.6963 210.024 60.0401C206.706 59.339 203.923 60.5611 203.642 60.0832C203.501 59.8658 204.034 59.2155 205.256 58.6554C206.457 58.0933 208.392 57.6996 210.462 58.1226C212.533 58.5477 214.123 59.6602 214.971 60.6414C215.833 61.6305 216.036 62.4296 215.813 62.5726Z" fill="#17282F"/>
<path d="M222.961 89.6621C222.982 89.4721 225.123 89.527 228.559 89.7679C229.426 89.8502 230.264 89.8423 230.523 89.29C230.846 88.7161 230.674 87.729 230.46 86.6576C230.071 84.4424 229.665 82.1215 229.24 79.685C227.589 69.7763 226.578 61.6971 226.978 61.6344C227.377 61.5698 229.038 69.5531 230.686 79.4617C231.073 81.9002 231.444 84.227 231.794 86.452C231.921 87.4822 232.256 88.6867 231.569 89.8756C231.212 90.4632 230.498 90.8001 229.922 90.8373C229.344 90.8941 228.864 90.8079 228.439 90.7511C225.031 90.2575 222.935 89.8541 222.961 89.6621Z" fill="#17282F"/>
<path d="M212.707 90.0088C213.253 90.0852 212.538 93.6988 215.118 96.8796C217.689 100.068 221.62 100.432 221.548 100.942C221.554 101.179 220.551 101.473 218.918 101.192C217.311 100.928 215.086 99.9507 213.508 98.0058C211.937 96.055 211.543 93.7967 211.718 92.2906C211.88 90.7531 212.464 89.9383 212.707 90.0088Z" fill="#17282F"/>
<path d="M219.277 49.7026C218.768 50.5429 215.533 49.4499 211.535 49.1405C207.541 48.7487 204.165 49.2639 203.81 48.3492C203.656 47.9144 204.374 47.174 205.822 46.5512C207.259 45.9284 209.439 45.4994 211.835 45.707C214.228 45.9185 216.3 46.7196 217.607 47.5834C218.925 48.4452 219.505 49.3031 219.277 49.7026Z" fill="#17282F"/>
<path d="M249.347 58.6123C248.611 59.2509 246.476 58.0071 243.728 57.4196C240.998 56.738 238.536 56.9103 238.156 56.0133C237.997 55.5824 238.514 54.8988 239.678 54.3857C240.825 53.8764 242.623 53.6296 244.506 54.0625C246.388 54.5032 247.892 55.5158 248.697 56.4814C249.516 57.4528 249.68 58.295 249.347 58.6123Z" fill="#17282F"/>
<path d="M178.304 66.9168C177.965 66.6837 164.304 59.5426 161.818 74.4418C159.335 89.339 174.804 88.7612 174.9 88.3381C174.998 87.915 178.304 66.9168 178.304 66.9168Z" fill="#F8A58D"/>
<path d="M171.292 81.9354C171.233 81.8766 171.002 82.0725 170.528 82.2017C170.07 82.3251 169.31 82.3388 168.583 81.9177C167.104 81.0755 166.198 78.357 166.572 75.66C166.76 74.2968 167.261 73.055 167.917 72.0659C168.556 71.0513 169.386 70.407 170.203 70.3991C171.022 70.3482 171.503 70.9162 171.615 71.3647C171.746 71.8152 171.601 72.0953 171.676 72.1364C171.711 72.1795 172.038 71.9386 172.02 71.304C172.009 70.9985 171.893 70.6185 171.59 70.2738C171.282 69.9212 170.779 69.6862 170.219 69.6529C169.057 69.5432 167.845 70.4265 167.122 71.5116C166.333 72.5908 165.741 73.9834 165.53 75.515C165.124 78.5332 166.192 81.5985 168.242 82.5797C169.245 83.0263 170.172 82.8578 170.683 82.5817C171.204 82.2898 171.339 81.9686 171.292 81.9354Z" fill="#F68260"/>
<path d="M259.712 38.6757C257.154 44.1814 244.01 46.3064 234.373 43.3999C225.489 40.7185 222.267 35.0797 216.615 30.1636C213.038 27.0514 213.038 27.0513 207.203 26.45C202.487 25.9623 198.701 30.6591 195.134 33.7851C197.12 45.6249 191.856 57.3471 186.724 68.1998C186.156 69.4004 185.508 70.6853 184.317 71.2729C182.296 72.2678 179.885 70.6931 178.678 68.7913C176.745 65.7437 176.52 61.942 176.59 58.3343C176.753 50.1199 178.196 41.8604 181.532 34.3511C184.867 26.8418 190.169 20.1041 197.107 15.6992C205.776 10.1975 216.699 8.62667 226.737 10.7929C236.775 12.9611 245.89 18.7135 252.714 26.3874C255.879 29.9462 258.635 34.0358 259.712 38.6757Z" fill="#17282F"/>
<path d="M229.402 74.6904C229.53 74.6982 229.485 73.4055 230.08 71.2276C230.669 69.0907 232.133 65.9687 235.354 63.5694C238.467 61.1662 243.588 59.8245 248.54 61.6715C250.976 62.5568 253.301 64.2216 254.952 66.5191C256.648 68.7852 257.602 71.6898 257.632 74.6884C257.604 77.6871 256.65 80.5917 254.952 82.8617C253.303 85.1572 250.978 86.824 248.54 87.7073C243.587 89.5563 238.467 88.2146 235.352 85.8094C232.131 83.4121 230.669 80.2901 230.08 78.1513C229.485 75.9752 229.53 74.6845 229.402 74.6904C229.361 74.6904 229.336 75.0077 229.326 75.6168C229.306 76.224 229.377 77.1308 229.626 78.2668C230.092 80.5055 231.488 83.8508 234.835 86.4871C238.069 89.1254 243.541 90.6883 248.918 88.7513C251.564 87.8248 254.096 86.0425 255.902 83.559C257.757 81.1107 258.809 77.9456 258.834 74.6884C258.809 71.4332 257.757 68.2681 255.902 65.8198C254.096 63.3383 251.564 61.5579 248.918 60.6295C243.543 58.6925 238.069 60.2554 234.837 62.8917C231.49 65.528 230.094 68.8733 229.626 71.112C229.377 72.25 229.306 73.1548 229.326 73.764C229.336 74.375 229.361 74.6904 229.402 74.6904Z" fill="#17282F"/>
<path d="M194.064 68.5189C194.193 68.5267 194.148 67.236 194.741 65.058C195.331 62.9192 196.794 59.7972 200.016 57.3999C203.13 54.9947 208.25 53.653 213.201 55.5019C215.64 56.3853 217.964 58.0521 219.614 60.3475C221.312 62.6156 222.266 65.5203 222.293 68.5169C222.266 71.5175 221.312 74.4221 219.616 76.6902C217.964 78.9877 215.64 80.6544 213.201 81.5378C208.25 83.3847 203.13 82.045 200.016 79.6399C196.794 77.2406 195.331 74.1186 194.741 71.9817C194.148 69.8037 194.193 68.5111 194.064 68.5189C194.022 68.5189 193.997 68.8362 193.989 69.4453C193.97 70.0525 194.038 70.9593 194.287 72.0953C194.755 74.3359 196.151 77.6813 199.499 80.3176C202.73 82.9539 208.205 84.5168 213.579 82.5797C216.227 81.6533 218.76 79.871 220.566 77.3894C222.42 74.9392 223.472 71.7721 223.498 68.5169C223.47 65.2617 222.418 62.0986 220.564 59.6483C218.76 57.1668 216.227 55.3844 213.579 54.46C208.205 52.521 202.732 54.0839 199.499 56.7222C196.151 59.3584 194.755 62.7038 194.287 64.9425C194.038 66.0785 193.97 66.9853 193.989 67.5944C193.997 68.2035 194.022 68.5189 194.064 68.5189Z" fill="#17282F"/>
<path d="M223.177 69.0203C223.326 69.32 225.22 68.4347 227.423 69.1104C229.633 69.7626 230.723 71.5469 231.015 71.3785C231.154 71.3119 231.086 70.7458 230.588 69.9957C230.103 69.2534 229.123 68.3642 227.77 67.9568C226.416 67.5494 225.11 67.7531 224.295 68.1037C223.467 68.4543 223.095 68.8891 223.177 69.0203Z" fill="#17282F"/>
<path d="M174.042 64.7036C174.046 65.0366 178.797 65.2383 184.652 65.1541C190.51 65.0718 195.252 64.7369 195.248 64.4059C195.242 64.0729 190.492 63.8692 184.636 63.9515C178.78 64.0338 174.036 64.3706 174.042 64.7036Z" fill="#17282F"/>
<path d="M53.7421 336.465C58.6241 333.948 64.3297 333.618 69.7999 334.513C72.7173 334.995 75.7524 335.865 77.7288 338.042C79.7051 340.218 80.0816 344.077 77.8111 345.959C76.3416 346.948 74.5748 347.397 72.8114 347.229C68.5647 347.229 63.8591 346.429 60.4711 348.982C58.53 350.441 57.2478 352.864 54.9303 353.582C53.7725 353.852 52.5583 353.737 51.4716 353.255C50.3848 352.773 49.4846 351.951 48.9071 350.911C47.801 348.787 47.5566 346.318 48.2248 344.018C48.4987 342.418 49.1393 340.904 50.0966 339.594C51.0538 338.283 52.3016 337.213 53.7421 336.465Z" fill="#C1E0FC"/>
<path d="M42.5551 314.855C45.5431 319.114 51.3428 317.702 54.0367 315.102C56.7306 312.502 57.8717 308.726 58.907 305.126C61.2598 296.891 63.6126 288.28 61.895 279.916C61.4715 277.377 60.3562 275.004 58.6717 273.058C57.8271 272.089 56.7412 271.361 55.5242 270.948C54.3072 270.535 53.0026 270.451 51.7427 270.705C48.8135 271.47 47.0372 274.34 45.6725 277.069C41.8164 285.124 39.8068 293.938 39.7906 302.868C39.7906 307.02 40.2611 311.373 42.6022 314.808" fill="#C1E0FC"/>
<path d="M34.3562 320.984C37.603 317.137 38.2147 311.573 36.7678 306.703C35.1356 301.91 32.208 297.663 28.3095 294.433C23.8953 290.481 18.7525 287.428 13.1693 285.445C11.01 284.567 8.68665 284.166 6.35799 284.269C5.195 284.349 4.06934 284.713 3.07903 285.328C2.08872 285.943 1.26378 286.791 0.676006 287.798C-0.92389 290.833 0.605421 294.527 2.26414 297.538C5.17409 302.842 8.50206 307.904 12.2164 312.679C15.1927 316.525 18.6042 320.325 23.1569 322.09C27.7095 323.854 32.4386 323.596 34.7914 320.443" fill="#C1E0FC"/>
<path d="M42.3553 379.204C42.5108 378.567 42.6014 377.917 42.6259 377.263C42.7671 375.851 42.9317 374.075 43.1435 371.969C43.4002 369.366 43.7929 366.778 44.3199 364.216C45.0072 361.093 45.9515 358.032 47.1432 355.064C48.3137 352.092 49.8978 349.3 51.8488 346.771C53.421 344.719 55.4303 343.043 57.7308 341.865C59.3013 341.088 60.9846 340.564 62.7187 340.312C63.3701 340.288 64.0169 340.193 64.648 340.03C63.9951 339.958 63.3363 339.958 62.6834 340.03C60.8847 340.167 59.1243 340.621 57.4837 341.371C55.0541 342.529 52.9214 344.227 51.2489 346.335C49.2237 348.895 47.5903 351.742 46.4021 354.782C45.2053 357.797 44.2725 360.91 43.6141 364.087C43.1111 366.683 42.7654 369.307 42.5788 371.945C42.4141 374.192 42.3436 376.004 42.32 377.263C42.2584 377.909 42.2702 378.56 42.3553 379.204Z" fill="#C1E0FC"/>
<path d="M42.7195 375.133C42.7547 374.832 42.7547 374.528 42.7195 374.228V371.663C42.7195 369.428 42.7195 366.193 42.8372 362.252C43.0254 354.276 43.7195 345.7 45.037 333.595C46.2958 322.219 47.9898 308.973 49.7426 300.362C50.1191 298.409 50.5073 296.644 50.919 295.103C51.3307 293.562 51.5543 292.221 51.8366 291.139C52.1189 290.057 52.2836 289.304 52.4366 288.645C52.5221 288.353 52.5773 288.054 52.6013 287.751C52.4558 288.017 52.3489 288.302 52.2836 288.598C52.0836 289.245 51.8366 290.057 51.5425 291.057C51.2484 292.056 50.872 293.409 50.4837 294.997C50.0955 296.586 49.6485 298.291 49.2368 300.244C47.0314 310.426 45.3742 320.718 44.2724 331.077C42.9431 343.206 42.3431 354.252 42.296 362.252C42.2372 366.24 42.296 369.475 42.4254 371.663C42.496 372.71 42.5431 373.557 42.5901 374.239C42.6032 374.541 42.6466 374.84 42.7195 375.133Z" fill="#C1E0FC"/>
<path d="M42.7787 353.829C42.8379 352.936 42.8379 352.04 42.7787 351.147C42.6846 349.417 42.4375 346.924 41.9552 343.865C41.3696 340.294 40.5842 336.76 39.6024 333.277C38.4324 328.99 36.938 324.798 35.1321 320.737C32.0558 313.244 27.6432 306.372 22.1095 300.456C21.1519 299.443 20.1302 298.492 19.0508 297.609C18.5803 297.209 18.1568 296.821 17.7333 296.503L16.5569 295.68C15.8449 295.136 15.0895 294.652 14.2982 294.233C16.9023 296.282 19.3774 298.49 21.7095 300.844C27.0628 306.807 31.3559 313.643 34.4028 321.055C36.1662 325.092 37.6596 329.242 38.8731 333.477C40.0495 337.371 40.8024 340.959 41.3906 343.983C41.9788 347.006 42.2611 349.476 42.4611 351.182C42.4903 352.072 42.5966 352.958 42.7787 353.829Z" fill="#C1E0FC"/>
<path d="M22.1918 391.403L24.321 420.636H61.8833L64.0126 391.403H22.1918Z" fill="#C1E0FC"/>
<path d="M68.4948 379.874H18.5569V391.403H68.4948V379.874Z" fill="#C1E0FC"/>
<path d="M63.3188 400.955C63.3188 400.955 63.3188 401.049 63.1424 401.226L62.5777 401.967C62.0483 402.649 61.319 403.59 60.3896 404.767L60.2955 404.896L60.2014 404.767L54.79 397.332H55.0958C53.5077 399.591 51.7196 402.108 49.8138 404.826L49.6374 405.061L49.4609 404.837L43.179 397.367H43.5437L43.2025 397.803C41.2497 400.238 39.3674 402.602 37.5911 404.861L37.4029 405.096L37.2264 404.849L31.9326 397.355H32.2385L25.7213 404.79L25.6036 404.92L25.5095 404.767L23.4744 401.343L22.945 400.426C22.8274 400.214 22.7803 400.108 22.7921 400.096C22.8736 400.186 22.9447 400.285 23.0038 400.391L23.592 401.273L25.733 404.637H25.5213L31.9444 397.108L32.1091 396.92L32.2503 397.132C33.8737 399.391 35.6736 401.896 37.5911 404.59H37.2382L42.8261 397.532L43.179 397.097L43.3554 396.873L43.5437 397.097L49.8021 404.579H49.4491L54.79 397.108L54.9429 396.885L55.0958 397.108L60.3661 404.626H60.2014C61.166 403.449 61.9307 402.567 62.4836 401.896L63.0953 401.191C63.2365 401.026 63.3071 400.943 63.3188 400.955Z" fill="#C1E0FC"/>
<path d="M64.5417 391.203C64.5417 391.332 55.1305 391.438 43.5195 391.438C31.9085 391.438 22.4974 391.332 22.4974 391.203C22.4974 391.074 31.9085 390.968 43.5195 390.968C55.1305 390.968 64.5417 391.074 64.5417 391.203Z" fill="#C1E0FC"/>
</svg>
