<svg width="214" height="62" viewBox="0 0 214 62" fill="none" xmlns="http://www.w3.org/2000/svg">
<g clip-path="url(#clip0_931_893)">
<mask id="mask0_931_893" style="mask-type:alpha" maskUnits="userSpaceOnUse" x="0" y="0" width="62" height="62">
<path d="M61.3594 31.2196C61.3606 37.2527 59.5767 43.1507 56.2334 48.1677C52.8901 53.1846 48.1376 57.0951 42.5768 59.4047C37.0161 61.7143 30.8969 62.3192 24.9931 61.1429C19.0894 59.9666 13.6662 57.0619 9.40957 52.7963C5.15289 48.5306 2.25388 43.0955 1.07915 37.1784C-0.0955718 31.2612 0.506758 25.1278 2.80997 19.5538C5.11318 13.9798 9.01381 9.21551 14.0186 5.86355C19.0233 2.51158 24.9074 0.722473 30.9267 0.722473C38.9969 0.722473 46.7368 3.93536 52.4438 9.65451C58.1509 15.3737 61.3579 23.1307 61.3594 31.2196Z" fill="#658833"/>
</mask>
<g mask="url(#mask0_931_893)">
<path d="M61.3594 31.2196C61.3606 37.2527 59.5767 43.1507 56.2334 48.1677C52.8901 53.1846 48.1376 57.0951 42.5768 59.4047C37.0161 61.7143 30.8969 62.3192 24.9931 61.1429C19.0894 59.9666 13.6662 57.0619 9.40957 52.7963C5.15289 48.5306 2.25388 43.0955 1.07915 37.1784C-0.0955718 31.2612 0.506758 25.1278 2.80997 19.5538C5.11318 13.9798 9.01381 9.21551 14.0186 5.86355C19.0233 2.51158 24.9074 0.722473 30.9267 0.722473C38.9969 0.722473 46.7367 3.93536 52.4438 9.65451C58.1509 15.3737 61.3579 23.1307 61.3594 31.2196Z" fill="white"/>
<path d="M40.8113 48.1378H21.3446L17.9548 30.7417H42.6312L40.8113 48.1378Z" fill="#531A00"/>
<path d="M35.712 40.9287H26.3392V46.3603H35.712V40.9287Z" fill="#EFBFA5"/>
<g style="mix-blend-mode:multiply">
<path d="M28.9557 45.0898C30.4217 45.036 31.8476 44.5958 33.0897 43.8135C33.9936 43.2636 34.7753 42.5337 35.3864 41.6689C35.4969 41.5057 35.619 41.3192 35.7353 41.121V40.9346H26.3392V45.014C27.2087 45.0974 28.0828 45.1228 28.9557 45.0898Z" fill="#DADADA"/>
</g>
<path d="M42.6312 26.1493C42.6312 17.4484 37.4273 12.4422 31.0024 12.4014H30.8686C24.4321 12.4422 19.2398 17.4484 19.2398 26.1493C19.2223 37.4378 27.3335 44.0175 30.9151 44.0466C34.5259 44.0175 42.6312 37.4378 42.6312 26.1493Z" fill="#EFBFA5"/>
<path d="M41.48 29.3721L40.8113 34.5239C43.4336 35.6895 43.8464 29.646 43.8464 29.646C43.2417 28.1133 41.48 29.3721 41.48 29.3721Z" fill="#EFBFA5"/>
<path d="M18.3036 29.6227C18.3036 29.6227 18.7165 35.6895 21.3446 34.5239L20.6759 29.3954C20.6759 29.3954 18.9142 28.1133 18.3036 29.6227Z" fill="#EFBFA5"/>
<path d="M26.2985 45.9407L15.0359 49.4374C13.8456 49.7015 12.752 50.2921 11.8772 51.1432C11.0024 51.9943 10.3809 53.0723 10.082 54.257L8.33771 61.7225H53.51L51.7657 54.257C51.468 53.0717 50.8469 51.993 49.9719 51.1417C49.0969 50.2905 48.0027 49.7003 46.8118 49.4374L35.5376 45.9407H26.2985Z" fill="#EFBFA5"/>
<path d="M43.9744 55.2302L44.7593 48.7613L42.1544 47.928C42.1544 47.928 40.1833 56.7397 30.9907 58.1325C21.7981 56.763 19.827 47.928 19.827 47.928L17.2163 48.738L18.0013 55.2069C18.0013 55.2069 16.5012 58.7852 17.1408 61.6991H44.8349C45.4745 58.8085 43.9744 55.2302 43.9744 55.2302Z" fill="#F39200"/>
<path d="M25.3914 16.1021C25.3914 16.1021 27.3858 22.2214 36.8284 25.4267C36.8284 25.4267 44.0267 26.3242 44.9686 29.2964C44.9686 29.2964 47.2188 19.4357 42.6079 14.3072C42.6079 14.3072 35.1597 5.07585 25.3682 12.3898C25.3914 12.3781 23.5948 13.1008 25.3914 16.1021Z" fill="#852D00"/>
<path d="M25.2693 12.8269C25.2693 12.8269 14.158 15.0531 19.3212 28.8826C19.3212 28.8826 20.0015 18.6664 26.7927 18.5906L25.2693 12.8269Z" fill="#852D00"/>
<path d="M23.5366 48.1436C23.5366 48.1436 14.4545 46.64 15.6581 33.4166C15.6581 33.4166 16.0011 18.2992 20.7573 15.9331L21.5481 21.6386C21.5481 21.6386 17.9432 32.6124 23.5366 48.1436Z" fill="#852D00"/>
<path d="M39.6775 48.1436C39.6775 48.1436 48.7596 46.64 47.556 33.4166C47.556 33.4166 47.2072 18.2992 42.4568 15.9331L40.8287 21.1199C40.8287 21.1199 43.7883 39.4718 39.6775 48.1436Z" fill="#852D00"/>
<path d="M26.8043 12.2674C26.409 13.2465 26.9264 14.7093 27.0369 15.7933C27.4846 15.6242 27.5486 15.0123 27.9847 14.7442C28.3277 15.4144 28.5661 16.1837 28.9441 16.8772C29.5255 18.0078 30.6593 19.9602 31.735 20.6537C32.0431 20.2341 31.9269 19.6979 31.9676 19.1676C32.6988 20.1463 33.5077 21.0642 34.3864 21.9125C34.3457 21.6211 34.4561 21.2656 34.4271 20.9684C35.5434 21.5512 36.3051 23.113 37.4971 23.521C37.4506 23.2121 37.6192 22.9382 37.6424 22.6876C38.4041 23.2063 39.1658 24.1212 39.9682 24.4767C40.3985 24.6749 41.2474 24.5758 41.6079 25.0012C41.6079 24.2611 41.4509 23.1014 40.8694 22.6701C40.8432 22.8537 40.8023 23.035 40.7473 23.2121C40.5106 22.8183 40.2275 22.4543 39.9043 22.1281L39.8694 22.5477C39.8112 22.4312 39.5321 22.1223 39.4565 21.9649C39.407 22.1277 39.3662 22.2931 39.3344 22.4603C38.9565 22.0757 38.7181 21.2481 38.0553 21.1898C38.0553 21.353 37.8692 21.8134 37.8808 21.9241C37.7471 21.3414 37.3517 20.4788 36.6656 20.438C36.6656 20.5837 36.4679 20.8984 36.4621 21.0208C36.3604 20.7194 36.2259 20.4301 36.0609 20.1583C35.9679 20.2224 35.9039 20.2982 35.8167 20.3564C35.433 19.593 35.5144 18.5382 35.0666 17.8388C34.9083 18.1711 34.8344 18.5375 34.8515 18.9053C34.8016 18.5551 34.6545 18.2259 34.4271 17.9554C34.3805 18.0778 34.1538 18.3342 34.1015 18.4857C33.8747 18.0137 33.427 16.6325 33.1188 17.8621C32.9446 17.5563 32.8005 17.2343 32.6885 16.9005C32.6071 17.1045 32.2583 17.4833 32.1769 17.6465C32.0024 17.0987 31.6303 16.1138 31.1303 16.8947C31.0869 16.456 30.8963 16.0451 30.5895 15.7291C30.5938 16.0527 30.5586 16.3757 30.4849 16.6907C30.4906 16.0771 30.2853 15.4803 29.9034 15.0007C29.8237 15.261 29.7884 15.5328 29.7988 15.8049C29.8427 15.2553 29.7212 14.7052 29.4499 14.2256C29.3627 14.2547 29.3859 14.3771 29.3685 14.3829C29.322 13.4796 28.8278 13.0891 28.4091 12.518C28.287 12.518 28.2056 12.5821 28.0835 12.5996C27.9905 12.3723 27.787 12.2558 27.6823 12.0809C27.6132 12.3513 27.5608 12.6258 27.5253 12.9026C27.4265 12.4656 27.1997 12.2266 26.7985 12.3956" fill="#983302"/>
<path d="M24.9844 15.0531C24.7519 15.5077 25.1821 16.5509 25.4205 17.0579C25.4024 16.8716 25.3177 16.6982 25.1819 16.5696C25.0462 16.4411 24.8687 16.3661 24.6821 16.3586C24.6559 16.6279 24.6559 16.8992 24.6821 17.1686C24.5309 16.784 24.3565 16.8481 24.1355 16.6791C24.0341 17.0169 23.9947 17.3704 24.0192 17.7223C23.7285 17.6497 23.4445 17.5522 23.1703 17.4309C23.0424 17.7864 23.0889 18.2176 22.9668 18.5964C22.8215 18.4158 22.6587 18.4041 22.5482 18.3167C22.6587 18.8995 22.2284 18.9753 22.1063 19.2608C21.8753 19.7468 21.6809 20.2494 21.5248 20.7644C21.3911 20.4788 21.1411 20.1816 20.9841 19.9135C20.8532 20.5008 20.7888 21.101 20.7922 21.7027C20.7431 21.662 20.6815 21.6393 20.6178 21.6386C20.5596 22.0232 20.4666 22.4137 20.3852 22.8041C20.3329 22.5652 20.205 22.3379 20.1585 22.1048C20.1119 22.5477 20.0422 23.0139 20.0363 23.4627C19.912 23.3916 19.7839 23.3274 19.6526 23.2704C19.5676 23.653 19.5247 24.0439 19.5247 24.4359C19.5247 24.5175 19.5247 24.5175 19.5247 24.4359C19.5247 24.3543 19.5247 24.3136 19.4375 24.331C19.396 24.619 19.3258 24.9021 19.2281 25.1761C18.9237 24.6323 18.6874 24.0529 18.5246 23.451C18.5154 23.4484 18.5058 23.4477 18.4964 23.449C18.4869 23.4502 18.4778 23.4534 18.4697 23.4583C18.4615 23.4633 18.4544 23.4698 18.4489 23.4776C18.4433 23.4853 18.4394 23.4941 18.4374 23.5035C18.4054 23.1643 18.4054 22.8228 18.4374 22.4836C18.542 22.4836 18.6176 22.5535 18.7223 22.571C18.8442 22.2115 18.8859 21.8295 18.8444 21.4521C18.8622 21.6132 18.8913 21.7729 18.9316 21.93C18.9512 21.6398 19.0099 21.3535 19.106 21.0791C19.2456 21.1432 19.5712 21.0791 19.6875 21.1607C19.6763 20.6192 19.763 20.0802 19.9433 19.5697C19.9956 19.6513 20.1875 19.8028 20.2399 19.8727C20.2995 19.7065 20.3424 19.5347 20.3678 19.3599C20.4143 19.3599 20.5131 19.4764 20.5306 19.4473C20.6017 19.1084 20.7191 18.7809 20.8794 18.4741C20.9725 18.6489 21.2981 18.8587 21.3911 19.0219C21.4958 18.5964 21.5365 18.1885 21.6586 17.7689C21.6993 17.8563 21.7167 17.9729 21.7632 18.0545C21.8764 17.6109 22.0465 17.1838 22.2691 16.784C22.3716 16.8069 22.4725 16.8361 22.5714 16.8714C22.647 16.6091 22.9261 16.4227 23.0192 16.2187C23.1238 16.3119 23.368 16.3702 23.4552 16.446C23.5308 16.2012 23.8041 15.9506 23.8797 15.7117C23.996 15.7117 23.9727 15.7933 24.0716 15.7933C24.1472 15.5077 24.2983 15.5135 24.5251 15.3795" fill="#983302"/>
</g>
<mask id="mask1_931_893" style="mask-type:alpha" maskUnits="userSpaceOnUse" x="152" y="0" width="62" height="62">
<path d="M213.5 31.2196C213.501 37.253 211.717 43.1512 208.374 48.1683C205.03 53.1853 200.277 57.0959 194.716 59.4053C189.155 61.7147 183.036 62.3193 177.132 61.1425C171.228 59.9657 165.805 57.0605 161.548 52.7942C157.292 48.5279 154.393 43.0923 153.219 37.1748C152.045 31.2573 152.648 25.1237 154.952 19.5497C157.256 13.9758 161.158 9.21197 166.163 5.86071C171.169 2.50945 177.054 0.721321 183.073 0.722474C191.143 0.722474 198.882 3.93555 204.588 9.65486C210.294 15.3742 213.5 23.1312 213.5 31.2196Z" fill="#1A7290"/>
</mask>
<g mask="url(#mask1_931_893)">
<path d="M213.5 31.2196C213.501 37.253 211.717 43.1512 208.374 48.1683C205.03 53.1853 200.277 57.0959 194.716 59.4053C189.155 61.7147 183.036 62.3193 177.132 61.1425C171.228 59.9657 165.805 57.0605 161.548 52.7942C157.292 48.5279 154.393 43.0923 153.219 37.1748C152.045 31.2573 152.648 25.1237 154.952 19.5497C157.256 13.9758 161.158 9.21197 166.163 5.86071C171.169 2.50945 177.054 0.721321 183.073 0.722474C191.143 0.722474 198.882 3.93555 204.588 9.65486C210.294 15.3742 213.5 23.1312 213.5 31.2196Z" fill="white"/>
<path d="M187.852 40.9287H178.48V46.3544H187.852V40.9287Z" fill="#EFBFA5"/>
<g style="mix-blend-mode:multiply">
<path d="M181.102 45.0898C182.568 45.0344 183.993 44.5943 185.236 43.8135C186.128 43.2593 186.9 42.5298 187.504 41.6689C187.614 41.5057 187.736 41.3192 187.852 41.121V40.9346H178.48V45.014C179.351 45.0975 180.227 45.1228 181.102 45.0898Z" fill="#DADADA"/>
</g>
<path d="M194.772 26.1493C194.772 17.4425 189.568 12.4423 183.143 12.4015H183.009C176.572 12.4423 171.38 17.4425 171.38 26.1493C171.38 37.4379 179.485 44.0175 183.067 44.0466C186.666 44.0175 194.772 37.4379 194.772 26.1493Z" fill="#EFBFA5"/>
<path d="M193.62 29.3721L192.958 34.5239C195.586 35.6895 195.993 29.646 195.993 29.646C195.382 28.1133 193.62 29.3721 193.62 29.3721Z" fill="#EFBFA5"/>
<path d="M170.45 29.6227C170.45 29.6227 170.863 35.6895 173.485 34.5239L172.816 29.3954C172.816 29.3954 171.055 28.1133 170.45 29.6227Z" fill="#EFBFA5"/>
<path d="M178.421 45.9407L167.147 49.4374C165.957 49.7015 164.863 50.2921 163.989 51.1432C163.114 51.9943 162.492 53.0723 162.193 54.257L160.449 61.7225H205.61L203.865 54.257C203.568 53.0725 202.948 51.9943 202.074 51.1431C201.2 50.2919 200.107 49.7012 198.917 49.4374L187.643 45.9407H178.421Z" fill="#EFBFA5"/>
<path d="M196.121 55.2302L196.906 48.7613L194.295 47.928C194.295 47.928 192.324 56.7397 183.131 58.1325C173.939 56.763 171.967 47.928 171.967 47.928L169.357 48.738L170.142 55.2069C170.142 55.2069 168.642 58.7852 169.287 61.6991H196.975C197.609 58.8085 196.121 55.2302 196.121 55.2302Z" fill="#D42A26"/>
<path d="M192.958 28.224C192.958 28.224 193.684 38.0206 187.852 41.5173L187.951 46.2554L198.359 49.2509C198.359 49.2509 196.464 47.1587 197.132 38.9822C197.132 38.9822 201.58 16.5276 190.108 10.9445C190.108 10.9445 182.678 7.61679 175.677 10.9445C175.677 10.9445 163.252 15.8807 169.124 36.9192C169.844 41.0745 169.378 45.3491 167.781 49.2509L178.421 45.9407L178.462 42.1642C178.462 42.1642 173.77 38.5277 173.485 34.5239C173.485 34.5239 170.52 22.0815 176.846 18.6897C176.846 18.6897 182.992 26.2659 188.306 27.8452C186.952 26.4517 185.701 24.9617 184.561 23.3869C185.485 24.7966 186.725 25.9689 188.184 26.8091C189.642 27.6494 191.278 28.1341 192.958 28.224Z" fill="#3E150C"/>
<path d="M177.782 13.4097C177.7 15.9331 181.596 18.7246 183.149 20.3506C182.439 19.051 181.521 17.8155 181.195 16.3411C182.497 17.3842 183.654 18.5964 184.957 19.6629C186.643 21.0441 188.009 23.1596 189.864 24.2378C189.533 23.2471 188.347 22.2913 187.835 21.2656C187.475 20.5313 187.161 19.4356 186.672 18.8878C186.94 20.2399 190.364 22.5069 191.452 23.2878C192.539 24.0688 194.208 25.5724 195.638 25.7297C195.112 24.0513 194.475 22.41 193.731 20.8168C193.365 20.1233 192.754 18.0486 191.923 18.037C191.748 18.8995 192.603 19.9776 192.504 21.0208C191.492 20.881 190.138 19.0219 189.417 18.2701C188.539 17.3551 187.626 15.3562 186.329 15.1405C186.294 15.7233 186.329 16.3411 186.294 16.9355C185.376 16.8889 178.369 9.41759 177.956 13.6253" fill="#472310"/>
</g>
<mask id="mask2_931_893" style="mask-type:alpha" maskUnits="userSpaceOnUse" x="76" y="0" width="62" height="62">
<path d="M137.43 31.2196C137.431 37.2527 135.647 43.1507 132.304 48.1677C128.96 53.1846 124.208 57.0951 118.647 59.4047C113.086 61.7143 106.967 62.3192 101.063 61.1429C95.1597 59.9666 89.7366 57.0619 85.4799 52.7963C81.2232 48.5306 78.3242 43.0955 77.1495 37.1784C75.9747 31.2612 76.5771 25.1278 78.8803 19.5538C81.1835 13.9798 85.0841 9.21551 90.0889 5.86355C95.0936 2.51158 100.978 0.722473 106.997 0.722473C115.067 0.722473 122.807 3.93536 128.514 9.65451C134.221 15.3737 137.428 23.1307 137.43 31.2196Z" fill="#E74645"/>
</mask>
<g mask="url(#mask2_931_893)">
<path d="M137.43 31.2196C137.431 37.2527 135.647 43.1507 132.304 48.1677C128.96 53.1846 124.208 57.0951 118.647 59.4047C113.086 61.7143 106.967 62.3192 101.063 61.1429C95.1597 59.9666 89.7366 57.0619 85.4799 52.7963C81.2232 48.5306 78.3242 43.0955 77.1495 37.1784C75.9747 31.2612 76.5771 25.1278 78.8803 19.5538C81.1835 13.9798 85.0841 9.21551 90.0889 5.86355C95.0936 2.51158 100.978 0.722473 106.997 0.722473C115.067 0.722473 122.807 3.93536 128.514 9.65451C134.221 15.3737 137.428 23.1307 137.43 31.2196Z" fill="white"/>
<path d="M111.887 40.9287H102.072V46.1039H111.887V40.9287Z" fill="#EFBFA5"/>
<g style="mix-blend-mode:multiply">
<path d="M104.816 44.8975C106.338 44.8509 107.825 44.4328 109.148 43.6795C110.08 43.1667 110.898 42.4709 111.555 41.6339C111.672 41.4765 111.8 41.3017 111.916 41.1094V40.9346H102.072V44.8042C102.984 44.8934 103.901 44.9245 104.816 44.8975Z" fill="#DADADA"/>
</g>
<path d="M106.985 11.8711C100.711 12.046 95.9377 14.6335 95.9377 23.5268C95.9377 28.8068 96.432 30.3687 97.967 36.3947C99.031 40.5616 104.683 42.7645 106.84 42.9044H106.979H107.125C109.276 42.7645 114.928 40.5732 115.992 36.3947C117.527 30.3687 118.009 28.8185 118.021 23.5268C118.044 14.6335 113.259 12.046 106.985 11.8711Z" fill="#EFBFA5"/>
<path d="M116.823 27.2042L116.137 32.4492C118.829 33.6148 119.248 27.4489 119.248 27.4489C118.626 25.9162 116.823 27.2042 116.823 27.2042Z" fill="#EFBFA5"/>
<path d="M94.3853 27.4606C94.3853 27.4606 94.804 33.6498 97.496 32.4609L96.8099 27.2158C96.8099 27.2158 95.0075 25.9162 94.3853 27.4606Z" fill="#EFBFA5"/>
<path d="M111.974 46.1039L125.237 49.5656C125.237 49.5656 129.76 50.2591 130.912 54.3386L132.894 61.7283H81.1052L83.0646 54.3386C84.2275 50.2591 88.7453 49.5714 88.7453 49.5714L101.967 46.1097L111.974 46.1039Z" fill="#EFBFA5"/>
<path d="M81.1052 61.7225L83.0646 54.3386C84.2275 50.2591 88.7453 49.5714 88.7453 49.5714L101.967 46.1097H111.957L125.219 49.5714C125.219 49.5714 129.76 50.2591 130.912 54.3386L132.894 61.7283" fill="white"/>
<path d="M107.852 46.1039H107.014H106.985H106.148L103.717 49.9386L105.892 52.3921H106.985H107.014H108.107L110.282 49.9386L107.852 46.1039Z" fill="#BE1622"/>
<g style="mix-blend-mode:multiply">
<path d="M108.206 51.9259C107.504 51.146 106.99 50.215 106.704 49.2046C106.418 48.1941 106.367 47.1313 106.555 46.098H106.148L103.717 49.9327L105.892 52.3863H108.107L108.375 52.0832L108.206 51.9259Z" fill="#C6C6C6"/>
</g>
<g style="mix-blend-mode:multiply">
<path d="M111.904 43.5163L106.962 46.1039L110.218 51.0226L116.137 47.4559L111.904 43.5163Z" fill="#C6C6C6"/>
</g>
<path d="M111.904 43.5163L106.962 46.1039L110.282 50.3698L115.811 47.1587L111.904 43.5163Z" fill="white"/>
<g style="mix-blend-mode:multiply">
<path d="M102.049 43.5163L106.962 46.1039L103.735 51.0226L97.8158 47.4559L102.049 43.5163Z" fill="#C6C6C6"/>
</g>
<path d="M102.049 43.5163L106.991 46.1039L103.671 50.3698L98.1414 47.1587L102.049 43.5163Z" fill="white"/>
<path d="M98.1821 47.1004L88.7628 49.5656C88.7628 49.5656 84.2275 50.2591 83.0646 54.3386L81.0877 61.7283H132.894L130.912 54.3386C129.749 50.2591 125.237 49.5714 125.237 49.5714L115.352 46.7274L106.962 61.332L98.1821 47.1004Z" fill="#0D3953"/>
<path d="M105.851 52.3921L104.671 57.6255L106.962 61.3553L109.102 57.6197L108.072 52.3921H105.851Z" fill="#BE1622"/>
<path d="M98.2054 47.1004L93.7341 48.266L96.2517 49.2509L94.6993 51.0226L103.717 61.7225H107.224L98.2054 47.1004Z" fill="#082A3F"/>
<path d="M115.346 46.7216L120.271 48.1378L117.748 49.2509L119.3 51.0225L110.282 61.7225H106.776L115.346 46.7216Z" fill="#082A3F"/>
<path d="M96.9669 27.9734L97.5484 34.6463C94.6412 26.7962 96.3215 16.5276 96.3215 16.5276C97.2518 12.7336 98.1066 12.0926 99.6067 11.2825C101.107 10.4724 100.508 10.6589 102.834 10.0878C105.159 9.51667 102.834 10.0878 106.02 9.30104C108.015 8.87574 110.096 9.23457 111.834 10.3034C114.015 11.5856 115.37 12.2324 115.37 12.2324C120.155 15.9564 117.969 26.2601 117.969 26.2601C117.969 28.9758 116.224 35.3457 116.224 35.3457L116.881 26.703C116.881 14.7676 110.805 15.8224 110.805 15.8224C108.443 16.1834 106.039 16.1834 103.677 15.8224C103.677 15.8224 96.4378 13.5437 96.9669 27.8219" fill="#240800"/>
<path d="M97.3507 32.6124C97.6525 34.2846 98.3574 35.8575 99.4043 37.1942C100.451 38.5309 101.808 39.5909 103.357 40.2818C104.409 40.827 105.597 41.0537 106.776 40.9346V42.916C106.776 42.916 104.258 42.9627 100.647 40.4217C100.647 40.4217 96.9669 38.2071 97.3507 32.6124Z" fill="#240800"/>
<path d="M116.573 32.6124C116.239 34.3165 115.485 35.9102 114.382 37.2493C113.278 38.5884 111.859 39.6307 110.253 40.2818C109.139 40.8306 107.895 41.0566 106.66 40.9346V42.916C106.66 42.916 109.305 42.9627 113.108 40.4217C113.108 40.4217 116.98 38.2071 116.573 32.6124Z" fill="#240800"/>
<path d="M96.9669 32.9388C96.9669 32.9388 99.3625 38.3004 102.392 37.7642C102.392 37.7642 105.072 36.0567 106.776 37.0183C106.776 37.0183 109.357 36.0567 111.387 37.7817C111.387 37.7817 114.294 37.2514 116.416 33.3292C116.416 33.3292 115.835 40.9054 106.962 41.5698C106.962 41.5698 98.5775 41.5698 96.9669 32.9388Z" fill="#240800"/>
<path d="M107.02 39.3086C108.036 39.2382 109.015 38.8939 109.852 38.312C107.985 37.4728 107.16 37.8516 106.979 37.9624C106.799 37.8516 105.979 37.4728 104.113 38.312C104.947 38.8948 105.924 39.2392 106.939 39.3086H107.02Z" fill="#EFBFA5"/>
<path d="M97.6007 16.2362C97.6298 16.3877 97.5426 16.4693 97.6821 16.5509C97.7772 15.9316 97.937 15.3241 98.1589 14.7384C98.531 14.9948 99.3974 16.4518 99.3218 14.9599C99.7288 14.9249 100.171 15.3737 100.485 15.2746C100.967 15.1172 101.008 14.3654 101.339 13.9633C102.095 14.5111 102.2 14.9482 102.95 14.5461C103.212 14.3946 103.119 13.8817 103.479 13.7827C103.84 13.6836 104.113 14.1615 104.444 14.2023C104.946 14.2059 105.446 14.1251 105.921 13.9633C106.305 13.7419 106.601 12.483 107.224 13.4505C108.096 12.8094 108.241 14.2372 109.038 14.313C109.038 14.1848 109.038 14.0391 109.038 13.9109C109.532 14.2605 109.619 13.771 109.98 13.806C110.637 13.8701 110.77 14.2023 111.294 14.3888C111.994 14.678 112.745 14.8246 113.503 14.82L113.538 14.6277C114.189 15.2105 114.701 16.0847 115.457 16.5742C115.527 16.5101 115.515 16.411 115.55 16.376C115.98 16.9588 116.131 17.6873 116.817 18.0486C116.87 16.6441 114.945 14.9482 114.265 14.074C114.317 14.1731 114.352 14.2897 114.41 14.4004C113.65 13.6612 112.777 13.0493 111.823 12.5879C111.863 12.7395 111.823 12.9434 111.898 13.0891C111.613 12.4248 109.485 11.8362 108.823 11.6322C108.823 11.7895 108.776 11.9935 108.793 12.1509C108.753 12.1217 108.212 11.7662 108.166 11.807C108.357 11.6788 107.34 12.2033 107.741 12.1567C107.624 12.2886 107.479 12.3922 107.317 12.4597C107.131 12.4947 106.567 12.011 106.363 11.9527C106.363 12.0868 106.328 12.2266 106.328 12.3548C106.177 12.2441 105.787 12.1392 105.619 11.9527C105.619 12.1101 105.566 12.3082 105.578 12.4714C105.27 12.1188 104.866 11.8637 104.415 11.7371C104.413 11.9781 104.449 12.2179 104.52 12.4481C104.305 12.011 103.973 11.8187 103.654 12.1509C103.223 11.7313 102.275 11.0552 102.159 12.0401C102.031 12.0401 101.973 11.9411 101.851 11.9585C101.45 12.4889 100.932 12.1042 100.456 11.9585C100.514 12.5413 100.456 13.2698 99.7927 13.0309C99.752 13.1532 99.7172 13.2989 99.6706 13.4388C99.5827 13.3697 99.4871 13.311 99.3857 13.264C99.0194 13.6253 98.3857 13.6078 97.8856 13.8934C97.8856 14.7384 97.6588 15.4552 97.653 16.3411" fill="#3A160E"/>
</g>
</g>
<defs>
<clipPath id="clip0_931_893">
<rect width="213" height="61" fill="white" transform="translate(0.5 0.722473)"/>
</clipPath>
</defs>
</svg>
