<svg width="62" height="62" viewBox="0 0 62 62" fill="none" xmlns="http://www.w3.org/2000/svg">
<circle cx="31" cy="31.2225" r="30.5" fill="#3E50B5"/>
<rect x="36.58" y="35.0663" width="8.75252" height="10.1471" fill="#070F37"/>
<path d="M20.1667 14.4573H39.3333C40.4384 14.4573 41.4982 14.8963 42.2796 15.6777C43.061 16.4591 43.5 17.5189 43.5 18.624V29.979C41.6008 29.3636 39.5685 29.285 37.6275 29.7519C35.6865 30.2188 33.9122 31.2129 32.5006 32.6245C31.0889 34.0362 30.0948 35.8105 29.6279 37.7515C29.1611 39.6925 29.2397 41.7248 29.855 43.624H18.5C18.5 44.066 18.6756 44.4899 18.9882 44.8025C19.3007 45.115 19.7246 45.2906 20.1667 45.2906H30.5533C31.0305 46.205 31.6355 47.0468 32.35 47.7906H20.1667C19.0616 47.7906 18.0018 47.3516 17.2204 46.5702C16.439 45.7888 16 44.729 16 43.624V18.624C16 17.5189 16.439 16.4591 17.2204 15.6777C18.0018 14.8963 19.0616 14.4573 20.1667 14.4573ZM22.6667 19.4573C22.2246 19.4573 21.8007 19.6329 21.4882 19.9454C21.1756 20.258 21 20.6819 21 21.124V22.7906C21 23.2327 21.1756 23.6566 21.4882 23.9691C21.8007 24.2817 22.2246 24.4573 22.6667 24.4573H36C36.442 24.4573 36.866 24.2817 37.1785 23.9691C37.4911 23.6566 37.6667 23.2327 37.6667 22.7906V21.124C37.6667 20.6819 37.4911 20.258 37.1785 19.9454C36.866 19.6329 36.442 19.4573 36 19.4573H22.6667ZM49.3333 40.2906C49.3333 37.8595 48.3676 35.5279 46.6485 33.8088C44.9294 32.0897 42.5978 31.124 40.1667 31.124C37.7355 31.124 35.4039 32.0897 33.6849 33.8088C31.9658 35.5279 31 37.8595 31 40.2906C31 42.7218 31.9658 45.0534 33.6849 46.7724C35.4039 48.4915 37.7355 49.4573 40.1667 49.4573C42.5978 49.4573 44.9294 48.4915 46.6485 46.7724C48.3676 45.0534 49.3333 42.7218 49.3333 40.2906ZM39.19 36.2856L43.8667 39.3523C44.0116 39.4453 44.1305 39.5737 44.2121 39.7253C44.2937 39.8769 44.3355 40.0468 44.3333 40.219C44.3335 40.3922 44.2924 40.5631 44.2133 40.7173C44.1387 40.8699 44.0248 40.9999 43.8833 41.094L39.205 44.2856C39.1236 44.3404 39.035 44.3836 38.9417 44.414C38.725 44.4831 38.4905 44.4695 38.2833 44.3756C38.1639 44.3197 38.0551 44.2436 37.9617 44.1506C37.8714 44.0523 37.7982 43.9397 37.745 43.8173C37.6929 43.6921 37.6663 43.5578 37.6667 43.4223V37.159C37.6658 36.9584 37.7231 36.7619 37.8317 36.5933C37.9403 36.4247 38.0954 36.2912 38.2783 36.209C38.4236 36.1409 38.5842 36.112 38.7442 36.1251C38.9041 36.1383 39.0578 36.193 39.19 36.284V36.2856Z" fill="#F8F8F8"/>
</svg>
