<svg width="104" height="63" viewBox="0 0 104 63" fill="none" xmlns="http://www.w3.org/2000/svg">
<path fill-rule="evenodd" clip-rule="evenodd" d="M101.728 29.9752C101.654 18.2445 97.1465 7.16401 88.7033 2.42249C88.262 2.17468 88.0768 1.62628 88.3027 1.17342V1.17342C88.5287 0.720567 89.0804 0.535015 89.5228 0.780751C98.8328 5.95163 103.485 17.8811 103.56 29.9637C103.636 42.0981 99.1077 54.7984 89.5636 61.5739C89.1509 61.8668 88.5813 61.749 88.3028 61.3264V61.3264C88.0243 60.9038 88.1424 60.3367 88.5542 60.0426C97.4141 53.7163 101.801 41.7238 101.728 29.9752ZM88.5413 30.2319C88.4834 20.9634 84.9509 12.255 78.3893 8.45736C77.9513 8.20385 77.7655 7.65588 77.9915 7.20302V7.20302C78.2175 6.75017 78.7694 6.56418 79.2093 6.81449C86.6327 11.0388 90.3139 20.594 90.374 30.2204C90.4344 39.8976 86.8472 50.0535 79.25 55.5414C78.8397 55.8378 78.27 55.7194 77.9916 55.2968V55.2968C77.7131 54.8742 77.8314 54.3075 78.2404 54.0094C85.1561 48.9686 88.5992 39.52 88.5413 30.2319Z" fill="#3E50B5"/>
<path fill-rule="evenodd" clip-rule="evenodd" d="M2.43421 29.9752C2.50743 18.2445 7.01519 7.16401 15.4584 2.42249C15.8997 2.17468 16.085 1.62628 15.859 1.17342V1.17342C15.6331 0.720567 15.0813 0.535015 14.6389 0.780751C5.32894 5.95163 0.676912 17.8811 0.601499 29.9637C0.525762 42.0981 5.05401 54.7984 14.5981 61.5739C15.0108 61.8668 15.5805 61.749 15.859 61.3264V61.3264C16.1375 60.9038 16.0194 60.3367 15.6075 60.0426C6.74761 53.7163 2.36089 41.7238 2.43421 29.9752ZM15.6205 30.2319C15.6783 20.9634 19.2109 12.255 25.7725 8.45736C26.2105 8.20385 26.3962 7.65588 26.1702 7.20302V7.20302C25.9443 6.75017 25.3923 6.56418 24.9525 6.81449C17.529 11.0388 13.8478 20.594 13.7878 30.2204C13.7274 39.8976 17.3146 50.0535 24.9118 55.5414C25.322 55.8378 25.8917 55.7194 26.1702 55.2968V55.2968C26.4487 54.8742 26.3304 54.3075 25.9214 54.0094C19.0057 48.9686 15.5625 39.52 15.6205 30.2319Z" fill="#3E50B5"/>
<rect x="35.7635" y="0.353455" width="31.5393" height="61.7381" rx="8" fill="#12285F"/>
<path d="M30.445 25.198C30.445 20.2274 34.4745 16.198 39.445 16.198H63.6212C68.5917 16.198 72.6212 20.2274 72.6212 25.198V36.9947C72.6212 41.9653 68.5917 45.9947 63.6212 45.9947H39.445C34.4745 45.9947 30.445 41.9653 30.445 36.9947V25.198Z" fill="#121B50"/>
<path fill-rule="evenodd" clip-rule="evenodd" d="M63.6212 18.198H39.445C35.579 18.198 32.445 21.332 32.445 25.198V36.9947C32.445 40.8607 35.579 43.9947 39.445 43.9947H63.6212C67.4872 43.9947 70.6212 40.8607 70.6212 36.9947V25.198C70.6212 21.332 67.4872 18.198 63.6212 18.198ZM39.445 16.198C34.4745 16.198 30.445 20.2274 30.445 25.198V36.9947C30.445 41.9653 34.4745 45.9947 39.445 45.9947H63.6212C68.5917 45.9947 72.6212 41.9653 72.6212 36.9947V25.198C72.6212 20.2274 68.5917 16.198 63.6212 16.198H39.445Z" fill="#3E50B5"/>
<g clip-path="url(#clip0_970_26)">
<path d="M56.9398 30.5589L48.0738 26.4215C47.9542 26.3698 47.8226 26.3468 47.6911 26.3547C47.5595 26.3625 47.4322 26.4009 47.3206 26.4665C47.2091 26.532 47.1168 26.6225 47.0523 26.7298C46.9878 26.8371 46.9531 26.9578 46.9513 27.0808V35.3521C46.9501 35.4784 46.9839 35.6028 47.0494 35.7133C47.1149 35.8238 47.2098 35.9167 47.3249 35.983C47.4401 36.0493 47.5716 36.0867 47.7068 36.0917C47.842 36.0967 47.9763 36.069 48.0967 36.0114L56.9398 31.8739C57.0708 31.8126 57.1809 31.7184 57.2578 31.602C57.3348 31.4856 57.3756 31.3515 57.3756 31.2147C57.3756 31.0779 57.3348 30.9438 57.2578 30.8273C57.1809 30.7109 57.0708 30.6167 56.9398 30.5554V30.5589Z" fill="#FFEE52"/>
</g>
<defs>
<clipPath id="clip0_970_26">
<rect width="13.7456" height="12.8293" fill="white" transform="translate(44.6603 24.8285)"/>
</clipPath>
</defs>
</svg>
