<svg width="420" height="495" viewBox="0 0 420 495" fill="none" xmlns="http://www.w3.org/2000/svg">
<g style="mix-blend-mode:multiply" opacity="0.4">
<ellipse cx="223.522" cy="406.686" rx="196.478" ry="87.3285" fill="#435E9B"/>
</g>
<path d="M375.265 42.1961C374.541 37.0839 370.523 33.0656 365.411 32.3422C370.523 31.6188 374.541 27.6005 375.265 22.4883C375.988 27.6005 380.007 31.6188 385.119 32.3422C380.007 33.0656 375.988 37.0839 375.265 42.1961Z" fill="#C5D3FF"/>
<path d="M336.053 25.1701C335.132 18.6751 330.028 13.5697 323.533 12.6501C330.028 11.7304 335.132 6.62638 336.053 0.129965C336.971 6.62638 342.077 11.7304 348.572 12.6501C342.077 13.5697 336.971 18.6751 336.053 25.1701Z" fill="#C5D3FF"/>
<path d="M288.572 305.339L322.182 272.107L262.242 169.467C256.001 162.33 248.102 156.835 239.239 153.467L218.129 145.444L165.657 135.819L128.399 150.489C118.98 154.199 113.245 163.792 114.441 173.843L124.186 255.881L129.928 362.701L265.309 339.219L251.687 299.71L252.146 238.11L288.572 305.339" fill="#AE57F2"/>
<path d="M252.592 296.915C252.909 296.913 252.992 275.574 252.775 249.257C252.56 222.933 252.128 201.604 251.813 201.606C251.497 201.608 251.414 222.942 251.629 249.269C251.846 275.584 252.276 296.919 252.592 296.915" fill="#17282F"/>
<path d="M247.633 312.573L165.831 279.643C159.233 276.987 154.715 270.817 154.174 263.726L148.186 185.297C148.186 185.297 148.894 151.941 128.06 150.317L116.208 154.987C100.889 163.12 97.0934 185.424 99.1795 202.644C102.143 227.111 103.377 261.738 106.693 282.97C109.405 300.341 119.837 314.083 136.357 320.096L237.112 341.909L247.633 312.573" fill="#AE57F2"/>
<path d="M149.359 197.261C149.397 197.257 149.485 197.875 149.618 199.057C149.746 200.333 149.923 202.057 150.142 204.225C150.56 208.82 151.149 215.291 151.873 223.244C152.566 231.31 153.387 240.865 154.297 251.463C154.521 254.119 154.75 256.84 154.984 259.619C155.226 262.4 155.394 265.249 156.028 268.011C156.627 270.786 157.958 273.383 160.092 275.361C162.215 277.346 164.871 278.798 167.64 280.059C190.198 289.818 210.986 297.879 226.077 303.53C233.568 306.288 239.663 308.534 243.992 310.128C246.036 310.882 247.66 311.483 248.865 311.926C249.974 312.346 250.552 312.585 250.541 312.621C250.527 312.657 249.926 312.489 248.794 312.133C247.572 311.738 245.925 311.205 243.852 310.531C239.573 309.113 233.401 306.989 225.811 304.255C210.632 298.782 189.81 290.845 167.187 281.053C164.374 279.773 161.61 278.277 159.344 276.15C157.056 274.041 155.59 271.151 154.984 268.255C154.329 265.351 154.176 262.484 153.942 259.713C153.721 256.932 153.504 254.209 153.293 251.549C152.47 240.942 151.727 231.379 151.101 223.305C150.524 215.343 150.054 208.86 149.718 204.256C149.583 202.084 149.476 200.354 149.397 199.073C149.336 197.887 149.322 197.263 149.359 197.261" fill="#17282F"/>
<path d="M102.493 239.898C102.531 239.896 102.583 240.256 102.654 240.949C102.727 241.767 102.817 242.767 102.925 243.978C103.168 246.772 103.497 250.533 103.896 255.107C104.343 259.801 104.913 265.385 105.728 271.561C106.569 277.725 107.561 284.525 109.423 291.428C110.304 294.913 111.54 298.133 113.415 300.9C115.29 303.688 117.372 306.191 119.525 308.408C123.851 312.832 128.468 316.075 132.615 318.229C140.985 322.579 147.068 322.643 146.982 322.93C146.98 322.97 146.615 322.961 145.919 322.907C145.222 322.857 144.193 322.779 142.892 322.517C140.284 322.055 136.534 321.034 132.264 318.919C128 316.818 123.252 313.582 118.805 309.114C116.593 306.877 114.453 304.337 112.526 301.499C110.568 298.651 109.24 295.208 108.367 291.719C106.479 284.709 105.519 277.887 104.727 271.69C103.965 265.485 103.475 259.881 103.124 255.17C102.779 250.46 102.596 246.641 102.5 244.001C102.474 242.786 102.452 241.782 102.435 240.959C102.433 240.264 102.454 239.898 102.493 239.898" fill="#17282F"/>
<path d="M137.472 294.777C137.361 294.748 137.709 292.998 138.962 290.419C140.2 287.845 142.493 284.519 145.828 281.656C149.179 278.808 152.824 277.065 155.558 276.244C158.301 275.411 160.084 275.342 160.097 275.455C160.132 275.639 158.414 275.979 155.814 276.975C153.213 277.959 149.77 279.742 146.54 282.489C143.324 285.251 141.023 288.371 139.643 290.783C138.254 293.196 137.649 294.84 137.472 294.777Z" fill="#17282F"/>
<path d="M221.712 301.887C217.555 300.316 213.045 298.588 208.249 296.717L182.126 286.202C177.411 284.241 172.567 282.189 167.641 280.059C164.871 278.798 162.215 277.346 160.093 275.361C157.959 273.383 156.627 270.786 156.028 268.011C155.395 265.249 155.226 262.4 154.984 259.618C154.785 257.258 154.591 254.938 154.399 252.666C154.37 252.069 154.334 251.468 154.289 250.869C153.535 240.773 152.779 230.676 152.025 220.578C163.58 235.595 162.294 257.555 173.584 272.773C179.57 280.84 188.528 286.173 197.675 290.33C205.977 294.103 213.796 297.581 221.712 301.887" fill="#8F41CC"/>
<path d="M208.249 296.717C200.237 293.595 191.426 290.071 182.126 286.202L208.249 296.717ZM183.905 288.1C183.021 287.795 182.142 287.497 181.266 287.208C176.636 285.682 170.727 283.362 165.819 280.409C166.272 280.631 166.729 280.844 167.188 281.053C172.895 283.523 178.488 285.876 183.905 288.1" fill="#8F41CC"/>
<path d="M224.126 303.225C211.072 298.918 197.076 292.654 183.905 288.1C178.488 285.876 172.895 283.523 167.188 281.053C166.729 280.844 166.273 280.631 165.82 280.409C163.44 278.977 161.294 277.397 159.644 275.687C159.947 275.586 160.106 275.513 160.097 275.455C160.093 275.429 159.999 275.413 159.82 275.413C159.711 275.413 159.571 275.419 159.402 275.432C153.961 269.56 154.825 261.235 154.399 252.666C154.591 254.938 154.785 257.258 154.984 259.619C155.226 262.4 155.395 265.249 156.028 268.011C156.627 270.786 157.959 273.383 160.093 275.361C162.216 277.346 164.872 278.798 167.641 280.059C172.567 282.189 177.411 284.241 182.126 286.202C191.426 290.071 200.237 293.595 208.249 296.717C213.045 298.589 217.555 300.316 221.712 301.887C222.516 302.323 223.32 302.77 224.126 303.225" fill="#0F191D"/>
<path d="M159.643 275.687C159.603 275.645 159.563 275.605 159.522 275.563C159.482 275.519 159.442 275.477 159.401 275.432C159.57 275.419 159.71 275.413 159.82 275.413C159.998 275.413 160.092 275.429 160.096 275.455C160.106 275.513 159.947 275.586 159.643 275.687" fill="#0F191D"/>
<path d="M258.9 251.032L254.125 242.216L258.9 251.03V251.032Z" fill="#A7A9A8"/>
<path d="M258.9 251.031L254.125 242.216L252.684 239.556C252.552 227.151 252.375 216.51 252.197 209.681L258.9 251.031" fill="#8F41CC"/>
<path d="M252.684 239.556L252.202 238.668L251.824 207.382L252.196 209.681C252.375 216.51 252.552 227.151 252.684 239.556Z" fill="#0F191D"/>
<path d="M149.605 187.473C149.436 187.504 149.179 184.702 147.653 180.507C146.16 176.337 143.128 170.783 138.067 166.236C133.006 161.69 127.161 159.264 122.854 158.224C118.521 157.155 115.709 157.197 115.721 157.026C115.721 156.975 116.418 156.919 117.682 156.954C118.945 156.984 120.776 157.159 122.994 157.627C127.408 158.527 133.452 160.918 138.649 165.59C143.844 170.261 146.864 176.012 148.233 180.305C148.935 182.461 149.302 184.263 149.469 185.516C149.638 186.767 149.657 187.468 149.605 187.473" fill="#17282F"/>
<path d="M247.068 165.223C247.306 165.185 248.596 172.017 249.951 180.48C251.306 188.947 252.21 195.839 251.974 195.875C251.738 195.915 250.448 189.083 249.091 180.618C247.738 172.155 246.832 165.259 247.068 165.223Z" fill="#17282F"/>
<path d="M338.243 411.173C338.243 411.173 401.119 428.575 403.641 429.463C407.429 430.796 406.794 444.673 400.9 444.459C398.11 444.357 352.604 446.152 346.854 445.793C341.104 445.433 323.757 438.597 323.757 438.597L338.243 411.173Z" fill="#AE57F2"/>
<path d="M364.436 435.165C364.753 435.207 365.177 431.883 367.208 428.413C369.186 424.915 371.848 422.876 371.652 422.627C371.543 422.385 368.42 424.156 366.294 427.889C364.135 431.599 364.172 435.191 364.436 435.165" fill="#17282F"/>
<path d="M357.881 432.191C358.19 432.245 358.825 429.272 360.5 425.989C362.141 422.687 364.15 420.405 363.924 420.189C363.749 419.984 361.295 422.04 359.56 425.515C357.802 428.977 357.612 432.174 357.881 432.191" fill="#17282F"/>
<path d="M351.731 430.545C352.047 430.526 351.806 427.384 353.203 423.903C354.538 420.396 356.845 418.251 356.626 418.023C356.502 417.783 353.681 419.727 352.222 423.519C350.723 427.294 351.477 430.635 351.731 430.545" fill="#17282F"/>
<path d="M352.848 422.423C352.961 422.452 353.517 420.696 353.523 417.746C353.517 416.276 353.349 414.517 352.886 412.619C352.656 411.67 352.345 410.687 351.95 409.699C351.746 409.2 351.514 408.627 350.942 408.16C350.357 407.633 349.29 407.742 348.783 408.264C348.207 408.767 348.025 409.475 347.946 410.043C347.883 410.621 347.85 411.16 347.864 411.703C347.879 412.787 348.019 413.826 348.251 414.783C348.716 416.702 349.466 418.312 350.188 419.589C351.652 422.141 352.923 423.444 353.011 423.373C353.157 423.275 352.103 421.81 350.846 419.245C350.228 417.961 349.583 416.388 349.197 414.57C349.006 413.664 348.896 412.697 348.894 411.697C348.923 410.73 348.91 409.523 349.476 409.059C349.773 408.811 350.044 408.795 350.305 408.99C350.583 409.202 350.815 409.632 350.996 410.087C351.385 411.027 351.702 411.958 351.948 412.862C352.443 414.67 352.683 416.351 352.779 417.771C352.963 420.619 352.677 422.399 352.848 422.423" fill="#17282F"/>
<path d="M352.769 421.784C352.798 421.669 351.281 421.147 348.714 421.128C347.436 421.126 345.902 421.262 344.252 421.677C343.438 421.896 342.563 422.106 341.684 422.623C340.822 423.061 339.92 424.254 340.264 425.496C340.531 426.664 341.534 427.484 342.528 427.742C343.528 428.02 344.499 427.92 345.348 427.733C347.075 427.338 348.416 426.486 349.433 425.724C351.448 424.145 352.433 422.934 352.358 422.845C352.245 422.713 351.055 423.747 349.005 425.115C347.977 425.772 346.687 426.484 345.152 426.786C344.386 426.93 343.563 426.975 342.818 426.751C342.077 426.55 341.463 425.984 341.287 425.258C341.106 424.555 341.534 423.912 342.221 423.501C342.895 423.085 343.728 422.845 344.503 422.613C346.058 422.168 347.512 421.965 348.741 421.872C351.201 421.701 352.744 421.953 352.769 421.784" fill="#17282F"/>
<path d="M374.098 435.838C374.408 435.803 374.101 433.115 375.337 430.167C376.514 427.194 378.613 425.488 378.416 425.245C378.312 424.987 375.683 426.478 374.362 429.769C373.006 433.044 373.844 435.95 374.098 435.838" fill="#17282F"/>
<path d="M330.224 438.74C330.197 438.806 331.061 439.21 332.655 439.885C334.271 440.494 336.636 441.348 339.652 442.054C345.667 443.568 354.24 444.428 363.657 444.328C373.08 444.224 381.57 443.795 387.728 443.549C390.643 443.395 393.087 443.265 395.015 443.163C396.735 443.048 397.685 442.951 397.683 442.877C397.681 442.804 396.727 442.764 395.002 442.754C393.071 442.768 390.624 442.785 387.707 442.804C381.338 442.931 372.94 443.094 363.653 443.274C354.278 443.374 345.807 442.639 339.818 441.328C333.807 440.091 330.297 438.546 330.224 438.74" fill="#17282F"/>
<path d="M328.367 440.173C328.451 440.317 330.171 439.313 333.076 438.04C335.947 436.807 340.25 435.331 344.975 436.063C349.713 436.788 353.072 439.97 355.258 442.178C357.463 444.466 358.756 445.986 358.883 445.881C358.977 445.802 357.904 444.132 355.805 441.674C354.745 440.459 353.398 439.051 351.636 437.776C349.894 436.496 347.65 435.406 345.14 435.022C340.072 434.245 335.606 435.94 332.764 437.363C329.877 438.842 328.302 440.07 328.367 440.173" fill="#17282F"/>
<path d="M263.829 396.577C263.829 396.577 204.33 435.533 202.196 437.145C198.993 439.567 202.668 451.095 208.218 449.099C210.844 448.153 260.77 434.266 266.137 432.176C271.507 430.086 285.958 418.307 285.958 418.307L263.829 396.577" fill="#AE57F2"/>
<path d="M246.159 427.39C246.418 427.336 245.363 423.903 242.177 421.022C239.02 418.111 235.506 417.37 235.476 417.635C235.364 417.934 238.519 419.067 241.469 421.8C244.455 424.487 245.871 427.526 246.159 427.39" fill="#17282F"/>
<path d="M251.502 422.567C251.753 422.472 250.602 419.48 247.874 416.716C245.167 413.929 242.202 412.718 242.098 412.966C241.948 413.24 244.554 414.805 247.122 417.451C249.715 420.074 251.223 422.713 251.502 422.567Z" fill="#17282F"/>
<path d="M256.861 419.13C257.132 419.138 256.834 415.727 254.261 412.584C251.718 409.415 248.442 408.419 248.394 408.686C248.254 408.97 251.104 410.313 253.443 413.248C255.829 416.142 256.554 419.207 256.861 419.13" fill="#17282F"/>
<path d="M253.329 411.732C253.486 411.655 252.672 410.047 251.983 407.28C251.646 405.896 251.362 404.22 251.285 402.348C251.245 401.413 251.264 400.428 251.35 399.415C251.381 398.928 251.473 398.446 251.673 398.16C251.862 397.895 252.125 397.828 252.486 397.973C253.166 398.244 253.519 399.399 253.839 400.312C254.142 401.263 254.332 402.219 254.423 403.14C254.607 404.988 254.471 406.684 254.271 408.093C253.855 410.92 253.296 412.636 253.463 412.685C253.569 412.726 254.382 411.098 255.004 408.224C255.303 406.788 255.528 405.026 255.388 403.054C255.319 402.073 255.136 401.04 254.824 400.006C254.67 399.48 254.478 398.977 254.24 398.448C253.993 397.93 253.605 397.31 252.903 397.006C252.262 396.661 251.212 396.882 250.813 397.561C250.41 398.179 250.364 398.799 250.321 399.336C250.247 400.398 250.249 401.426 250.316 402.401C250.45 404.349 250.824 406.078 251.266 407.479C252.168 410.289 253.231 411.791 253.329 411.732" fill="#17282F"/>
<path d="M253.211 411.098C253.288 411.25 254.681 410.544 257.078 409.959C258.275 409.675 259.722 409.427 261.34 409.377C262.148 409.361 263.014 409.339 263.783 409.531C264.562 409.713 265.165 410.194 265.205 410.92C265.259 411.664 264.844 412.39 264.202 412.808C263.561 413.248 262.762 413.453 261.989 413.548C260.434 413.73 258.989 413.442 257.807 413.127C255.441 412.448 253.992 411.824 253.929 411.985C253.882 412.091 255.187 412.946 257.586 413.841C258.788 414.255 260.325 414.658 262.089 414.512C262.956 414.432 263.91 414.234 264.777 413.662C265.647 413.117 266.353 412.033 266.255 410.835C266.203 409.55 264.983 408.686 264.029 408.531C263.033 408.306 262.137 408.371 261.292 408.408C259.596 408.515 258.093 408.853 256.876 409.243C254.437 410.039 253.149 410.997 253.211 411.098" fill="#17282F"/>
<path d="M215.798 446.924C215.865 447.019 216.798 446.322 217.253 444.62C217.752 442.956 217.439 440.399 216.14 438.162C215.518 437.032 214.804 436.054 214.146 435.191C213.497 434.327 212.822 433.547 212.127 433.027C211.438 432.489 210.718 432.247 210.225 432.23C209.728 432.209 209.473 432.329 209.481 432.391C209.482 432.554 210.544 432.474 211.645 433.593C212.204 434.124 212.758 434.871 213.361 435.761C213.971 436.646 214.635 437.611 215.217 438.668C216.422 440.766 216.781 442.937 216.524 444.469C216.309 446.009 215.658 446.823 215.798 446.924" fill="#17282F"/>
<path d="M237.159 430.965C237.433 430.994 237.351 427.973 235.063 425.265C232.806 422.531 229.849 421.909 229.826 422.184C229.713 422.477 232.231 423.463 234.255 425.939C236.328 428.373 236.852 431.026 237.159 430.965" fill="#17282F"/>
<path d="M279.84 420.406C279.788 420.345 278.878 421.016 277.224 422.202C275.55 423.358 273.092 424.981 269.889 426.697C266.688 428.415 262.738 430.197 258.238 431.883C253.73 433.564 248.679 435.147 243.334 436.698C232.631 439.778 222.94 442.597 215.948 444.7C212.596 445.729 209.813 446.583 207.681 447.238C205.735 447.859 204.67 448.236 204.689 448.307C204.71 448.377 205.813 448.134 207.794 447.631C209.949 447.061 212.763 446.314 216.154 445.416C223.199 443.496 232.915 440.792 243.63 437.707C248.984 436.155 254.058 434.535 258.582 432.79C263.101 431.04 267.062 429.169 270.248 427.35C273.439 425.53 275.859 423.798 277.47 422.531C279.059 421.234 279.882 420.456 279.84 420.406" fill="#17282F"/>
<path d="M282.046 421.207C282.076 421.09 280.201 420.396 277.004 419.867C273.865 419.372 269.094 419.117 264.501 421.395C262.225 422.523 260.419 424.241 259.149 425.991C257.857 427.742 257.001 429.491 256.36 430.971C255.105 433.949 254.591 435.867 254.706 435.91C254.86 435.976 255.629 434.138 257.034 431.286C258.446 428.517 260.68 424.465 264.975 422.333C269.253 420.203 273.801 420.305 276.912 420.604C280.065 420.936 282.009 421.372 282.046 421.207Z" fill="#17282F"/>
<path d="M387.515 299.155C387.515 299.155 405.364 305.528 405.437 325.542C405.581 363.878 327.978 406.138 327.978 406.138L224.706 337.712L218.233 335.09C218.233 335.09 357.642 282.723 387.515 299.155Z" fill="#171F2F"/>
<path d="M277.019 372.271C277.063 372.331 278.017 371.678 279.707 370.446C281.4 369.221 283.816 367.399 286.772 365.115C292.684 360.543 300.729 354.066 309.383 346.639C318.036 339.205 325.657 332.23 331.069 327.078C333.775 324.502 335.939 322.39 337.409 320.904C338.879 319.416 339.668 318.572 339.618 318.521C339.57 318.466 338.684 319.213 337.127 320.605C335.44 322.129 333.23 324.124 330.564 326.531C325.027 331.541 317.339 338.418 308.697 345.841C300.056 353.257 292.097 359.816 286.309 364.531C283.524 366.803 281.218 368.686 279.456 370.124C277.844 371.454 276.973 372.213 277.019 372.271" fill="#333F5F"/>
<path d="M358.361 313.484C358.399 313.227 353.793 312.774 348.408 314.387C343.01 315.958 339.388 318.839 339.561 319.032C339.73 319.307 343.495 316.908 348.705 315.398C353.899 313.836 358.363 313.806 358.361 313.484Z" fill="#333F5F"/>
<path d="M349.464 307.441C349.372 307.192 346.06 308.648 343.342 312.047C340.592 315.421 339.867 318.963 340.13 319.002C340.431 319.106 341.559 315.889 344.16 312.708C346.722 309.494 349.631 307.714 349.464 307.441" fill="#333F5F"/>
<path d="M393.192 428.829C393.246 428.71 391.958 428.461 390.529 429.637C389.124 430.76 387.93 433.009 387.546 435.631C387.155 438.273 387.744 440.699 388.487 442.24C389.218 443.81 390.022 444.547 390.11 444.47C390.254 444.374 389.688 443.503 389.176 441.964C388.652 440.444 388.231 438.201 388.586 435.779C388.94 433.37 389.928 431.287 391.029 430.188C392.123 429.041 393.213 428.996 393.192 428.829Z" fill="#17282F"/>
<path d="M380.13 244.701L350.752 323.846C349.072 328.366 344.731 331.344 339.909 331.28L178.185 329.152V316.862L238.195 319.054L263.676 240.053C264.535 237.384 267.024 235.578 269.83 235.586L374.152 235.887C378.69 235.9 381.795 240.477 380.13 244.701" fill="#C1D3FC"/>
<path d="M308.417 274.628C310.513 273.206 314.391 273.776 316.278 275.467C318.164 277.16 318.777 280.086 317.817 282.431C316.859 284.778 314.441 286.421 311.912 286.557C309.223 286.701 306.421 285.018 305.669 282.435C304.917 279.85 305.75 275.991 308.417 274.628Z" fill="#3749AD"/>
<path d="M345.391 410.446C345.391 410.446 199.642 317.089 193.209 313.427C187.735 310.31 173.093 301.296 158.653 305.279C144.216 309.262 131.269 322.207 124.798 341.128C121.1 351.936 119.351 370.379 118.534 384.208C117.553 400.745 122.673 417.232 133.49 429.779C138.412 435.489 144.482 440.456 151.683 442.695C153.203 443.169 154.778 443.578 156.398 443.927C183.985 449.907 212.337 437.525 227.835 413.931L231.24 408.751C231.24 408.751 326.689 443.818 328.182 443.321L345.391 410.446" fill="#171F2F"/>
<path d="M200.732 318.599C200.722 318.609 200.599 318.535 200.367 318.384C200.095 318.2 199.761 317.968 199.348 317.688C198.456 317.071 197.141 316.157 195.408 315.047C191.95 312.842 186.83 309.696 179.93 307.182C176.484 305.956 172.555 304.961 168.272 304.724C163.996 304.543 159.369 305.18 154.863 306.913C150.349 308.606 145.966 311.299 141.98 314.728C139.984 316.44 138.057 318.321 136.259 320.347C134.482 322.383 132.912 324.662 131.526 327.079C128.755 331.927 126.707 337.034 125.237 342.096C123.865 347.178 122.766 352.202 121.718 356.947C119.639 366.456 118.517 375.169 118.363 382.517C118.246 389.87 118.987 395.803 119.689 399.851C120.008 401.885 120.371 403.443 120.589 404.504C120.685 404.994 120.764 405.393 120.827 405.715C120.875 405.992 120.894 406.134 120.879 406.138C120.866 406.142 120.818 406.005 120.741 405.738C120.655 405.42 120.549 405.028 120.419 404.546C120.144 403.495 119.728 401.944 119.355 399.914C118.549 395.868 117.711 389.913 117.749 382.509C117.824 375.111 118.893 366.33 120.935 356.782C121.967 352.003 123.038 347.021 124.42 341.861C125.896 336.736 127.959 331.57 130.774 326.646C132.183 324.189 133.781 321.868 135.608 319.778C137.447 317.711 139.395 315.816 141.427 314.079C145.484 310.605 149.96 307.873 154.583 306.163C159.196 304.413 163.936 303.787 168.308 304.004C172.688 304.281 176.668 305.327 180.14 306.606C187.089 309.222 192.18 312.465 195.596 314.766C197.304 315.924 198.59 316.883 199.45 317.547C199.843 317.856 200.162 318.11 200.421 318.313C200.636 318.49 200.741 318.586 200.732 318.599" fill="#333F5F"/>
<path d="M164.875 384.102C164.875 384.102 165.14 384.239 165.675 384.457C166.253 384.686 167.045 385.001 168.064 385.403C170.218 386.234 173.323 387.43 177.315 388.967C185.431 392.023 197.137 396.433 211.692 401.917C226.296 407.364 243.785 413.841 263.41 420.984C283.039 428.117 304.788 435.949 328.015 443.816L328.439 443.958L328.647 443.562C332.293 436.598 336.139 429.25 340.046 421.792C342.036 417.99 344.011 414.215 345.855 410.69L346.08 410.262L345.675 410.005C301.862 382.191 262.664 357.308 234.376 339.352C220.251 330.442 208.851 323.253 200.943 318.265C197.026 315.818 193.976 313.916 191.863 312.598C190.85 311.976 190.063 311.496 189.491 311.149C188.956 310.827 188.668 310.684 188.668 310.684C188.668 310.684 188.92 310.884 189.438 311.235C189.994 311.604 190.764 312.115 191.754 312.769C193.842 314.125 196.859 316.083 200.732 318.599C208.6 323.652 219.938 330.935 233.988 339.96C262.23 357.987 301.365 382.968 345.105 410.888L344.927 410.204C343.08 413.727 341.104 417.503 339.114 421.304C335.212 428.762 331.366 436.112 327.722 443.079L328.349 442.825C305.134 434.98 283.373 427.188 263.727 420.111C244.115 412.972 226.594 406.596 211.934 401.261C197.333 395.905 185.588 391.597 177.447 388.61C173.428 387.146 170.3 386.01 168.132 385.219C167.099 384.854 166.295 384.57 165.712 384.363C165.165 384.175 164.875 384.102 164.875 384.102" fill="#333F5F"/>
<path d="M172.421 74.3948C169.877 69.3936 167.313 64.3406 165.944 58.898C164.576 53.4573 164.488 47.5176 166.808 42.4108C168.165 39.4227 170.299 36.8051 171.364 33.7019C172.83 29.4318 172.229 24.3941 174.874 20.7363C179.004 15.0154 187.845 16.3492 194.234 13.3534C199.208 11.0217 202.686 5.98976 207.917 4.31245C212.489 2.84624 217.473 4.25296 221.887 6.14137C226.301 8.03171 230.603 10.4364 235.365 11.062C238.758 11.5053 242.199 11.0159 245.62 11.0889C249.042 11.1599 252.677 11.9179 255.085 14.3494C257.492 16.7829 258.001 21.2698 255.391 23.4864C261.376 22.4712 267.017 28.4454 266.938 34.5175C266.861 40.5877 262.286 45.9324 256.765 48.4579C251.243 50.9816 244.939 51.1466 238.886 50.6765C221.748 49.3427 204.53 42.8273 192.864 30.2033" fill="#17282F"/>
<path d="M176.113 52.9507L164.439 137.805C162.453 152.232 172.946 165.388 187.457 166.659C200.996 167.845 213.087 158.178 214.925 144.71C215.798 138.321 216.539 132.997 216.672 132.345C216.672 132.345 238.551 133.285 243.054 112.121C245.228 101.894 247.994 80.4613 250.272 61.0436C252.716 40.1905 238.711 20.9609 218.122 16.8482L216.075 16.4376C193.742 13.3171 178.615 30.5412 176.113 52.9507Z" fill="#F8A58D"/>
<path d="M216.768 132.047C216.768 132.047 203.142 130.456 190.678 118.657C190.678 118.657 194.165 135.235 215.718 137.555L216.768 132.047Z" fill="#F68260"/>
<path d="M240.757 79.0832C240.495 80.6934 238.913 81.7988 237.224 81.5551C235.539 81.3113 234.384 79.8125 234.647 78.1985C234.91 76.5884 236.491 75.4811 238.176 75.7229C239.865 75.9666 241.02 77.4712 240.757 79.0832Z" fill="#17282F"/>
<path d="M243.633 70.547C243.178 70.8675 241.222 68.7085 237.96 68.0656C234.711 67.3766 231.983 68.5761 231.709 68.1059C231.571 67.8948 232.097 67.2577 233.288 66.7088C234.465 66.158 236.361 65.7723 238.391 66.1868C240.42 66.6033 241.978 67.6914 242.809 68.6529C243.658 69.6239 243.855 70.405 243.633 70.547" fill="#17282F"/>
<path d="M210.347 73.8346C210.084 75.4428 208.503 76.5501 206.816 76.3064C205.131 76.0627 203.974 74.5619 204.237 72.9499C204.502 71.3397 206.083 70.2324 207.768 70.4761C209.455 70.7179 210.61 72.2225 210.347 73.8346Z" fill="#17282F"/>
<path d="M211.462 64.7514C211.007 65.0699 209.047 62.9129 205.789 62.27C202.538 61.5829 199.811 62.7804 199.536 62.3122C199.398 62.0991 199.92 61.462 201.118 60.9131C202.294 60.3623 204.19 59.9766 206.219 60.3911C208.247 60.8076 209.805 61.8976 210.636 62.8591C211.481 63.8283 211.68 64.6113 211.462 64.7514" fill="#17282F"/>
<path d="M218.465 91.2947C218.486 91.1086 220.584 91.1623 223.95 91.3984C224.8 91.479 225.622 91.4713 225.875 90.9301C226.192 90.3678 226.023 89.4006 225.813 88.3508C225.432 86.1803 225.034 83.9061 224.618 81.5187C223 71.8099 222.01 63.8935 222.401 63.8321C222.793 63.7688 224.42 71.5911 226.034 81.3C226.414 83.6893 226.777 85.9692 227.12 88.1493C227.245 89.1587 227.573 90.339 226.9 91.5039C226.55 92.0796 225.85 92.4097 225.286 92.4462C224.72 92.5018 224.249 92.4174 223.833 92.3617C220.494 91.8781 218.44 91.4828 218.465 91.2947" fill="#17282F"/>
<path d="M208.418 91.6343C208.953 91.7092 208.253 95.25 210.78 98.3666C213.3 101.491 217.152 101.848 217.081 102.347C217.087 102.579 216.104 102.867 214.503 102.593C212.93 102.333 210.75 101.376 209.203 99.4701C207.664 97.5587 207.278 95.3459 207.449 93.8701C207.608 92.3636 208.18 91.5653 208.418 91.6343" fill="#17282F"/>
<path d="M214.856 52.1409C214.357 52.9642 211.187 51.8933 207.27 51.5901C203.357 51.2063 200.048 51.711 199.701 50.8148C199.549 50.3887 200.253 49.6633 201.672 49.053C203.08 48.4427 205.216 48.0224 207.563 48.2259C209.909 48.4331 211.939 49.2181 213.219 50.0644C214.511 50.9088 215.079 51.7494 214.856 52.1409" fill="#17282F"/>
<path d="M244.32 60.871C243.598 61.4966 241.506 60.278 238.814 59.7023C236.138 59.0344 233.726 59.2033 233.354 58.3243C233.198 57.9021 233.705 57.2323 234.845 56.7295C235.97 56.2306 237.731 55.9888 239.576 56.4129C241.42 56.8447 242.894 57.8369 243.682 58.783C244.485 59.7349 244.646 60.5601 244.32 60.871" fill="#17282F"/>
<path d="M174.709 69.008C174.377 68.7797 160.991 61.7826 158.556 76.3813C156.122 90.9781 171.279 90.412 171.373 89.9974C171.469 89.5829 174.709 69.008 174.709 69.008Z" fill="#F8A58D"/>
<path d="M167.838 83.7237C167.78 83.6662 167.554 83.8581 167.09 83.9847C166.64 84.1056 165.896 84.1191 165.184 83.7064C163.735 82.8812 162.846 80.2175 163.213 77.5749C163.397 76.2392 163.888 75.0224 164.531 74.0533C165.157 73.0592 165.971 72.4278 166.771 72.4201C167.573 72.3702 168.045 72.9268 168.155 73.3662C168.283 73.8076 168.141 74.0821 168.214 74.1224C168.249 74.1646 168.569 73.9285 168.552 73.3068C168.54 73.0074 168.427 72.6351 168.13 72.2973C167.828 71.9519 167.335 71.7215 166.786 71.6889C165.648 71.5815 164.46 72.447 163.752 73.5102C162.979 74.5676 162.399 75.9321 162.192 77.4329C161.795 80.3902 162.841 83.3936 164.85 84.3551C165.833 84.7927 166.74 84.6276 167.241 84.357C167.752 84.0711 167.884 83.7564 167.838 83.7237" fill="#F68260"/>
<path d="M254.475 41.3364C251.969 46.731 239.09 48.8132 229.647 45.9653C220.942 43.338 217.785 37.8129 212.247 32.9959C208.743 29.9464 208.743 29.9464 203.025 29.3572C198.404 28.8793 194.695 33.4814 191.2 36.5443C193.146 48.1454 187.987 59.6313 182.959 70.2652C182.403 71.4416 181.767 72.7005 180.601 73.2763C178.62 74.2512 176.258 72.7082 175.075 70.8447C173.181 67.8586 172.961 64.1336 173.03 60.5986C173.189 52.5498 174.603 44.4568 177.872 37.0989C181.14 29.741 186.335 23.1393 193.132 18.8232C201.626 13.4324 212.329 11.8932 222.165 14.0158C232 16.1402 240.932 21.7767 247.618 29.2958C250.719 32.7829 253.42 36.79 254.475 41.3364" fill="#17282F"/>
<path d="M224.777 76.6248C224.901 76.6325 224.857 75.3659 225.441 73.2318C226.018 71.1381 227.452 68.079 230.609 65.7281C233.658 63.3733 238.677 62.0587 243.528 63.8684C245.916 64.7359 248.194 66.3671 249.812 68.6183C251.474 70.8387 252.408 73.6847 252.437 76.6229C252.41 79.5611 251.475 82.4071 249.812 84.6314C248.196 86.8806 245.918 88.5138 243.528 89.3793C238.675 91.1909 233.658 89.8763 230.607 87.5197C227.45 85.1707 226.018 82.1116 225.441 80.0159C224.857 77.8838 224.901 76.6191 224.777 76.6248C224.736 76.6248 224.711 76.9357 224.702 77.5326C224.683 78.1275 224.752 79.016 224.995 80.1291C225.452 82.3227 226.821 85.6006 230.1 88.1837C233.269 90.7687 238.631 92.3002 243.899 90.4022C246.492 89.4944 248.973 87.748 250.742 85.3146C252.56 82.9157 253.59 79.8144 253.615 76.6229C253.59 73.4333 252.56 70.332 250.742 67.9331C248.973 65.5016 246.492 63.7571 243.899 62.8475C238.633 60.9495 233.269 62.4809 230.102 65.064C226.823 67.6472 225.454 70.925 224.995 73.1186C224.752 74.2336 224.683 75.1202 224.702 75.7171C224.711 76.3158 224.736 76.6248 224.777 76.6248Z" fill="#17282F"/>
<path d="M190.151 70.5778C190.277 70.5855 190.233 69.3207 190.815 67.1867C191.392 65.091 192.826 62.0319 195.983 59.6829C199.034 57.3263 204.051 56.0117 208.902 57.8233C211.292 58.6888 213.57 60.322 215.185 62.5712C216.849 64.7935 217.784 67.6396 217.811 70.5759C217.784 73.5159 216.849 76.362 215.187 78.5843C213.57 80.8355 211.292 82.4686 208.902 83.3342C204.051 85.1439 199.034 83.8312 195.983 81.4745C192.826 79.1236 191.392 76.0645 190.815 73.9708C190.233 71.8367 190.277 70.5701 190.151 70.5778C190.11 70.5778 190.085 70.8887 190.078 71.4855C190.058 72.0804 190.126 72.969 190.369 74.0821C190.828 76.2775 192.196 79.5554 195.476 82.1386C198.643 84.7217 204.007 86.2531 209.273 84.3551C211.867 83.4474 214.349 81.701 216.118 79.2695C217.936 76.8686 218.966 73.7654 218.991 70.5759C218.964 67.3863 217.934 64.2869 216.116 61.8861C214.349 59.4546 211.867 57.7082 209.273 56.8023C204.007 54.9024 198.645 56.4339 195.476 59.0189C192.196 61.602 190.828 64.8799 190.369 67.0735C190.126 68.1866 190.058 69.0751 190.078 69.6719C190.085 70.2688 190.11 70.5778 190.151 70.5778" fill="#17282F"/>
<path d="M218.677 71.0691C218.823 71.3627 220.679 70.4952 222.838 71.1573C225.002 71.7964 226.071 73.5447 226.357 73.3797C226.494 73.3144 226.426 72.7598 225.939 72.0248C225.463 71.2974 224.503 70.4262 223.177 70.027C221.851 69.6278 220.571 69.8274 219.773 70.1709C218.961 70.5145 218.596 70.9405 218.677 71.0691" fill="#17282F"/>
<path d="M170.532 66.8395C170.536 67.1657 175.192 67.3634 180.928 67.2809C186.668 67.2003 191.315 66.8721 191.311 66.5478C191.305 66.2215 186.651 66.0219 180.913 66.1025C175.175 66.1831 170.527 66.5132 170.532 66.8395Z" fill="#17282F"/>
<path d="M52.6585 333.122C57.4421 330.655 63.0325 330.332 68.3925 331.208C71.2511 331.681 74.225 332.534 76.1615 334.666C78.098 336.799 78.4668 340.579 76.2422 342.424C74.8023 343.393 73.0711 343.833 71.3433 343.669C67.1822 343.669 62.5715 342.885 59.2518 345.386C57.3499 346.815 56.0935 349.19 53.8227 349.893C52.6883 350.157 51.4986 350.045 50.4337 349.573C49.3689 349.101 48.4868 348.295 47.921 347.276C46.8371 345.195 46.5977 342.775 47.2524 340.522C47.5208 338.955 48.1485 337.471 49.0865 336.187C50.0244 334.903 51.247 333.854 52.6585 333.122V333.122Z" fill="#C1E0FC"/>
<path d="M41.697 311.947C44.6248 316.12 50.3075 314.736 52.9471 312.189C55.5868 309.642 56.7049 305.942 57.7192 302.414C60.0246 294.346 62.3299 285.908 60.647 277.712C60.2321 275.225 59.1393 272.899 57.4887 270.992C56.6611 270.043 55.5971 269.33 54.4047 268.925C53.2122 268.52 51.9339 268.438 50.6994 268.687C47.8293 269.436 46.0887 272.249 44.7516 274.923C40.9732 282.815 39.0042 291.451 38.9883 300.201C38.9883 304.27 39.4493 308.535 41.7432 311.901" fill="#C1E0FC"/>
<path d="M33.6634 317.952C36.8448 314.183 37.4442 308.731 36.0264 303.959C34.4272 299.263 31.5586 295.102 27.7387 291.936C23.4135 288.064 18.3744 285.073 12.9038 283.13C10.7881 282.27 8.5115 281.877 6.22979 281.977C5.09025 282.056 3.98729 282.413 3.01695 283.015C2.04661 283.618 1.2383 284.449 0.662377 285.435C-0.905259 288.409 0.593215 292.029 2.21848 294.98C5.06977 300.176 8.33063 305.136 11.9701 309.814C14.8864 313.584 18.2291 317.307 22.69 319.036C27.1508 320.765 31.7846 320.511 34.0899 317.422" fill="#C1E0FC"/>
<path d="M41.5013 374.998C41.6536 374.375 41.7424 373.738 41.7664 373.096C41.9047 371.713 42.0661 369.972 42.2736 367.909C42.5251 365.359 42.9099 362.823 43.4263 360.313C44.0997 357.253 45.025 354.253 46.1927 351.345C47.3395 348.433 48.8917 345.697 50.8034 343.219C52.3439 341.209 54.3126 339.567 56.5667 338.412C58.1055 337.651 59.755 337.137 61.4541 336.891C62.0923 336.867 62.7261 336.774 63.3445 336.614C62.7047 336.544 62.0592 336.544 61.4195 336.614C59.657 336.748 57.9322 337.193 56.3247 337.928C53.944 339.063 51.8543 340.726 50.2155 342.792C48.2312 345.301 46.6307 348.09 45.4665 351.069C44.2938 354.023 43.3798 357.074 42.7347 360.186C42.2418 362.73 41.9031 365.301 41.7203 367.886C41.5589 370.088 41.4898 371.863 41.4667 373.096C41.4063 373.729 41.4179 374.368 41.5013 374.998V374.998Z" fill="#C1E0FC"/>
<path d="M41.8582 371.01C41.8926 370.715 41.8926 370.417 41.8582 370.122V367.61C41.8582 365.42 41.8582 362.25 41.9734 358.388C42.1579 350.573 42.8379 342.17 44.1289 330.309C45.3623 319.163 47.0222 306.184 48.7396 297.746C49.1085 295.833 49.4889 294.104 49.8923 292.594C50.2957 291.084 50.5148 289.77 50.7914 288.709C51.068 287.649 51.2294 286.911 51.3793 286.265C51.4631 285.98 51.5172 285.686 51.5406 285.389C51.3981 285.65 51.2933 285.929 51.2294 286.219C51.0335 286.853 50.7914 287.649 50.5032 288.628C50.2151 289.608 49.8462 290.934 49.4658 292.49C49.0854 294.046 48.6474 295.717 48.244 297.631C46.0831 307.607 44.4593 317.692 43.3797 327.842C42.0772 339.726 41.4893 350.55 41.4432 358.388C41.3856 362.296 41.4432 365.466 41.57 367.61C41.6392 368.635 41.6853 369.465 41.7314 370.134C41.7442 370.429 41.7867 370.723 41.8582 371.01V371.01Z" fill="#C1E0FC"/>
<path d="M41.9161 350.135C41.9741 349.26 41.9741 348.382 41.9161 347.507C41.8239 345.813 41.5819 343.369 41.1093 340.372C40.5355 336.873 39.7658 333.41 38.8039 329.998C37.6574 325.797 36.1932 321.689 34.4238 317.71C31.4094 310.368 27.0858 303.635 21.6637 297.838C20.7254 296.845 19.7243 295.914 18.6667 295.049C18.2056 294.657 17.7907 294.276 17.3757 293.965L16.223 293.158C15.5254 292.626 14.7852 292.152 14.0099 291.741C16.5615 293.748 18.9867 295.912 21.2718 298.219C26.5171 304.062 30.7237 310.759 33.7091 318.022C35.4369 321.978 36.9002 326.044 38.0893 330.194C39.2419 334.009 39.9796 337.525 40.556 340.487C41.1323 343.45 41.409 345.87 41.6049 347.542C41.6335 348.413 41.7377 349.281 41.9161 350.135Z" fill="#C1E0FC"/>
<path d="M21.7443 386.951L23.8306 415.595H60.6355L62.7219 386.951H21.7443Z" fill="#C1E0FC"/>
<path d="M67.1137 375.655H18.1827V386.951H67.1137V375.655Z" fill="#C1E0FC"/>
<path d="M62.0421 396.311C62.0421 396.311 62.0421 396.403 61.8692 396.576L61.3159 397.302C60.7972 397.971 60.0826 398.893 59.172 400.046L59.0797 400.173L58.9875 400.046L53.6852 392.761H53.9849C52.4288 394.974 50.6767 397.441 48.8094 400.103L48.6365 400.334L48.4636 400.115L42.3083 392.795H42.6657L42.3314 393.222C40.418 395.608 38.5737 397.925 36.8331 400.138L36.6487 400.369L36.4758 400.126L31.2888 392.784H31.5885L25.2027 400.069L25.0874 400.196L24.9952 400.046L23.0011 396.691L22.4823 395.792C22.3671 395.585 22.321 395.481 22.3325 395.47C22.4124 395.557 22.482 395.654 22.54 395.758L23.1163 396.622L25.2142 399.919H25.0067L31.3003 392.542L31.4617 392.357L31.6 392.565C33.1907 394.778 34.9543 397.233 36.8331 399.873H36.4873L41.9625 392.957L42.3083 392.53L42.4812 392.311L42.6657 392.53L48.7979 399.861H48.4521L53.6852 392.542L53.8351 392.323L53.9849 392.542L59.1489 399.907H58.9875C59.9327 398.755 60.682 397.89 61.2237 397.233L61.8231 396.542C61.9614 396.38 62.0306 396.3 62.0421 396.311Z" fill="#C1E0FC"/>
<path d="M63.2403 386.755C63.2403 386.882 54.0189 386.986 42.642 386.986C31.2651 386.986 22.0437 386.882 22.0437 386.755C22.0437 386.629 31.2651 386.525 42.642 386.525C54.0189 386.525 63.2403 386.629 63.2403 386.755Z" fill="#C1E0FC"/>
</svg>
