<svg width="135" height="49" viewBox="0 0 135 49" fill="none" xmlns="http://www.w3.org/2000/svg">
<path d="M3.30798 42.3551C3.82531 42.3551 4.29731 42.4671 4.72398 42.6911C5.15065 42.9151 5.47865 43.2218 5.70798 43.6111L4.74798 44.1991C4.58531 43.9538 4.37998 43.7644 4.13198 43.6311C3.88665 43.4951 3.60931 43.4271 3.29998 43.4271C2.79065 43.4271 2.36798 43.5978 2.03198 43.9391C1.69865 44.2804 1.53198 44.7204 1.53198 45.2591C1.53198 45.8084 1.69998 46.2511 2.03598 46.5871C2.37198 46.9231 2.79331 47.0911 3.29998 47.0911C3.92398 47.0911 4.41065 46.8351 4.75998 46.3231L5.67198 46.9791C5.41598 47.3498 5.08398 47.6404 4.67598 47.8511C4.26798 48.0591 3.81198 48.1631 3.30798 48.1631C2.88131 48.1631 2.48531 48.0911 2.11998 47.9471C1.75465 47.8004 1.44398 47.5991 1.18798 47.3431C0.931981 47.0871 0.730648 46.7804 0.583981 46.4231C0.439981 46.0631 0.367981 45.6751 0.367981 45.2591C0.367981 44.8431 0.439981 44.4564 0.583981 44.0991C0.730648 43.7391 0.931981 43.4311 1.18798 43.1751C1.44398 42.9191 1.75465 42.7191 2.11998 42.5751C2.48531 42.4284 2.88131 42.3551 3.30798 42.3551Z" fill="white"/>
<path d="M9.27786 42.3551C9.84319 42.3551 10.3499 42.4804 10.7979 42.7311C11.2485 42.9791 11.5979 43.3244 11.8459 43.7671C12.0965 44.2098 12.2219 44.7071 12.2219 45.2591C12.2219 45.8111 12.0965 46.3084 11.8459 46.7511C11.5979 47.1938 11.2485 47.5404 10.7979 47.7911C10.3499 48.0391 9.84319 48.1631 9.27786 48.1631C8.85119 48.1631 8.45519 48.0898 8.08986 47.9431C7.72452 47.7964 7.41386 47.5964 7.15786 47.3431C6.90186 47.0871 6.70052 46.7791 6.55386 46.4191C6.40986 46.0591 6.33786 45.6724 6.33786 45.2591C6.33786 44.8458 6.40986 44.4591 6.55386 44.0991C6.70052 43.7391 6.90186 43.4324 7.15786 43.1791C7.41386 42.9231 7.72452 42.7218 8.08986 42.5751C8.45519 42.4284 8.85119 42.3551 9.27786 42.3551ZM9.27786 43.4271C8.76052 43.4271 8.33519 43.5978 8.00186 43.9391C7.66852 44.2778 7.50186 44.7178 7.50186 45.2591C7.50186 45.8004 7.66852 46.2418 8.00186 46.5831C8.33519 46.9218 8.76052 47.0911 9.27786 47.0911C9.79786 47.0911 10.2232 46.9218 10.5539 46.5831C10.8872 46.2418 11.0539 45.8004 11.0539 45.2591C11.0539 44.7178 10.8872 44.2778 10.5539 43.9391C10.2232 43.5978 9.79786 43.4271 9.27786 43.4271Z" fill="white"/>
<path d="M19.451 48.0591H18.335V43.8311L16.951 47.5191H15.771L14.387 43.8631V48.0591H13.271V42.4591H14.907L16.363 46.2391L17.815 42.4591H19.451V48.0591Z" fill="white"/>
<path d="M21.8882 46.0111V48.0591H20.7722V42.4591H23.0562C23.7148 42.4591 24.2202 42.6178 24.5722 42.9351C24.9268 43.2524 25.1042 43.6871 25.1042 44.2391C25.1042 44.7858 24.9268 45.2178 24.5722 45.5351C24.2202 45.8524 23.7175 46.0111 23.0642 46.0111H21.8882ZM21.8882 43.4871V44.9911H23.0362C23.6522 44.9911 23.9602 44.7404 23.9602 44.2391C23.9602 43.7378 23.6522 43.4871 23.0362 43.4871H21.8882Z" fill="white"/>
<path d="M28.4694 42.4591C29.1308 42.4591 29.6374 42.6084 29.9894 42.9071C30.3441 43.2031 30.5214 43.6218 30.5214 44.1631C30.5214 44.6244 30.3694 45.0018 30.0654 45.2951C29.7614 45.5884 29.3414 45.7618 28.8054 45.8151L30.5294 48.0591H29.1774L27.5454 45.8311H27.2174V48.0591H26.1014V42.4591H28.4694ZM27.2174 43.4871V44.8591H28.4494C29.0654 44.8591 29.3734 44.6271 29.3734 44.1631C29.3734 43.7124 29.0654 43.4871 28.4494 43.4871H27.2174Z" fill="white"/>
<path d="M36.7159 48.0591H35.5239L35.0359 46.7551H32.6479L32.1599 48.0591H30.9959L33.1759 42.4591H34.5359L36.7159 48.0591ZM33.0319 45.7271H34.6519L33.8439 43.5631L33.0319 45.7271Z" fill="white"/>
<path d="M41.9992 45.8511V48.0591H40.8832V45.8471L38.7272 42.4591H40.0392L41.4472 44.8351L42.8552 42.4591H44.1272L41.9992 45.8511Z" fill="white"/>
<path d="M49.4994 48.0591H48.1434L46.0394 42.4591H47.2274L48.8314 46.9271L50.4434 42.4591H51.6034L49.4994 48.0591Z" fill="white"/>
<path d="M56.5578 48.0591H52.3738V42.4591H56.5258V43.4831H53.4898V44.7231H56.3858V45.7471H53.4898V47.0351H56.5578V48.0591Z" fill="white"/>
<path d="M62.7579 48.0591H61.7099L58.8699 44.3191L58.8659 48.0591H57.7499V42.4591H58.7939L61.6379 46.1991V42.4591H62.7579V48.0591Z" fill="white"/>
<path d="M66.3872 42.4591C67.2618 42.4591 67.9645 42.7151 68.4952 43.2271C69.0285 43.7391 69.2952 44.4164 69.2952 45.2591C69.2952 46.1018 69.0285 46.7791 68.4952 47.2911C67.9645 47.8031 67.2618 48.0591 66.3872 48.0591H64.0792V42.4591H66.3872ZM65.1952 43.5031V47.0151H66.3752C66.9458 47.0151 67.3805 46.8551 67.6792 46.5351C67.9778 46.2124 68.1272 45.7871 68.1272 45.2591C68.1272 44.7258 67.9778 44.3004 67.6792 43.9831C67.3805 43.6631 66.9458 43.5031 66.3752 43.5031H65.1952Z" fill="white"/>
<path d="M73.0179 42.3551C73.5833 42.3551 74.0899 42.4804 74.5379 42.7311C74.9886 42.9791 75.3379 43.3244 75.5859 43.7671C75.8366 44.2098 75.9619 44.7071 75.9619 45.2591C75.9619 45.8111 75.8366 46.3084 75.5859 46.7511C75.3379 47.1938 74.9886 47.5404 74.5379 47.7911C74.0899 48.0391 73.5833 48.1631 73.0179 48.1631C72.5913 48.1631 72.1953 48.0898 71.8299 47.9431C71.4646 47.7964 71.1539 47.5964 70.8979 47.3431C70.6419 47.0871 70.4406 46.7791 70.2939 46.4191C70.1499 46.0591 70.0779 45.6724 70.0779 45.2591C70.0779 44.8458 70.1499 44.4591 70.2939 44.0991C70.4406 43.7391 70.6419 43.4324 70.8979 43.1791C71.1539 42.9231 71.4646 42.7218 71.8299 42.5751C72.1953 42.4284 72.5913 42.3551 73.0179 42.3551ZM73.0179 43.4271C72.5006 43.4271 72.0753 43.5978 71.7419 43.9391C71.4086 44.2778 71.2419 44.7178 71.2419 45.2591C71.2419 45.8004 71.4086 46.2418 71.7419 46.5831C72.0753 46.9218 72.5006 47.0911 73.0179 47.0911C73.5379 47.0911 73.9633 46.9218 74.2939 46.5831C74.6273 46.2418 74.7939 45.8004 74.7939 45.2591C74.7939 44.7178 74.6273 44.2778 74.2939 43.9391C73.9633 43.5978 73.5379 43.4271 73.0179 43.4271Z" fill="white"/>
<path d="M83.2197 48.0591H79.0357V42.4591H83.1877V43.4831H80.1517V44.7231H83.0477V45.7471H80.1517V47.0351H83.2197V48.0591Z" fill="white"/>
<path d="M89.4198 48.0591H88.3718L85.5318 44.3191L85.5278 48.0591H84.4118V42.4591H85.4558L88.2998 46.1991V42.4591H89.4198V48.0591Z" fill="white"/>
<path d="M95.5799 48.0591H94.2239L92.1199 42.4591H93.3079L94.9119 46.9271L96.5239 42.4591H97.6839L95.5799 48.0591Z" fill="white"/>
<path d="M99.5702 48.0591H98.4542V42.4591H99.5702V48.0591Z" fill="white"/>
<path d="M103.801 48.0591H102.445L100.341 42.4591H101.529L103.133 46.9271L104.745 42.4591H105.905L103.801 48.0591Z" fill="white"/>
<path d="M109.144 42.3551C109.709 42.3551 110.216 42.4804 110.664 42.7311C111.115 42.9791 111.464 43.3244 111.712 43.7671C111.963 44.2098 112.088 44.7071 112.088 45.2591C112.088 45.8111 111.963 46.3084 111.712 46.7511C111.464 47.1938 111.115 47.5404 110.664 47.7911C110.216 48.0391 109.709 48.1631 109.144 48.1631C108.717 48.1631 108.321 48.0898 107.956 47.9431C107.591 47.7964 107.28 47.5964 107.024 47.3431C106.768 47.0871 106.567 46.7791 106.42 46.4191C106.276 46.0591 106.204 45.6724 106.204 45.2591C106.204 44.8458 106.276 44.4591 106.42 44.0991C106.567 43.7391 106.768 43.4324 107.024 43.1791C107.28 42.9231 107.591 42.7218 107.956 42.5751C108.321 42.4284 108.717 42.3551 109.144 42.3551ZM109.144 43.4271C108.627 43.4271 108.201 43.5978 107.868 43.9391C107.535 44.2778 107.368 44.7178 107.368 45.2591C107.368 45.8004 107.535 46.2418 107.868 46.5831C108.201 46.9218 108.627 47.0911 109.144 47.0911C109.664 47.0911 110.089 46.9218 110.42 46.5831C110.753 46.2418 110.92 45.8004 110.92 45.2591C110.92 44.7178 110.753 44.2778 110.42 43.9391C110.089 43.5978 109.664 43.4271 109.144 43.4271Z" fill="white"/>
<path fill-rule="evenodd" clip-rule="evenodd" d="M73.0315 37.7681H80.8105L85.3699 16.3541H77.5909L73.0315 37.7681ZM82.7553 5.67944C81.502 5.67944 80.4504 6.10441 79.6005 6.95434C78.7649 7.78988 78.3472 8.83429 78.3472 10.0876C78.3472 11.3409 78.7649 12.3925 79.6005 13.2424C80.4504 14.078 81.502 14.4957 82.7553 14.4957C84.0086 14.4957 85.053 14.078 85.8885 13.2424C86.7385 12.3925 87.1634 11.3409 87.1634 10.0876C87.1634 8.83429 86.7385 7.78988 85.8885 6.95434C85.053 6.10441 84.0086 5.67944 82.7553 5.67944ZM19.9947 18.9039C17.9635 16.815 15.3345 15.7706 12.1076 15.7706C8.80868 15.7706 6.12922 16.8366 4.06921 18.9687C2.00919 21.0863 0.979187 23.845 0.979187 27.2448C0.979187 30.5581 2.0236 33.2375 4.11242 35.2831C6.21565 37.3143 8.98154 38.3299 12.4101 38.3299C14.4845 38.3299 16.3501 37.9986 18.0067 37.3359C19.6634 36.6733 21.0247 35.7657 22.0907 34.6133L16.8182 30.2051C15.6226 31.3576 14.2756 31.9338 12.7774 31.9338C10.7318 31.9338 9.44973 31.0695 8.93113 29.3408H22.9118C23.0127 28.6637 23.0631 27.9002 23.0631 27.0503C23.0631 23.7082 22.0403 20.9927 19.9947 18.9039ZM8.95273 24.6949C9.45693 23.0527 10.523 22.2316 12.1508 22.2316C13.7786 22.2316 14.8591 23.0527 15.3921 24.6949H8.95273ZM44.4657 17.9747C43.0395 16.5053 41.2028 15.7706 38.9555 15.7706C36.3049 15.7706 34.3745 16.6998 33.1644 18.5581V16.3541H25.8391V37.7681H33.5318V26.294C33.5318 25.1847 33.7767 24.3564 34.2664 23.809C34.7562 23.2472 35.4045 22.9663 36.2112 22.9663C37.0756 22.9663 37.7382 23.2472 38.1992 23.809C38.6746 24.3708 38.9123 25.1847 38.9123 26.2508V37.7681H46.6049V23.8306C46.6049 21.396 45.8918 19.4441 44.4657 17.9747ZM63.543 37.7681H54.8347L50.8588 16.3541H58.8323L60.561 29.4488L67.2164 16.3541H75.5789L63.543 37.7681ZM100.007 37.7681H91.2991L87.3232 16.3541H95.2967L97.0254 29.4488L103.681 16.3541H112.043L100.007 37.7681ZM120.732 38.3299C126.941 38.3299 130.715 35.1895 132.055 28.9086L134.735 16.3541H126.956L124.6 27.5473C124.082 29.9674 122.951 31.1775 121.208 31.1775C120.545 31.1775 120.026 30.9974 119.652 30.6373C119.277 30.2771 119.09 29.7585 119.09 29.0815C119.09 28.7646 119.119 28.4836 119.176 28.2387L121.726 16.3541H113.947L111.613 27.3312C111.383 28.3396 111.268 29.3048 111.268 30.2267C111.268 32.8486 112.125 34.8582 113.839 36.2555C115.553 37.6385 117.851 38.3299 120.732 38.3299ZM82.702 12.5463C84.107 12.5463 85.246 11.4073 85.246 10.0023C85.246 8.59725 84.107 7.45825 82.702 7.45825C81.297 7.45825 80.158 8.59725 80.158 10.0023C80.158 11.4073 81.297 12.5463 82.702 12.5463Z" fill="#FFEE52"/>
<path fill-rule="evenodd" clip-rule="evenodd" d="M81.335 2.34885C78.7137 2.89498 76.5456 5.06003 74.8797 7.38039L73.2551 6.21397C74.9854 3.80391 77.5343 1.09776 80.9271 0.390892C84.4281 -0.338526 88.4207 1.12498 92.8363 6.13606L91.3357 7.4583C87.1667 2.72698 83.8481 1.82527 81.335 2.34885Z" fill="#FFEE52"/>
</svg>
