<svg width="31" height="34" viewBox="0 0 31 34" fill="none" xmlns="http://www.w3.org/2000/svg">
<g clip-path="url(#clip0_931_976)">
<path d="M15.4995 0.455078C6.9531 0.455078 0 7.85065 0 16.9419C0 26.0322 6.95215 33.4278 15.4995 33.4278C16.0281 33.4278 16.4551 32.9726 16.4551 32.4124C16.4551 31.8512 16.0281 31.396 15.4995 31.396C8.00646 31.396 1.91217 24.9118 1.91217 16.943C1.91217 8.97305 8.00646 2.48894 15.4995 2.48894C22.9926 2.48894 29.0859 8.97305 29.0859 16.943C29.0859 20.2728 27.4195 23.5754 25.0348 24.9724C24.1684 25.4791 23.2289 25.7304 22.2268 25.7405C22.8284 25.359 23.3494 24.8452 23.7366 24.1952C23.8125 24.0731 23.9131 23.9671 23.9624 23.8328C24.2737 23.0364 24.3012 22.1331 24.4891 21.2933C24.7197 20.2173 20.0688 18.1209 19.6646 19.4613C19.5184 19.9589 19.2945 21.5285 19.0012 21.9423C18.7403 22.3107 18.0969 22.1371 17.6945 21.7727C16.6345 20.8118 15.4511 19.3987 14.413 18.2834L14.4149 18.2824C14.3883 18.2531 14.356 18.2198 14.3275 18.1905C14.2981 18.1602 14.2687 18.1279 14.2393 18.0977C13.1897 16.9944 11.8612 15.7378 10.9587 14.6073C10.6171 14.1793 10.452 13.497 10.7993 13.2184C11.1884 12.9055 12.665 12.6703 13.1318 12.5139C14.3902 12.0849 12.4201 7.13501 11.4085 7.38231C10.619 7.57913 9.76964 7.60941 9.02091 7.93947C8.89374 7.996 8.79505 8.10097 8.68023 8.18172C6.02406 9.97333 5.68148 14.3216 8.27407 17.5607C9.26195 18.8002 10.2925 19.9993 11.3535 21.1701L11.3478 21.1742C11.3772 21.2055 11.4076 21.2347 11.4379 21.265C11.4664 21.2963 11.4939 21.3276 11.5214 21.3609L11.5271 21.3549C12.6279 22.4833 13.9328 24.1447 16.0528 25.6497C20.5158 28.8201 23.9406 27.9349 25.9581 26.758C29.4408 24.718 30.999 20.3606 30.999 16.948C31 7.85065 24.0459 0.455078 15.4995 0.455078Z" fill="#FFEE52"/>
</g>
<defs>
<clipPath id="clip0_931_976">
<rect width="31" height="32.9727" fill="white" transform="translate(0 0.455078)"/>
</clipPath>
</defs>
</svg>
