<svg width="256" height="259" viewBox="0 0 256 259" fill="none" xmlns="http://www.w3.org/2000/svg">
<g clip-path="url(#clip0_991_26)">
<path d="M5.46298 127.956C5.45698 149.633 11.121 170.799 21.891 189.455L4.43298 253.197L69.665 236.093C87.7073 245.915 107.922 251.062 128.465 251.063H128.519C196.334 251.063 251.537 195.88 251.566 128.053C251.579 95.186 238.791 64.28 215.557 41.028C192.327 17.778 161.432 4.967 128.514 4.952C60.691 4.952 5.49198 60.132 5.46398 127.956" fill="url(#paint0_linear_991_26)"/>
<path d="M1.07 127.916C1.063 150.373 6.93 172.296 18.084 191.62L0 257.647L67.571 239.93C86.189 250.081 107.151 255.433 128.481 255.441H128.536C198.784 255.441 255.97 198.273 256 128.018C256.012 93.97 242.764 61.953 218.7 37.868C194.633 13.786 162.633 0.514 128.536 0.5C58.276 0.5 1.099 57.66 1.071 127.916H1.07ZM41.31 188.292L38.787 184.287C28.181 167.423 22.583 147.935 22.591 127.924C22.614 69.529 70.138 22.02 128.576 22.02C156.876 22.032 183.472 33.064 203.476 53.08C223.479 73.098 234.486 99.708 234.479 128.01C234.453 186.405 186.928 233.92 128.536 233.92H128.494C109.481 233.91 90.834 228.804 74.572 219.155L70.702 216.86L30.604 227.373L41.31 188.291V188.292Z" fill="url(#paint1_linear_991_26)"/>
<path d="M96.678 74.648C94.292 69.345 91.781 69.238 89.512 69.145C87.654 69.065 85.53 69.071 83.408 69.071C81.284 69.071 77.833 69.87 74.916 73.055C71.996 76.243 63.768 83.947 63.768 99.616C63.768 115.286 75.181 130.429 76.772 132.556C78.365 134.679 98.805 167.863 131.177 180.629C158.081 191.238 163.556 189.128 169.395 188.596C175.235 188.066 188.239 180.894 190.892 173.457C193.547 166.021 193.547 159.647 192.751 158.315C191.955 156.988 189.831 156.191 186.646 154.599C183.46 153.006 167.802 145.301 164.883 144.238C161.963 143.176 159.84 142.646 157.716 145.835C155.592 149.019 149.493 156.191 147.634 158.315C145.777 160.444 143.918 160.709 140.734 159.116C137.547 157.518 127.29 154.159 115.121 143.31C105.653 134.868 99.261 124.443 97.403 121.254C95.545 118.07 97.204 116.344 98.801 114.757C100.232 113.33 101.987 111.038 103.581 109.179C105.169 107.319 105.699 105.992 106.761 103.868C107.824 101.742 107.292 99.882 106.497 98.289C105.699 96.696 99.51 80.946 96.678 74.649" fill="white"/>
</g>
<defs>
<linearGradient id="paint0_linear_991_26" x1="127.999" y1="253.197" x2="127.999" y2="4.952" gradientUnits="userSpaceOnUse">
<stop stop-color="#1FAF38"/>
<stop offset="1" stop-color="#60D669"/>
</linearGradient>
<linearGradient id="paint1_linear_991_26" x1="128" y1="257.647" x2="128" y2="0.5" gradientUnits="userSpaceOnUse">
<stop stop-color="#F9F9F9"/>
<stop offset="1" stop-color="white"/>
</linearGradient>
<clipPath id="clip0_991_26">
<rect width="256" height="258" fill="white" transform="translate(0 0.5)"/>
</clipPath>
</defs>
</svg>
